<svg width="739" height="669" viewBox="0 0 739 669" fill="none" xmlns="http://www.w3.org/2000/svg">
<path d="M640.935 424.173H601.797V439.145H640.935V424.173Z" fill="#EBEBEB"/>
<path d="M619.105 443.052H579.967V458.024H619.105V443.052Z" fill="#EBEBEB"/>
<path d="M662.765 443.052H623.627V458.024H662.765V443.052Z" fill="#EBEBEB"/>
<path d="M137.203 424.173H98.0654V439.145H137.203V424.173Z" fill="#EBEBEB"/>
<path d="M115.358 443.052H76.2207V458.024H115.358V443.052Z" fill="#DBDBDB"/>
<path d="M385.359 304.743H346.222V319.715H385.359V304.743Z" fill="#EBEBEB"/>
<path d="M363.514 323.622H324.377V338.594H363.514V323.622Z" fill="#DBDBDB"/>
<path d="M552.595 153.776H513.458V168.749H552.595V153.776Z" fill="#DBDBDB"/>
<path d="M407.189 323.622H368.052V338.594H407.189V323.622Z" fill="#EBEBEB"/>
<path d="M638.674 73.8311H599.536V88.8033H638.674V73.8311Z" fill="#EBEBEB"/>
<path d="M660.504 92.71H621.366V107.682H660.504V92.71Z" fill="#DBDBDB"/>
<path d="M115.358 73.8447H76.2207V88.8169H115.358V73.8447Z" fill="#EBEBEB"/>
<path d="M478.325 621.808C573.601 621.808 650.837 613.146 650.837 602.461C650.837 591.775 573.601 583.113 478.325 583.113C383.049 583.113 305.813 591.775 305.813 602.461C305.813 613.146 383.049 621.808 478.325 621.808Z" fill="#EBEBEB"/>
<path d="M101.524 505.964C95.0503 506.165 87.8377 506.5 82.4873 502.7C77.536 499.194 73.1168 493.976 73.7819 487.982C73.9741 486.269 74.4027 485.212 76.4275 485.935C79.5166 487.058 81.8814 490.136 84.0245 492.29C86.7382 495.111 89.7422 497.691 92.9959 499.997C95.3016 501.603 97.7699 502.981 100.12 504.519L101.007 505.121L101.332 505.349H101.524C101.576 505.349 101.626 505.361 101.672 505.381C101.718 505.402 101.759 505.432 101.79 505.469C101.79 505.469 101.79 505.536 101.79 505.576C101.803 505.618 101.807 505.661 101.8 505.704C101.794 505.746 101.777 505.787 101.752 505.824C101.727 505.86 101.694 505.892 101.655 505.916C101.615 505.94 101.571 505.957 101.524 505.964Z" fill="#37474F"/>
<path d="M101.834 505.576C96.1588 505.482 90.0103 505.723 85.4728 502.231C83.3785 500.553 81.5924 498.584 80.1816 496.397C79.5313 495.434 77.5655 492.544 78.3784 491.393C79.8564 489.319 86.6257 497.789 87.5716 498.605C91.1184 501.524 95.4426 503.557 100.12 504.506L101.007 505.108C97.7103 504.48 94.5467 503.378 91.6361 501.843C87.6011 499.662 85.3546 496.491 82.1917 493.427C81.5118 492.771 79.4574 490.59 78.674 491.955C78.1715 492.852 80.152 495.675 80.4772 496.277C81.8115 498.314 83.4755 500.159 85.4137 501.749C89.9512 505.335 96.0553 505.201 101.79 505.416C101.805 505.509 101.834 505.536 101.834 505.576Z" fill="white"/>
<path d="M105.086 509.537C105.086 509.751 104.983 509.978 104.924 510.206C104.919 510.234 104.905 510.261 104.884 510.282C104.863 510.303 104.836 510.319 104.805 510.326C104.742 510.346 104.673 510.345 104.611 510.323C104.548 510.301 104.497 510.259 104.465 510.206C104.451 510.184 104.444 510.158 104.444 510.132C104.444 510.107 104.451 510.081 104.465 510.059C104.459 510.032 104.459 510.005 104.465 509.978V509.778C104.456 509.756 104.456 509.732 104.465 509.711C103.313 505.844 102.869 501.817 101.657 497.936C100.445 494.056 99.0707 490.604 98.243 486.831C97.7257 484.449 95.893 472.501 101.702 474C104.288 474.655 106.047 478.014 107.022 480.047C108.306 482.769 109.032 485.68 109.165 488.637C109.668 495.916 106.712 502.553 105.086 509.537Z" fill="#37474F"/>
<path d="M106.948 494.658C107.069 491.929 106.755 489.199 106.017 486.55C105.751 485.64 104.539 481.198 102.854 481.345C101.79 481.412 101.598 483.312 101.509 483.941C101.14 486.617 102.1 489.293 102.662 491.902C103.81 497.163 104.527 502.494 104.805 507.851C104.805 508.186 104.687 508.534 104.657 508.868C104.628 509.203 104.569 509.43 104.524 509.711C104.48 509.992 104.524 509.898 104.524 510.005C104.516 510.081 104.516 510.157 104.524 510.233C104.556 510.286 104.607 510.328 104.67 510.35C104.732 510.372 104.801 510.373 104.864 510.353C104.864 510.126 104.864 509.912 104.968 509.698C104.968 509.872 104.968 510.045 104.968 510.233C104.968 510.032 104.968 509.858 105.086 509.671C105.079 509.631 105.079 509.59 105.086 509.55C105.086 509.243 105.086 508.948 105.086 508.654C106.015 504.027 106.637 499.353 106.948 494.658ZM104.982 506.7C104.82 503.57 104.48 500.452 103.992 497.334C103.593 494.832 103.076 492.357 102.514 489.882C102.128 488.495 101.881 487.08 101.775 485.654C101.775 484.57 101.893 480.529 104.184 482.978C105.84 484.797 106.239 488.651 106.446 490.872C106.636 493.342 106.581 495.823 106.283 498.284C105.958 501.161 105.441 503.944 104.938 506.714L104.982 506.7Z" fill="white"/>
<path d="M108.574 525.593C108.496 525.602 108.416 525.602 108.338 525.593C102.426 525.325 94.5479 525.834 89.6261 522.288C85.9903 519.612 82.4283 514.501 83.5811 510.112C84.8818 505.175 92.257 511.102 94.2079 512.534C99.3015 516.539 104.142 520.801 108.707 525.298C108.7 525.329 108.7 525.361 108.707 525.392C108.825 525.526 108.707 525.566 108.574 525.593Z" fill="#37474F"/>
<path d="M108.766 525.445L107.746 524.856C103.903 522.653 100.13 520.303 96.4248 517.805C95.5084 517.163 88.8574 511.798 87.8524 513.711C87.2464 514.875 89.4486 517.23 90.1433 518.033C91.3929 519.456 92.8906 520.685 94.5773 521.672C98.5235 523.893 103.297 524.348 107.761 525.445C107.977 525.477 108.19 525.526 108.397 525.592H108.5C108.707 525.566 108.825 525.526 108.766 525.445ZM97.0751 522.395C95.1876 521.62 93.4585 520.561 91.9612 519.264C90.9709 518.421 87.5272 515.25 88.414 513.912C88.9017 513.216 89.3156 513.577 90.2467 514.005C90.6832 514.195 91.1032 514.414 91.503 514.661C92.4933 515.25 93.4096 515.932 94.3408 516.601C95.9518 517.779 97.6072 518.916 99.2921 520.013C102.041 521.797 104.859 523.514 107.746 525.164C104.199 524.161 100.504 523.773 97.0751 522.395Z" fill="white"/>
<path d="M119.378 514.568C117.837 520.713 114.307 526.303 109.239 530.624C109.239 530.624 109.239 530.624 109.121 530.624C109.067 530.641 109.009 530.641 108.955 530.624C108.901 530.607 108.856 530.574 108.825 530.53C108.803 530.51 108.785 530.486 108.772 530.46C108.76 530.434 108.753 530.405 108.753 530.376C108.753 530.348 108.76 530.319 108.772 530.293C108.785 530.266 108.803 530.242 108.825 530.223L109.121 529.942C110.097 522.663 111.175 515.424 112.077 508.132C112.269 506.406 113.762 495.461 117.487 497.241C119.777 498.351 119.925 502.834 120.117 504.854C120.422 508.107 120.173 511.383 119.378 514.568Z" fill="#37474F"/>
<path d="M117.22 504.813C117.028 504.198 116.673 503.583 115.92 504.011C114.442 504.827 113.91 509.965 113.658 511.396C112.668 517.27 111.131 522.917 109.579 528.657L109.18 530.115L108.825 530.557C108.857 530.598 108.903 530.63 108.956 530.647C109.009 530.664 109.067 530.665 109.121 530.65C109.121 530.65 109.121 530.557 109.121 530.503C109.121 530.45 109.446 530.115 109.594 529.914C112.144 526.77 114.139 523.285 115.506 519.585C116.356 517.269 116.936 514.879 117.235 512.453C117.516 510.125 117.974 507.021 117.22 504.813ZM109.638 529.513L109.372 529.847C109.372 529.647 109.505 529.459 109.564 529.259C111.096 524.876 112.306 520.406 113.185 515.879C113.614 513.591 113.895 511.276 114.412 509.001C114.634 508.038 115.151 505.282 116.038 504.84C116.925 504.399 116.895 505.469 116.984 506.085C117.072 506.7 116.984 507.329 116.984 507.757C117.128 515.528 114.557 523.143 109.638 529.513Z" fill="white"/>
<path d="M110.215 546.291H109.032C109.032 545.341 109.032 544.405 109.032 543.468C108.899 539.668 108.722 535.868 108.471 532.055C108.338 529.887 108.16 527.733 107.909 525.606C107.909 525.539 107.909 525.459 107.909 525.392C107.909 525.325 107.909 525.044 107.909 524.856C107.909 524.669 107.909 524.495 107.835 524.295C107.296 519.474 105.924 514.761 103.771 510.326C103.017 508.841 102.204 507.396 101.332 505.964C101.332 505.83 101.169 505.696 101.081 505.563C101.091 505.523 101.091 505.482 101.081 505.442L100.829 505.014L100.623 504.706C97.8883 500.344 94.7106 496.183 91.7546 491.982C90.8973 490.791 90.0401 489.587 89.2124 488.369C89.1546 488.303 89.105 488.231 89.0646 488.155C88.9921 488.071 88.9278 487.982 88.8725 487.888C85.1479 482.536 81.4825 477.184 77.6101 471.965C77.4475 471.778 77.8022 471.604 77.95 471.791C80.5661 475.257 83.2708 478.669 85.9608 482.107L87.025 483.445C87.7344 484.355 88.503 485.252 89.1385 486.121C90.6165 487.941 91.9319 489.747 93.2769 491.594C97.2689 496.701 100.907 502.028 104.17 507.543C104.406 507.958 104.628 508.372 104.85 508.8C105.071 509.229 105.13 509.322 105.249 509.59C105.367 509.857 105.559 510.205 105.707 510.513C108.121 515.876 109.467 521.584 109.683 527.372L109.771 528.59C109.771 528.763 109.771 528.964 109.771 529.151C109.764 529.249 109.764 529.348 109.771 529.446C109.771 529.58 109.771 529.7 109.771 529.847C109.771 529.941 109.771 530.035 109.771 530.142V531.185C109.949 534.985 110.052 538.785 110.141 542.585C110.111 543.856 110.17 545.074 110.215 546.291Z" fill="#37474F"/>
<path d="M74.9199 477.398C71.6831 473.451 67.5299 465.356 72.3039 461.101C73.1679 460.282 74.3368 459.782 75.5845 459.698C76.8322 459.614 78.0699 459.952 79.0583 460.646C81.5857 462.292 82.709 465.41 83.4923 467.992C85.6798 474.896 87.1282 481.921 89.8477 488.677C89.9648 488.913 90.0684 489.154 90.1581 489.4C90.1581 489.547 89.966 489.601 89.9069 489.467C89.8477 489.333 89.7295 489.025 89.626 488.811C84.5269 485.413 78.748 482.068 74.9199 477.398Z" fill="#37474F"/>
<path d="M89.9362 488.691L89.8623 488.571C88.7622 486.928 87.775 485.226 86.9063 483.473C85.1055 479.797 83.5508 476.026 82.2506 472.18C81.7333 470.709 79.4129 463.457 76.5456 466.347C75.3484 467.564 75.5257 469.718 75.7031 471.204C76.0331 473.592 76.882 475.897 78.2009 477.987C80.9325 482.037 84.5976 485.506 88.946 488.156L89.5224 488.544C89.5562 488.609 89.5957 488.672 89.6406 488.731C89.6358 488.771 89.6358 488.812 89.6406 488.852C89.6649 488.857 89.6903 488.857 89.7145 488.852C89.7388 488.86 89.7646 488.864 89.7905 488.863C89.8165 488.863 89.8419 488.857 89.8654 488.847C89.8889 488.837 89.9099 488.823 89.9272 488.805C89.9444 488.788 89.9576 488.767 89.9658 488.745C89.9627 488.724 89.9523 488.706 89.9362 488.691ZM88.6799 487.888C85.1955 485.566 82.1207 482.778 79.5607 479.62C78.2779 477.935 77.2815 476.086 76.6047 474.134C76.3041 473.26 76.0865 472.365 75.9544 471.458C75.843 470.785 75.7985 470.104 75.8213 469.424C75.8213 467.939 76.5603 466.32 77.5358 466.159C78.5113 465.999 79.1321 466.601 79.9302 467.845C80.1942 468.279 80.4311 468.726 80.6396 469.183C81.1536 470.303 81.6025 471.446 81.9846 472.609C82.6497 474.535 83.3296 476.435 84.0981 478.322C84.6154 479.66 85.1623 480.877 85.7683 482.122C86.7847 484.274 87.9702 486.358 89.3155 488.357C89.0934 488.212 88.8811 488.056 88.6799 487.888Z" fill="white"/>
<path d="M638.038 488.37C637.506 492.277 636.678 496.157 635.806 500.01C635.304 502.191 634.786 504.372 634.328 506.567C633.796 508.975 632.998 511.437 633.722 513.872C633.736 513.983 633.736 514.095 633.722 514.207C633.687 514.248 633.639 514.28 633.585 514.299C633.531 514.318 633.473 514.324 633.415 514.316C633.358 514.308 633.304 514.286 633.259 514.253C633.215 514.219 633.181 514.176 633.161 514.126V513.952C632.76 513.311 632.447 512.628 632.229 511.919C631.396 510.075 630.681 508.19 630.086 506.272C628.836 502.353 628.131 498.308 627.988 494.23C627.873 490.579 628.295 486.93 629.244 483.379C630.012 480.542 631.106 476.314 633.441 474.147C635.555 472.18 637.314 475.324 637.875 476.916C639.206 480.556 638.496 484.717 638.038 488.37Z" fill="#37474F"/>
<path d="M634.166 480.128C632.599 480.128 631.446 484.731 630.884 486.711C630.013 489.848 629.567 493.07 629.554 496.304C629.567 502.103 630.667 507.858 632.806 513.324C632.88 513.538 632.968 513.765 633.057 513.993V514.14C633.075 514.19 633.108 514.235 633.152 514.27C633.196 514.305 633.25 514.328 633.307 514.338C633.365 514.347 633.424 514.343 633.479 514.324C633.534 514.306 633.582 514.275 633.619 514.234C633.515 513.752 633.441 513.284 633.382 512.802C633.323 512.32 633.264 511.932 633.234 511.464C633.015 506.746 633.337 502.019 634.195 497.361C635.052 492.023 636.25 480.128 634.166 480.128ZM633.042 512.454C633.116 513.096 633.234 513.712 633.353 514.341C633.19 513.886 633.042 513.431 632.88 513.003C631.16 508.136 630.165 503.082 629.924 497.977C629.728 493.553 630.373 489.131 631.83 484.905C632.052 484.276 633.19 480.436 634.166 480.623C634.845 480.757 635.008 484.222 635.023 484.302C635.023 484.985 635.023 485.64 635.023 486.39C635.023 487.821 634.89 489.253 634.757 490.685C634.461 493.776 633.973 496.866 633.56 499.944C632.851 504.081 632.678 508.28 633.042 512.454Z" fill="white"/>
<path d="M658.346 499.234C656.986 497.99 652.936 501.054 651.931 501.777C648.908 504.001 646.109 506.463 643.566 509.136C639.215 513.274 635.609 518.006 632.88 523.158L632.747 523.318V523.573V523.653C632.722 523.681 632.708 523.717 632.708 523.753C632.708 523.79 632.722 523.825 632.747 523.854L632.954 523.639C633.456 523.078 633.988 522.542 634.521 522.007C634.606 521.912 634.7 521.822 634.801 521.74C638.727 518.167 642.904 514.829 647.305 511.745C650.321 509.541 653.106 507.091 655.626 504.426C656.232 503.703 659.499 500.278 658.346 499.234ZM657.09 501.91C653.675 507.022 647.778 510.768 642.768 514.501C639.311 516.942 636.124 519.68 633.249 522.676C635.905 518.103 639.226 513.873 643.122 510.099C645.251 507.876 647.516 505.763 649.906 503.77C651.201 502.688 652.579 501.691 654.03 500.786C654.899 500.242 655.837 499.792 656.824 499.448C658.73 498.967 657.71 501.081 657.09 501.964V501.91Z" fill="white"/>
<path d="M632.067 535.963C632.036 536.008 631.993 536.046 631.941 536.072C631.889 536.098 631.831 536.111 631.771 536.11L631.845 536.204C631.855 536.212 631.863 536.223 631.868 536.234C631.874 536.246 631.876 536.258 631.876 536.27C631.876 536.283 631.874 536.295 631.868 536.307C631.863 536.318 631.855 536.329 631.845 536.337C631.824 536.353 631.798 536.361 631.771 536.361C631.744 536.361 631.718 536.353 631.697 536.337C626.362 531.414 621.218 525.433 618.558 518.943C617.41 516.198 616.766 513.301 616.651 510.367C616.651 508.36 616.474 504.319 618.366 502.861C622.179 499.917 625.667 512.387 626.185 514.274C627.13 517.699 627.751 521.191 628.623 524.63C629.584 528.403 630.84 532.096 632.082 535.789C632.1 535.847 632.094 535.908 632.067 535.963Z" fill="#37474F"/>
<path d="M632.067 535.962C631.86 535.641 631.653 535.32 631.461 534.999C628.232 529.768 625.914 524.118 624.588 518.247C624.016 515.279 623.166 512.361 622.046 509.523C621.736 508.828 620.79 506.178 619.519 507.516C618.868 508.212 619.415 513.257 619.667 514.554C620.311 517.513 621.353 520.389 622.77 523.118C625.083 527.721 628.022 532.045 631.52 535.989L631.831 536.337C631.84 536.328 631.848 536.318 631.854 536.306C631.859 536.295 631.862 536.283 631.862 536.27C631.862 536.258 631.859 536.245 631.854 536.234C631.848 536.222 631.84 536.212 631.831 536.203L631.757 536.11C631.818 536.113 631.88 536.101 631.934 536.075C631.989 536.049 632.035 536.01 632.067 535.962ZM624.308 525.258C622.775 522.605 621.547 519.816 620.642 516.936C620.301 515.787 620.035 514.621 619.844 513.444C619.682 512.523 619.593 511.593 619.578 510.661C619.578 508.386 619.8 507.797 620.228 507.717C620.657 507.637 620.849 507.918 621.588 509.269C622.042 510.16 622.403 511.087 622.667 512.039C623.051 513.377 623.391 514.715 623.716 516.053C624.367 518.729 624.973 521.499 625.845 524.161C627.075 527.992 628.86 531.658 631.151 535.066C628.573 531.969 626.284 528.684 624.308 525.245V525.258Z" fill="white"/>
<path d="M649.197 524.001C648.567 526.402 647.372 528.652 645.694 530.597C642.516 534.611 638.467 537.863 635.008 541.609C634.491 542.158 633.988 542.733 633.53 543.322C633.53 543.388 633.072 544.205 633.087 544.138L633.249 543.281C633.796 540.605 635.629 532.738 637.89 528.684C639.258 526.119 640.96 523.711 642.96 521.512C643.935 520.509 646.241 518.341 647.97 518.836C649.7 519.331 649.463 522.743 649.197 524.001Z" fill="#37474F"/>
<path d="M646.374 522.408C644.512 521.365 639.738 529.098 639.087 530.088C636.718 533.789 634.885 537.751 633.634 541.876C633.486 542.344 633.353 542.799 633.235 543.281L633.042 544.137C633.042 544.137 633.442 543.388 633.501 543.308L633.752 543.013C634.166 542.532 634.58 542.063 635.008 541.675C637.077 538.866 639.206 536.069 641.231 533.219C642.704 531.17 643.994 529.018 645.088 526.783C645.325 526.208 647.187 522.85 646.374 522.408ZM645.842 524.576C643.196 531.266 637.816 536.618 633.708 542.572L633.515 542.866C633.515 542.692 633.619 542.518 633.678 542.344C634.787 538.954 636.247 535.666 638.038 532.523C639.134 530.611 640.358 528.761 641.704 526.984C642.398 525.982 643.163 525.021 643.994 524.107C644.379 523.733 645.472 522.769 645.842 522.89C646.211 523.01 646.005 524.134 645.886 524.576H645.842Z" fill="white"/>
<path d="M667.82 468.501C662.307 479.954 647.837 485.292 641.57 496.344C641.378 496.679 641.201 497.027 641.023 497.375C641.007 497.409 640.981 497.44 640.949 497.463C640.916 497.487 640.878 497.503 640.836 497.509C640.795 497.516 640.753 497.513 640.714 497.501C640.674 497.49 640.638 497.469 640.61 497.442C640.591 497.411 640.582 497.376 640.582 497.341C640.582 497.306 640.591 497.272 640.61 497.241L640.743 497C641.978 489.945 644.601 483.147 648.487 476.93C651.65 471.645 655.981 466.708 661.996 463.925C663.474 463.229 666.356 461.784 668.012 462.921C669.667 464.058 668.499 467.082 667.82 468.501Z" fill="#37474F"/>
<path d="M662.854 468.982C662.159 468.514 661.095 469.089 660.489 469.37C658.986 470.078 657.582 470.945 656.306 471.952C653.699 474.032 651.453 476.454 649.64 479.138C646.369 483.632 643.727 488.477 641.777 493.561C641.363 494.712 640.994 495.876 640.684 497.053C640.684 497.201 640.61 497.348 640.58 497.481C640.603 497.512 640.634 497.537 640.67 497.554C640.706 497.571 640.746 497.58 640.787 497.58C640.828 497.58 640.868 497.571 640.904 497.554C640.94 497.537 640.971 497.512 640.994 497.481C641.156 497.147 641.334 496.826 641.526 496.491C641.526 496.491 641.526 496.491 641.526 496.398C642.596 494.109 643.913 491.922 645.457 489.868C647.987 486.754 650.742 483.795 653.705 481.011C654.872 479.82 665.277 470.601 662.854 468.982ZM661.967 471.658C660.08 474.254 657.89 476.659 655.434 478.83C653.143 481.145 650.837 483.432 648.591 485.774C646.797 487.636 645.18 489.633 643.758 491.741C642.592 493.495 641.602 495.34 640.802 497.254C641.388 495.302 642.108 493.385 642.96 491.514C644.515 488.201 646.297 484.979 648.295 481.867C648.328 481.832 648.354 481.791 648.369 481.747C650.057 478.97 652.106 476.387 654.473 474.053C655.765 472.787 657.219 471.664 658.804 470.708C660.622 469.651 662.203 468.955 662.661 469.477C663.12 469.999 662.469 470.855 661.967 471.645V471.658Z" fill="white"/>
<path d="M648.561 481.934C646.906 485.159 645.325 488.437 643.758 491.728C643.019 493.267 642.28 494.806 641.57 496.344C641.57 496.344 641.57 496.411 641.57 496.438L640.772 498.111C638.154 503.108 635.989 508.29 634.299 513.605C633.568 516.434 633.128 519.319 632.983 522.221C632.983 522.516 632.983 522.823 632.983 523.118V523.6C632.976 523.693 632.976 523.787 632.983 523.881C632.88 526.396 632.983 528.911 632.983 531.36C633.057 534.785 633.382 538.184 633.737 541.569C633.73 541.667 633.73 541.765 633.737 541.863V542.332C633.737 542.412 633.737 542.479 633.737 542.559V543.001C633.855 544.084 633.959 545.181 634.062 546.279H632.909C632.171 542.952 631.707 539.579 631.52 536.19C631.513 536.119 631.513 536.047 631.52 535.976C631.52 535.655 631.52 535.307 631.52 534.986C631.52 534.665 631.52 534.183 631.52 533.768C631.52 532.792 631.446 531.815 631.431 530.851C631.134 525.191 631.581 519.518 632.762 513.953C632.762 513.805 632.762 513.658 632.88 513.498C632.874 513.435 632.874 513.373 632.88 513.31C632.897 513.202 632.922 513.095 632.954 512.989L633.116 512.467C633.205 512.16 633.308 511.852 633.397 511.558L633.486 511.277C635.262 506.514 637.39 501.865 639.856 497.361L641.127 494.913C641.378 494.458 641.615 494.003 641.851 493.575L642.975 491.514C644.733 488.29 646.566 485.105 648.31 481.867C648.369 481.68 648.65 481.774 648.561 481.934Z" fill="#37474F"/>
<path d="M450.14 476.074H187.647V507.544H450.14V476.074Z" fill="#A84FCE"/>
<path d="M241.594 476.074L222.543 507.544H188.652L207.704 476.074H241.594Z" fill="#EBEBEB"/>
<path d="M311.09 476.074L292.038 507.544H258.133L277.169 476.074H311.09Z" fill="#EBEBEB"/>
<path d="M380.57 476.074L361.519 507.544H327.614L346.665 476.074H380.57Z" fill="#EBEBEB"/>
<path d="M450.051 476.074L431 507.544H397.095L416.146 476.074H450.051Z" fill="#EBEBEB"/>
<path d="M399.636 547.483H435.744L408.992 399.005H372.899L399.636 547.483Z" fill="#EBEBEB"/>
<path d="M207.097 547.483H243.205L216.468 399.005H180.36L207.097 547.483Z" fill="#EBEBEB"/>
<path d="M414.417 547.483H450.524L423.772 399.005H387.68L414.417 547.483Z" fill="#C7C7C7"/>
<path d="M207.097 547.483H243.205L216.468 399.005H180.36L207.097 547.483Z" fill="#C7C7C7"/>
<path d="M202.191 399.019L199.944 411.515L197.535 424.949L175.454 547.483H139.361L161.427 424.949L163.851 411.515L166.098 399.019H202.191Z" fill="#EBEBEB"/>
<path d="M196.973 399.019C195.067 411.422 193.027 423.812 190.958 436.202L184.588 473.344L177.922 510.434L174.478 528.965L170.887 547.483L173.843 528.885L176.917 510.287L183.272 473.157L189.938 436.054C192.214 423.705 194.52 411.342 196.973 399.019Z" fill="#C7C7C7"/>
<path d="M199.944 411.516L197.535 424.949H161.427L163.851 411.516H199.944Z" fill="#C7C7C7"/>
<path d="M409.51 399.019L407.263 411.515L404.839 424.949L382.773 547.483H346.665L368.746 424.949L371.17 411.515L373.417 399.019H409.51Z" fill="#EBEBEB"/>
<path d="M404.174 399.019C402.267 411.422 400.228 423.812 398.159 436.202L391.788 473.344L385.123 510.434L381.679 528.965L378.087 547.483L381.043 528.885L384.118 510.287L390.488 473.157L397.154 436.054C399.415 423.705 401.721 411.342 404.174 399.019Z" fill="#C7C7C7"/>
<path d="M407.263 411.516H371.171L368.747 424.949H404.839L407.263 411.516Z" fill="#C7C7C7"/>
<path d="M405.416 481.721H142.923V513.19H405.416V481.721Z" fill="#A84FCE"/>
<path d="M196.87 481.721L177.818 513.19H143.928L162.979 481.721H196.87Z" fill="#EBEBEB"/>
<path d="M266.365 481.721L247.314 513.19H213.409L232.46 481.721H266.365Z" fill="#EBEBEB"/>
<path d="M335.846 481.721L316.795 513.19H282.89L301.941 481.721H335.846Z" fill="#EBEBEB"/>
<path d="M405.327 481.721L386.275 513.19H352.37L371.422 481.721H405.327Z" fill="#EBEBEB"/>
<path d="M452.564 355.239H142.923V411.529H452.564V355.239Z" fill="#A84FCE"/>
<path d="M206.565 355.239L184.1 411.516H144.105L166.585 355.239H206.565Z" fill="#EBEBEB"/>
<path d="M288.536 355.239L266.07 411.516H226.061L248.541 355.239H288.536Z" fill="#EBEBEB"/>
<path d="M370.491 355.239L348.025 411.516H308.03L330.511 355.239H370.491Z" fill="#EBEBEB"/>
<path d="M452.46 355.239L429.995 411.516H389.985L412.466 355.239H452.46Z" fill="#EBEBEB"/>
<path d="M64.9434 547.202L141.075 546.881L217.222 546.761L369.5 546.533L521.778 546.761L597.925 546.881L674.057 547.202L597.925 547.537L521.778 547.657L369.5 547.871L217.222 547.644L141.075 547.537L64.9434 547.202Z" fill="#263238"/>
<path d="M331.959 69.9375H108.13V310.844H331.959V69.9375Z" fill="#A84FCE"/>
<path d="M234.388 155.783C253.866 148.612 263.235 128.504 255.314 110.871C247.392 93.2377 225.181 84.7563 205.703 91.9271C186.224 99.098 176.855 119.206 184.777 136.839C192.698 154.472 214.909 162.954 234.388 155.783Z" fill="#455A64"/>
<path d="M220.045 154.151C213.424 154.151 206.951 152.374 201.446 149.044C195.941 145.714 191.65 140.981 189.116 135.443C186.582 129.906 185.919 123.812 187.211 117.933C188.503 112.055 191.691 106.655 196.373 102.416C201.055 98.1781 207.02 95.2917 213.514 94.1224C220.007 92.953 226.738 93.5532 232.856 95.8469C238.973 98.1407 244.201 102.025 247.879 107.009C251.558 111.993 253.521 117.852 253.521 123.846C253.513 131.881 249.984 139.585 243.708 145.267C237.431 150.949 228.921 154.144 220.045 154.151ZM220.045 95.9083C213.941 95.9083 207.974 97.5468 202.899 100.617C197.824 103.686 193.869 108.05 191.533 113.155C189.197 118.259 188.586 123.877 189.777 129.296C190.968 134.715 193.907 139.693 198.223 143.6C202.539 147.508 208.038 150.168 214.024 151.246C220.01 152.324 226.215 151.771 231.854 149.657C237.493 147.542 242.313 143.961 245.704 139.367C249.095 134.773 250.905 129.371 250.905 123.846C250.897 116.438 247.643 109.337 241.858 104.099C236.072 98.8611 228.227 95.9154 220.045 95.9083Z" fill="white"/>
<path d="M209.713 127.431L209.625 127.324C208.723 126.2 207.836 125.076 206.905 123.979C206.622 123.636 206.277 123.337 205.885 123.096C205.51 122.863 205.078 122.717 204.627 122.67C204.175 122.622 203.718 122.675 203.294 122.824C202.87 122.973 202.493 123.214 202.195 123.524C201.897 123.835 201.687 124.207 201.584 124.608C201.479 125.001 201.468 125.41 201.552 125.807C201.636 126.204 201.813 126.58 202.072 126.91L209.166 136.65C210.392 138.42 212.187 139.807 214.31 140.624C217.926 142 221.957 142.203 225.72 141.199C227.061 140.878 228.303 140.283 229.351 139.459C230.399 138.636 231.225 137.606 231.765 136.449C232.447 135.074 232.795 133.582 232.785 132.074C232.785 128.06 232.785 124.046 232.785 120.099C232.785 117.945 232.785 115.791 232.785 113.637C232.799 113.297 232.725 112.959 232.569 112.649C232.412 112.34 232.177 112.069 231.883 111.857C231.537 111.584 231.109 111.411 230.653 111.36C230.197 111.31 229.735 111.385 229.326 111.576C228.899 111.737 228.536 112.014 228.287 112.368C228.039 112.722 227.917 113.137 227.937 113.556C227.937 116.46 227.937 119.35 227.937 122.253C227.937 122.748 227.715 123.016 227.316 123.016C226.917 123.016 226.71 122.748 226.71 122.253V109.716C226.725 109.538 226.725 109.359 226.71 109.181C226.644 108.621 226.34 108.106 225.863 107.744C225.386 107.381 224.773 107.2 224.152 107.239C223.531 107.277 222.951 107.531 222.532 107.948C222.113 108.365 221.889 108.912 221.907 109.475V120.835C221.914 120.942 221.914 121.049 221.907 121.156C221.889 121.285 221.822 121.405 221.716 121.493C221.611 121.581 221.474 121.632 221.33 121.638C221.187 121.646 221.045 121.605 220.933 121.524C220.821 121.442 220.746 121.325 220.724 121.196C220.709 121.081 220.709 120.964 220.724 120.848V108.258C220.731 108.142 220.731 108.026 220.724 107.91C220.707 107.556 220.591 107.212 220.387 106.91C220.183 106.608 219.897 106.358 219.557 106.184C219.189 105.95 218.757 105.814 218.308 105.792C217.86 105.77 217.413 105.863 217.02 106.06C216.627 106.256 216.303 106.549 216.085 106.905C215.867 107.261 215.764 107.664 215.788 108.07C215.788 112.334 215.788 116.594 215.788 120.848C215.795 120.946 215.795 121.045 215.788 121.143C215.77 121.278 215.699 121.402 215.587 121.493C215.476 121.584 215.332 121.636 215.182 121.638C215.035 121.639 214.893 121.593 214.782 121.506C214.671 121.42 214.597 121.301 214.576 121.17C214.568 121.072 214.568 120.973 214.576 120.875V116.125C214.576 114.359 214.576 112.58 214.576 110.773C214.571 110.487 214.504 110.204 214.378 109.941C214.253 109.678 214.071 109.44 213.844 109.241C213.385 108.838 212.769 108.617 212.13 108.626C211.491 108.635 210.882 108.873 210.437 109.288C209.992 109.703 209.748 110.262 209.758 110.84V127.431H209.713Z" fill="white"/>
<path d="M209.713 127.432V110.881C209.709 110.594 209.766 110.31 209.883 110.044C209.999 109.777 210.173 109.534 210.393 109.329C210.838 108.913 211.447 108.675 212.086 108.666C212.725 108.657 213.341 108.879 213.8 109.281C214.259 109.684 214.522 110.235 214.532 110.814C214.532 112.58 214.532 114.36 214.532 116.166V120.916C214.524 121.014 214.524 121.112 214.532 121.21C214.553 121.341 214.626 121.461 214.738 121.547C214.849 121.633 214.991 121.68 215.138 121.678C215.288 121.676 215.432 121.625 215.543 121.534C215.655 121.443 215.726 121.318 215.744 121.183C215.751 121.085 215.751 120.987 215.744 120.889C215.744 116.634 215.744 112.375 215.744 108.111C215.737 107.724 215.845 107.342 216.057 107.005C216.268 106.669 216.576 106.39 216.947 106.197C217.318 106.005 217.74 105.906 218.167 105.91C218.595 105.915 219.014 106.024 219.38 106.224C219.72 106.399 220.006 106.649 220.21 106.951C220.414 107.253 220.53 107.597 220.547 107.95C220.554 108.066 220.554 108.183 220.547 108.298V120.889C220.532 121.005 220.532 121.121 220.547 121.237C220.569 121.366 220.643 121.482 220.755 121.564C220.868 121.646 221.009 121.687 221.153 121.678C221.297 121.673 221.433 121.622 221.539 121.533C221.645 121.445 221.712 121.326 221.73 121.197C221.737 121.09 221.737 120.983 221.73 120.876V109.476C221.712 108.913 221.936 108.365 222.355 107.948C222.773 107.531 223.354 107.277 223.975 107.239C224.596 107.201 225.209 107.382 225.686 107.744C226.163 108.106 226.466 108.621 226.533 109.181C226.548 109.36 226.548 109.538 226.533 109.717V122.254C226.533 122.749 226.74 123.016 227.139 123.016C227.538 123.016 227.76 122.749 227.76 122.254C227.76 119.35 227.76 116.46 227.76 113.557C227.739 113.138 227.862 112.723 228.11 112.369C228.359 112.014 228.721 111.738 229.149 111.576C229.557 111.386 230.019 111.311 230.475 111.361C230.931 111.411 231.36 111.584 231.706 111.857C232 112.069 232.235 112.341 232.391 112.65C232.548 112.959 232.622 113.297 232.608 113.637C232.608 115.791 232.608 117.945 232.608 120.1C232.608 124.114 232.608 128.128 232.608 132.075C232.618 133.582 232.27 135.074 231.588 136.45C231.047 137.607 230.222 138.636 229.174 139.46C228.126 140.283 226.884 140.878 225.543 141.2C221.78 142.204 217.749 142 214.133 140.624C212.014 139.814 210.219 138.437 208.989 136.677L201.895 126.937C201.636 126.607 201.459 126.231 201.375 125.834C201.291 125.437 201.302 125.028 201.407 124.635C201.499 124.217 201.706 123.826 202.009 123.5C202.312 123.174 202.702 122.922 203.141 122.768C203.581 122.615 204.056 122.564 204.523 122.622C204.99 122.679 205.433 122.843 205.811 123.097C206.203 123.338 206.548 123.636 206.831 123.98C207.762 125.077 208.649 126.201 209.551 127.325L209.639 127.432H209.713Z" fill="white"/>
<path d="M115.18 78.4342C116.552 78.4342 117.663 77.4278 117.663 76.1863C117.663 74.9449 116.552 73.9385 115.18 73.9385C113.809 73.9385 112.697 74.9449 112.697 76.1863C112.697 77.4278 113.809 78.4342 115.18 78.4342Z" fill="white"/>
<path d="M324.923 78.4342C326.295 78.4342 327.407 77.4278 327.407 76.1863C327.407 74.9449 326.295 73.9385 324.923 73.9385C323.552 73.9385 322.44 74.9449 322.44 76.1863C322.44 77.4278 323.552 78.4342 324.923 78.4342Z" fill="white"/>
<path d="M115.18 306.857C116.552 306.857 117.663 305.851 117.663 304.609C117.663 303.368 116.552 302.361 115.18 302.361C113.809 302.361 112.697 303.368 112.697 304.609C112.697 305.851 113.809 306.857 115.18 306.857Z" fill="white"/>
<path d="M324.923 306.857C326.295 306.857 327.407 305.851 327.407 304.609C327.407 303.368 326.295 302.361 324.923 302.361C323.552 302.361 322.44 303.368 322.44 304.609C322.44 305.851 323.552 306.857 324.923 306.857Z" fill="white"/>
<path d="M162.802 246.781V232.812H132.547V221.653L167.25 181.326H176.68V221.56H185.799V232.812H176.68V246.781H162.802ZM146.425 221.56H164.353V200.366L146.425 221.56Z" fill="white"/>
<path d="M248.171 207.39C248.215 211.266 247.53 215.121 246.146 218.79C244.914 222.078 243.02 225.131 240.559 227.794C238.222 230.29 235.325 232.306 232.061 233.708C228.719 235.092 225.087 235.809 221.412 235.809C217.737 235.809 214.105 235.092 210.763 233.708C207.523 232.294 204.648 230.279 202.323 227.794C199.862 225.131 197.968 222.078 196.737 218.79C194.047 211.403 194.047 203.43 196.737 196.044C197.965 192.754 199.86 189.7 202.323 187.039C204.65 184.546 207.524 182.519 210.763 181.085C214.091 179.657 217.729 178.917 221.412 178.917C225.095 178.917 228.732 179.657 232.061 181.085C235.324 182.507 238.22 184.536 240.559 187.039C243.023 189.7 244.918 192.754 246.146 196.044C247.524 199.695 248.209 203.531 248.171 207.39ZM234.189 207.39C234.212 205.066 233.899 202.75 233.258 200.499C232.715 198.593 231.821 196.784 230.612 195.147C229.569 193.73 228.184 192.545 226.563 191.682C225.005 190.865 223.233 190.445 221.434 190.464C219.602 190.443 217.796 190.864 216.202 191.682C214.587 192.549 213.209 193.733 212.167 195.147C210.959 196.784 210.064 198.593 209.521 200.499C208.88 202.75 208.567 205.066 208.59 207.39C208.563 209.701 208.876 212.005 209.521 214.241C210.065 216.146 210.96 217.956 212.167 219.593C213.209 221.006 214.587 222.191 216.202 223.058C217.796 223.876 219.602 224.296 221.434 224.276C223.233 224.295 225.005 223.875 226.563 223.058C228.184 222.195 229.569 221.01 230.612 219.593C231.82 217.956 232.714 216.146 233.258 214.241C233.903 212.005 234.216 209.701 234.189 207.39Z" fill="white"/>
<path d="M292.718 212.742C296.819 213.356 300.514 215.349 303.064 218.322C305.771 221.5 307.181 225.428 307.054 229.441C307.101 232.214 306.444 234.961 305.133 237.469C303.862 239.827 302.017 241.895 299.738 243.516C297.215 245.262 294.352 246.565 291.299 247.356C287.662 248.297 283.892 248.748 280.11 248.694C275.342 248.77 270.604 247.988 266.173 246.393C262.258 244.938 258.793 242.642 256.078 239.703L263.941 230.792C265.707 232.777 267.938 234.381 270.474 235.488C273.396 236.699 276.588 237.281 279.8 237.188C283.197 237.387 286.574 236.594 289.437 234.926C290.567 234.1 291.459 233.038 292.036 231.83C292.613 230.623 292.857 229.307 292.747 227.995C292.833 226.557 292.529 225.121 291.862 223.813C291.195 222.504 290.185 221.364 288.919 220.489C286.357 218.705 282.49 217.813 277.317 217.813H274.361V208.447H277.583C281.128 208.643 284.639 207.732 287.53 205.865C288.648 205.09 289.549 204.088 290.16 202.94C290.771 201.792 291.075 200.53 291.048 199.255C291.127 198.153 290.897 197.05 290.38 196.049C289.864 195.048 289.077 194.181 288.092 193.529C285.848 192.203 283.201 191.547 280.524 191.655C277.534 191.611 274.585 192.29 271.981 193.622C269.431 194.954 267.307 196.863 265.818 199.162L257.172 190.424C258.278 188.909 259.681 187.59 261.31 186.531C263.143 185.319 265.127 184.309 267.222 183.52C269.508 182.65 271.885 181.991 274.317 181.554C276.91 181.084 279.549 180.851 282.194 180.858C285.456 180.821 288.705 181.231 291.831 182.075C294.529 182.8 297.07 183.94 299.339 185.447C301.429 186.824 303.119 188.638 304.264 190.736C305.409 192.833 305.976 195.15 305.916 197.489C305.928 199.307 305.614 201.114 304.985 202.841C304.37 204.489 303.445 206.028 302.251 207.39C301.088 208.764 299.668 209.942 298.053 210.869C296.43 211.808 294.616 212.445 292.718 212.742Z" fill="white"/>
<path d="M130.064 542.907H74.8901L95.39 478.362C95.9162 477.05 96.8758 475.917 98.1385 475.116C99.4011 474.314 100.906 473.885 102.447 473.885C103.989 473.885 105.494 474.314 106.756 475.116C108.019 475.917 108.979 477.05 109.505 478.362L130.064 542.907Z" fill="#A84FCE"/>
<path d="M116.186 499.436H88.6948L93.0106 485.828H111.885L116.186 499.436Z" fill="#EBEBEB"/>
<path d="M123.369 522.021H81.5264L85.8421 508.4H119.038L123.369 522.021Z" fill="#EBEBEB"/>
<g style="mix-blend-mode:multiply" opacity="0.1">
<path d="M130.064 542.907H74.8901L94.3997 481.453C92.7296 521.218 120.132 533.702 127.936 536.445L130.064 542.907Z" fill="black"/>
</g>
<path d="M140.469 542.907H64.4111V547.202H140.469V542.907Z" fill="#A84FCE"/>
<path d="M648.147 542.907H593.033L613.533 478.362C614.059 477.05 615.018 475.917 616.281 475.116C617.544 474.314 619.048 473.885 620.59 473.885C622.132 473.885 623.636 474.314 624.899 475.116C626.162 475.917 627.121 477.05 627.647 478.362L648.147 542.907Z" fill="#A84FCE"/>
<path d="M634.343 499.436H606.837L611.153 485.828H630.027L634.343 499.436Z" fill="#EBEBEB"/>
<path d="M641.511 522.021H599.669L603.985 508.4H637.181L641.511 522.021Z" fill="#EBEBEB"/>
<g style="mix-blend-mode:multiply" opacity="0.1">
<path d="M648.133 542.907H593.033L612.542 481.453C610.872 521.218 638.274 533.702 646.078 536.445L648.133 542.907Z" fill="black"/>
</g>
<path d="M658.612 542.907H582.554V547.202H658.612V542.907Z" fill="#A84FCE"/>
<path d="M362.834 604.63C366.381 605.66 470.92 604.482 474.733 602.221C476.211 601.392 468.821 512.348 468.821 512.348L401.277 512.95L408.46 572.531C408.46 572.531 370.032 588.587 366.13 591.517C362.228 594.447 359.302 603.613 362.834 604.63Z" fill="#EB9481"/>
<path d="M362.849 604.629C366.381 605.659 470.935 604.482 474.733 602.221C475.413 601.846 474.216 582.726 472.738 562.241H407.248L408.489 572.517C408.489 572.517 370.061 588.573 366.145 591.517C362.228 594.46 359.287 603.599 362.849 604.629Z" fill="white"/>
<path d="M361.696 605.927C365.421 607.037 470.979 606.128 475.014 603.773C476.492 602.89 474.32 571.38 474.32 571.192H409.022V572.249C409.022 572.249 368.436 589.095 364.312 592.119C360.188 595.143 357.957 604.843 361.696 605.927Z" fill="#263238"/>
<path d="M361.977 602.18C379.92 601.632 452.327 600.949 470.107 601.632C470.255 601.632 470.255 601.726 470.107 601.739C452.371 602.635 379.949 602.796 361.977 602.448C361.592 602.435 361.592 602.194 361.977 602.18Z" fill="#37474F"/>
<path d="M401.38 571.433C408.43 570.189 417.077 571.099 422.516 575.608C422.723 575.782 422.516 576.049 422.22 575.983C415.45 574.071 408.474 572.82 401.41 572.25C401.304 572.236 401.206 572.188 401.134 572.116C401.063 572.043 401.021 571.95 401.018 571.853C401.014 571.755 401.049 571.66 401.115 571.583C401.181 571.507 401.275 571.454 401.38 571.433Z" fill="#37474F"/>
<path d="M396.311 574.257C403.361 573.012 412.007 573.922 417.446 578.431C417.653 578.605 417.446 578.873 417.151 578.806C410.385 576.896 403.414 575.644 396.355 575.073C396.248 575.061 396.149 575.015 396.076 574.943C396.003 574.872 395.959 574.779 395.954 574.682C395.949 574.584 395.982 574.488 396.047 574.41C396.112 574.332 396.206 574.278 396.311 574.257Z" fill="#37474F"/>
<path d="M391.241 577.08C398.291 575.835 406.937 576.745 412.376 581.254C412.598 581.428 412.376 581.696 412.081 581.629C405.316 579.718 398.344 578.466 391.285 577.896C391.178 577.884 391.079 577.838 391.006 577.767C390.933 577.695 390.89 577.602 390.884 577.505C390.879 577.407 390.912 577.311 390.977 577.233C391.042 577.156 391.136 577.101 391.241 577.08Z" fill="#37474F"/>
<path d="M401.661 569.989H474.438C474.438 569.989 462.244 417.309 462.614 415.262C463.353 411.824 467.639 396.249 473.359 375.912C475.147 369.556 477.083 362.732 479.094 355.654C484.518 336.521 490.489 315.608 495.692 297.411C503.51 270.156 509.614 248.976 509.614 248.976H447.982C447.982 248.976 440.784 269.594 431.724 296.421C416.944 340.013 397.257 400.009 395.306 414.607C393.015 432.268 401.661 569.989 401.661 569.989Z" fill="#37474F"/>
<path d="M405.046 557.947C416.131 557.746 412.938 557.666 424.038 557.572C429.462 557.572 465.127 557.238 470.196 558C470.219 558.008 470.238 558.022 470.252 558.039C470.266 558.057 470.273 558.079 470.273 558.101C470.273 558.122 470.266 558.144 470.252 558.162C470.238 558.18 470.219 558.193 470.196 558.201C465.127 558.964 429.462 558.683 424.038 558.629C412.938 558.535 416.131 558.455 405.046 558.241C405.025 558.241 405.003 558.237 404.984 558.23C404.964 558.222 404.946 558.212 404.931 558.198C404.916 558.184 404.904 558.168 404.896 558.15C404.887 558.132 404.883 558.113 404.883 558.094C404.883 558.075 404.887 558.055 404.896 558.038C404.904 558.02 404.916 558.003 404.931 557.99C404.946 557.976 404.964 557.965 404.984 557.958C405.003 557.95 405.025 557.947 405.046 557.947Z" fill="#263238"/>
<path d="M498.47 256.549L487.163 292.595L476.137 328.721C472.457 340.763 468.925 352.805 465.378 364.847C461.83 376.889 458.357 389.011 455.032 401.16C454.248 404.211 453.45 407.248 452.785 410.325C452.608 411.101 452.489 411.891 452.327 412.68C452.327 413.108 452.253 413.576 452.253 414.018L452.356 415.182L462.023 548.179V548.581L462.835 548.126L453.967 415.075L453.879 413.911C453.879 413.536 453.879 413.229 453.879 412.881C454.041 412.131 454.145 411.382 454.322 410.62C454.987 407.582 455.8 404.545 456.598 401.508C463.057 377.25 470.27 353.126 477.29 328.975L498.47 256.549Z" fill="#263238"/>
<path d="M449.519 248.976C453.79 278.947 469.279 328.747 475.221 369.516C489.129 320.117 509.673 248.976 509.673 248.976H449.519Z" fill="#263238"/>
<path d="M598.087 604.148C594.511 605.165 506.703 605.486 502.889 603.211C501.411 602.355 500.909 588.961 500.805 572.745V572.236C500.805 568.891 492.277 512.749 492.277 512.749L558.625 513.98L566.296 572.946V573.949C566.296 573.949 591.067 588.012 594.954 590.942C598.841 593.872 601.649 603.158 598.087 604.148Z" fill="#EB9481"/>
<path d="M499.564 562.241C500.318 567.593 500.791 571.433 500.791 572.236V572.745C500.909 588.961 501.426 602.354 502.889 603.211C506.688 605.512 594.525 605.164 598.087 604.161C601.649 603.157 598.767 593.858 594.895 590.941C591.023 588.024 566.237 574.002 566.237 574.002V572.999L564.832 562.295L499.564 562.241Z" fill="white"/>
<path d="M602.418 605.927C598.693 607.037 504.249 606.128 500.229 603.773C498.677 602.89 500.909 571.38 500.909 571.192H566.207V572.249C566.207 572.249 595.664 589.095 599.787 592.119C603.911 595.143 606.143 604.843 602.418 605.927Z" fill="#263238"/>
<path d="M602.137 602.18C584.194 601.632 522.902 600.949 505.121 601.632C504.988 601.632 504.988 601.726 505.121 601.739C522.857 602.635 584.194 602.796 602.137 602.448C602.507 602.435 602.521 602.194 602.137 602.18Z" fill="#37474F"/>
<path d="M560.916 573.186C551.974 570.952 540.83 570.965 533.573 575.407C533.292 575.581 533.573 575.916 533.927 575.876C542.804 574.495 551.808 573.899 560.812 574.096C560.945 574.109 561.079 574.073 561.183 573.996C561.287 573.92 561.353 573.809 561.366 573.688C561.38 573.567 561.34 573.447 561.256 573.353C561.171 573.259 561.049 573.199 560.916 573.186Z" fill="#37474F"/>
<path d="M567.227 576.96C558.27 574.725 547.141 574.739 539.884 579.194C539.603 579.355 539.884 579.689 540.238 579.649C549.117 578.282 558.119 577.686 567.123 577.87C567.256 577.882 567.39 577.846 567.494 577.769C567.598 577.693 567.664 577.582 567.677 577.462C567.691 577.341 567.651 577.22 567.567 577.126C567.482 577.032 567.36 576.972 567.227 576.96Z" fill="#37474F"/>
<path d="M573.464 580.692C564.522 578.458 553.393 578.471 546.136 582.927C545.855 583.101 546.136 583.435 546.49 583.382C555.399 582.022 564.432 581.44 573.464 581.642C573.603 581.642 573.736 581.592 573.835 581.503C573.933 581.414 573.988 581.293 573.988 581.167C573.988 581.041 573.933 580.92 573.835 580.831C573.736 580.742 573.603 580.692 573.464 580.692Z" fill="#37474F"/>
<path d="M449.519 248.976C449.519 248.976 458.86 300.555 459.495 302.215C459.495 302.215 462.968 303.7 469.235 306.322L494.79 569.748L567.877 570.015L529.271 248.976H449.519Z" fill="#37474F"/>
<path d="M497.302 557.946C508.461 557.786 505.254 557.679 516.428 557.625C521.896 557.625 557.812 557.465 562.896 558.241C562.927 558.241 562.957 558.252 562.979 558.272C563.002 558.292 563.014 558.319 563.014 558.348C563.014 558.376 563.002 558.403 562.979 558.423C562.957 558.443 562.927 558.455 562.896 558.455C557.782 559.191 521.881 558.776 516.413 558.709C505.254 558.562 508.461 558.495 497.302 558.241C497.259 558.241 497.218 558.225 497.187 558.197C497.157 558.17 497.14 558.132 497.14 558.093C497.14 558.054 497.157 558.017 497.187 557.989C497.218 557.962 497.259 557.946 497.302 557.946Z" fill="#263238"/>
<path d="M456.465 300.609C463.745 303.36 470.748 306.677 477.394 310.524C477.422 310.537 477.447 310.555 477.467 310.577C477.488 310.599 477.503 310.624 477.513 310.652C477.523 310.679 477.526 310.708 477.523 310.736C477.521 310.765 477.512 310.793 477.497 310.818C477.483 310.844 477.463 310.866 477.439 310.885C477.414 310.903 477.386 310.917 477.356 310.926C477.326 310.935 477.294 310.938 477.263 310.935C477.231 310.933 477.2 310.925 477.172 310.912C470.122 307.808 462.924 304.824 456.081 301.372C455.994 301.314 455.931 301.23 455.903 301.135C455.876 301.039 455.886 300.939 455.931 300.849C455.976 300.76 456.054 300.687 456.151 300.643C456.248 300.6 456.359 300.587 456.465 300.609Z" fill="#263238"/>
<path d="M459.14 271.065C460.293 277.233 460.929 283.509 461.697 289.73C461.89 291.216 462.082 292.714 462.259 294.199C462.305 295.572 462.71 296.916 463.441 298.12C464.919 300.207 467.58 301.184 469.989 302.134C470.27 302.241 470.152 302.642 469.856 302.548C467.264 301.99 464.87 300.849 462.895 299.23C460.707 297.13 460.781 293.945 460.441 291.202C459.468 284.52 458.93 277.791 458.83 271.052C458.83 270.945 459.111 270.905 459.14 271.065Z" fill="#263238"/>
<path d="M467.432 272.952C467.683 277.394 468.23 281.837 468.629 286.332C468.836 288.513 469.013 290.708 469.161 292.902C469.309 295.096 469.59 297.411 469.516 299.592C469.516 299.739 469.25 299.779 469.22 299.592C468.806 297.491 468.762 295.283 468.57 293.156C468.378 291.029 468.186 288.66 468.053 286.466C467.772 281.97 467.639 277.448 467.195 272.966C467.181 272.818 467.432 272.818 467.432 272.952Z" fill="#263238"/>
<path d="M470.728 312.932L474.645 343.197L478.724 373.449L487.134 433.914L502.062 551.965L488.686 433.74L479.921 373.302L475.399 343.104L470.728 312.932Z" fill="#263238"/>
<path d="M454.721 167.719C419.56 193.85 379.698 241.871 387.99 260.041C393.576 272.257 432.669 237.148 432.788 235.114C432.876 233.575 453.879 197.208 466.575 175.065C479.271 152.921 462.067 162.26 454.721 167.719Z" fill="#EB9481"/>
<path d="M454.721 167.719C419.56 193.85 379.698 241.871 387.99 260.041C393.576 272.257 432.669 237.148 432.788 235.114C432.876 233.575 453.879 197.208 466.575 175.065C479.271 152.921 462.067 162.26 454.721 167.719Z" fill="#A84FCE"/>
<path opacity="0.1" d="M466.575 174.998C453.879 197.128 432.877 233.508 432.773 235.047C432.773 236.144 421.422 246.755 410.101 254.475L470.226 161.457C471.911 162.675 471.482 166.515 466.575 174.998Z" fill="#000102"/>
<path d="M440.607 272.19H532.08C532.346 271.895 535.553 265.419 535.036 262.543C533.381 252.307 506.348 176.028 493.785 163.116C486.661 155.784 470.314 158.312 466.368 163.116C449.489 183.855 436.808 248.213 436.542 263.051C436.527 266.262 440.444 271.949 440.607 272.19Z" fill="#A84FCE"/>
<path d="M476.803 183.628L471.674 175.733L466.102 181.928L467.935 187.708L473.847 188.083L476.803 183.628Z" fill="#263238"/>
<path d="M473.847 188.083L476.876 247.209L465.437 264.79L457.781 246.54L467.935 187.708L473.847 188.083Z" fill="#263238"/>
<path d="M471.674 175.733C471.039 179.747 470.492 183.761 469.96 187.869C469.428 191.977 468.895 195.897 468.482 200.005C467.536 208.1 466.649 216.208 466.072 224.33C465.496 232.451 465.038 240.573 465.097 248.708C465.097 252.722 465.289 256.843 465.733 260.884C466.055 264.968 466.878 269.006 468.186 272.926C465.141 265.205 464.535 256.87 464.24 248.842C463.944 240.814 464.388 232.518 464.964 224.37C465.54 216.221 466.516 208.126 467.639 200.031C468.216 196.017 468.822 192.003 469.487 187.989C470.152 183.975 470.861 179.747 471.674 175.733Z" fill="#263238"/>
<path opacity="0.1" d="M493.105 217.867H492.928L482.212 214.482L480.646 200.166L498.81 199.43L500.362 213.439L493.105 217.867ZM482.892 213.934L492.987 217.131L499.593 213.117L498.115 200.125L481.429 200.808L482.892 213.934Z" fill="#000102"/>
<path opacity="0.1" d="M454.189 217.907L449.134 213.358L450.198 199.362L462.865 200.125L461.801 214.388L454.189 217.907ZM449.888 213.09L454.322 217.104L461.076 213.987L462.067 200.767L450.878 200.098L449.888 213.09Z" fill="#000102"/>
<path d="M462.924 198.894L450.923 197.877L451.455 195.643L462.924 196.726V198.894Z" fill="white"/>
<path d="M485.759 191.816C485.814 193.426 486.022 195.028 486.38 196.606C486.809 197.596 489.927 198.011 489.927 198.011C489.927 198.011 492.647 197.262 492.883 196.499C492.904 194.801 492.766 193.105 492.469 191.428C491.765 191.486 491.055 191.396 490.396 191.164C489.737 190.932 489.146 190.564 488.671 190.09C488.424 190.603 488.017 191.039 487.499 191.346C486.982 191.652 486.377 191.816 485.759 191.816Z" fill="white"/>
<path d="M533.011 272.189H438.508V278.772H533.011V272.189Z" fill="#263238"/>
<path d="M477.482 280.713H456.702V270.276H477.468L477.482 280.713ZM459.672 278.037H474.526V272.952H459.658L459.672 278.037Z" fill="#EBEBEB"/>
<path d="M506.525 167.92C543.475 192.004 586.529 237.656 579.509 256.228C574.779 268.725 533.336 235.917 533.07 233.896C532.878 232.358 509.422 197.249 495.189 175.881C480.956 154.513 498.795 162.875 506.525 167.92Z" fill="#EB9481"/>
<path d="M506.525 167.92C543.475 192.004 586.529 237.656 579.509 256.228C574.779 268.725 533.336 235.917 533.07 233.896C532.878 232.358 509.422 197.249 495.189 175.881C480.956 154.513 498.795 162.875 506.525 167.92Z" fill="#A84FCE"/>
<path d="M501.13 184.791C504.086 188.738 506.835 192.819 509.599 196.833C512.363 200.847 515.053 204.941 517.728 209.022C520.404 213.103 523.02 217.211 525.577 221.359L529.39 227.594C530.616 229.694 531.888 231.782 533.07 233.909C531.592 231.942 530.217 229.895 528.784 227.942L524.69 221.867C521.911 217.853 519.221 213.759 516.546 209.678C513.871 205.597 511.255 201.476 508.713 197.328C506.17 193.18 503.54 189.019 501.13 184.791Z" fill="#263238"/>
<path d="M501.736 189.221C502.815 190.117 503.791 191.067 504.692 192.004L506.17 193.435C506.658 193.917 507.146 194.385 507.648 194.894C506.358 194.268 505.198 193.444 504.219 192.459C503.218 191.498 502.381 190.406 501.736 189.221Z" fill="#263238"/>
<path d="M559.099 173.065L399.721 270.411L405.705 278.44L565.083 181.094L559.099 173.065Z" fill="#263238"/>
<path d="M457.454 288.795L437.16 261.259L428.271 266.628L448.565 294.164L457.454 288.795Z" fill="#263238"/>
<path d="M391.019 264.242C400.523 267.426 406.538 264.991 443.326 250.34C448.41 248.306 446.282 214 440.37 213.853C430.984 213.612 403.198 226.925 401.351 227.929C385.758 236.425 384.56 262.088 391.019 264.242Z" fill="#EB9481"/>
<path d="M486.084 235.181C485.198 239.409 480.409 238.512 480.409 238.512C481.476 240.118 481.889 242.011 481.577 243.864C480.852 247.102 474.94 247.49 474.94 247.49C475.658 249.37 475.74 251.401 475.177 253.324C474.142 256.361 468.23 257.525 468.23 257.525C467.844 259.582 466.653 261.443 464.875 262.77C459.983 266.142 451.189 263.172 445.661 261.245C437.37 258.395 426.107 249.323 423.225 247.651L433.054 215.137C436.342 214.09 439.835 213.671 443.311 213.906C452.474 214.896 461.465 216.914 470.078 219.914C476.655 222.684 486.942 231.033 486.084 235.181Z" fill="#EB9481"/>
<path d="M480.35 237.91C475.487 233.963 469.59 231.541 463.87 228.812C463.737 228.812 463.633 228.945 463.766 228.999C469.486 231.675 474.571 235.287 480.172 238.137C480.206 238.159 480.247 238.167 480.287 238.161C480.327 238.155 480.363 238.134 480.387 238.104C480.41 238.074 480.419 238.036 480.412 238C480.406 237.964 480.383 237.931 480.35 237.91Z" fill="#263238"/>
<path d="M474.985 247.048C473.789 246.242 472.476 245.589 471.083 245.108C469.605 244.506 468.215 243.931 466.752 243.369C463.855 242.245 460.899 241.197 457.884 240.225C457.751 240.225 457.648 240.345 457.781 240.399C460.737 241.522 463.56 242.673 466.397 243.904C467.875 244.506 469.235 245.135 470.654 245.764C471.946 246.438 473.313 246.985 474.733 247.396C474.999 247.436 475.162 247.169 474.985 247.048Z" fill="#263238"/>
<path d="M468.112 257.498C467.014 256.788 465.789 256.253 464.491 255.92L460.485 254.448C457.825 253.458 455.165 252.454 452.549 251.384C452.416 251.384 452.312 251.504 452.445 251.558C455.106 252.668 457.736 253.806 460.412 254.889L464.358 256.468C465.505 257.047 466.756 257.436 468.053 257.619C468.07 257.623 468.088 257.621 468.103 257.614C468.119 257.607 468.131 257.596 468.138 257.581C468.145 257.567 468.147 257.551 468.142 257.535C468.137 257.52 468.126 257.507 468.112 257.498Z" fill="#263238"/>
<path d="M427.038 215.726L418.17 262.556C418.17 262.556 393.221 269.139 389.231 263.626C385.24 258.113 386.615 241.188 396.296 231.206C404.114 223.085 427.038 215.726 427.038 215.726Z" fill="#A84FCE"/>
<path d="M418.702 217.398L434.754 212.207L426.373 261.552L410.987 264.79L418.702 217.398Z" fill="#A84FCE"/>
<path d="M418.274 220.329C418.008 223.928 417.564 227.514 417.106 231.1C416.648 234.686 416.101 238.245 415.539 241.804C414.978 245.363 414.342 248.922 413.633 252.508L412.554 257.86C412.14 259.626 411.785 261.406 411.327 263.212C411.445 261.406 411.667 259.613 411.844 257.86L412.51 252.508C412.953 248.922 413.515 245.363 414.076 241.804C414.638 238.245 415.273 234.686 415.983 231.1C416.692 227.514 417.343 223.848 418.274 220.329Z" fill="#263238"/>
<path d="M434.325 214.736C434.325 213.88 434.458 213.037 434.547 212.181L434.827 212.395C432.211 213.438 429.566 214.348 426.92 215.325C424.274 216.302 421.614 217.158 418.939 218.001L419.427 217.466L419.19 218.911V219.259L418.821 219.419L409.953 223.192C406.997 224.53 404.041 225.801 401.232 227.206C402.502 226.243 403.835 225.349 405.223 224.53C406.598 223.728 408.016 222.978 409.45 222.216C412.288 220.717 415.229 219.392 418.215 218.121L417.801 218.63L418.022 217.185V216.783L418.436 216.65C421.116 215.758 423.806 214.928 426.506 214.161C429.226 213.412 431.916 212.595 434.665 211.913L435.019 211.819V212.114C434.768 213.077 434.532 213.907 434.325 214.736Z" fill="#263238"/>
<path d="M403.952 223.781C404.829 223.184 405.837 222.764 406.908 222.55C407.962 222.309 409.058 222.268 410.13 222.429C409.613 222.603 409.11 222.724 408.652 222.858L407.174 223.205L405.696 223.513C404.972 223.607 404.499 223.714 403.952 223.781Z" fill="#263238"/>
<path d="M577.765 258.877C569.473 263.64 553.466 264.229 521.128 242.58C516.694 239.583 527.04 206.534 532.952 207.578C542.145 209.21 566.044 227.648 567.596 229.053C580.602 240.412 583.558 255.559 577.765 258.877Z" fill="#EB9481"/>
<path d="M499.017 188.123C495.573 191.08 499.017 194.238 499.017 194.238C496.948 194.305 494.969 195.019 493.416 196.258C490.799 198.573 493.667 203.282 493.667 203.282C491.529 203.756 489.598 204.8 488.124 206.28C485.878 208.715 488.006 213.839 488.006 213.839C486.324 215.241 485.245 217.137 484.961 219.191C484.503 224.744 492.041 229.815 496.859 233.013C504.028 237.749 518.571 241.375 521.675 242.646L546.446 217.452C545.634 214.381 544.124 211.496 542.012 208.982C536.115 202.562 529.358 196.831 521.897 191.923C515.733 188.471 502.387 185.206 499.017 188.123Z" fill="#EB9481"/>
<path d="M499.564 194.01C505.86 195.562 511.388 198.72 516.96 201.583C516.976 201.6 516.986 201.622 516.988 201.645C516.991 201.667 516.985 201.69 516.971 201.71C516.958 201.729 516.938 201.744 516.915 201.753C516.892 201.761 516.866 201.763 516.842 201.757C511.27 198.854 505.136 196.981 499.446 194.264C499.313 194.131 499.416 193.903 499.564 194.01Z" fill="#263238"/>
<path d="M494.051 202.988C495.442 203.471 496.758 204.114 497.967 204.902C499.312 205.664 500.628 206.44 501.928 207.243C504.545 208.849 507.131 210.508 509.644 212.234C509.762 212.234 509.644 212.475 509.54 212.408C506.924 210.816 504.293 209.25 501.603 207.765C500.258 207.016 498.913 206.28 497.554 205.557C496.228 204.94 494.979 204.195 493.829 203.336C493.798 203.303 493.779 203.261 493.775 203.218C493.771 203.174 493.782 203.13 493.806 203.092C493.83 203.055 493.867 203.024 493.91 203.006C493.954 202.987 494.003 202.981 494.051 202.988Z" fill="#263238"/>
<path d="M488.109 213.906C489.364 214.352 490.524 214.99 491.538 215.793L495.13 218.094C497.495 219.579 499.874 221.065 502.298 222.469C502.416 222.536 502.298 222.71 502.18 222.643C499.712 221.225 497.214 219.847 494.79 218.402L491.183 216.275C490.025 215.712 488.984 214.969 488.109 214.08C488.097 214.08 488.084 214.078 488.072 214.074C488.061 214.069 488.05 214.063 488.041 214.055C488.032 214.047 488.025 214.037 488.02 214.027C488.016 214.016 488.013 214.005 488.013 213.993C488.013 213.982 488.016 213.97 488.02 213.96C488.025 213.949 488.032 213.94 488.041 213.932C488.05 213.924 488.061 213.917 488.072 213.913C488.084 213.909 488.097 213.906 488.109 213.906Z" fill="#263238"/>
<path d="M527.158 247.397L556.881 220.771C556.881 220.771 569.665 228.799 574.425 235.957C579.184 243.115 583.588 252.267 579.583 257.579C575.577 262.891 557.708 266.717 527.158 247.397Z" fill="#A84FCE"/>
<path d="M527.616 250.059L515.305 242.567L550.259 212.488L561.285 221.359L527.616 250.059Z" fill="#A84FCE"/>
<path d="M528.385 249.404C530.794 246.969 533.321 244.64 535.863 242.326C538.406 240.011 540.948 237.763 543.608 235.489C546.269 233.214 548.87 231.046 551.575 228.892L555.654 225.681C557.043 224.637 558.403 223.58 559.837 222.563C558.639 223.794 557.368 224.958 556.142 226.163L552.358 229.642C549.831 231.97 547.229 234.217 544.613 236.452C541.997 238.686 539.352 240.894 536.632 243.048C533.912 245.202 531.208 247.37 528.385 249.404Z" fill="#263238"/>
<path d="M547.761 214.589C548.53 213.826 549.328 213.09 550.111 212.354L550.23 212.247L550.377 212.354C552.313 213.692 554.176 215.191 556.082 216.609L561.654 220.984L562.098 221.332L561.654 221.72L560.176 222.951V222.202C562.483 223.872 564.684 225.659 566.768 227.554C568.85 229.446 570.795 231.457 572.592 233.575C570.493 231.715 568.379 229.869 566.207 228.089C564.034 226.309 561.773 224.557 559.511 222.964L559.009 222.63L559.482 222.229C559.955 221.8 560.428 221.386 560.96 220.984V221.707L555.491 217.224C553.718 215.686 551.9 214.187 550.141 212.608H550.422C549.52 213.277 548.648 213.946 547.761 214.589Z" fill="#263238"/>
<path d="M566.443 227.809C567.275 227.867 568.083 228.091 568.808 228.464C569.546 228.827 570.168 229.357 570.611 230.003C569.864 229.732 569.138 229.415 568.439 229.053C567.727 228.703 567.058 228.286 566.443 227.809Z" fill="#263238"/>
<path d="M516.945 241.148C516.472 241.684 515.955 242.192 515.467 242.714V242.406C519.781 244.599 523.92 247.062 527.853 249.779H527.424C528.045 249.364 528.666 248.949 529.316 248.561L529.449 248.481L529.538 248.548C529.981 248.895 530.439 249.243 530.868 249.618L529.39 248.829H529.627C529.08 249.337 528.518 249.819 527.971 250.3L527.779 250.461L527.528 250.314C523.262 248.042 519.178 245.503 515.305 242.714L515.083 242.553L515.275 242.406C515.822 241.991 516.339 241.563 516.945 241.148Z" fill="#263238"/>
<path d="M469.191 173.793C474.615 175.493 485.02 168.682 489.484 162.795C489.794 162.394 489.573 157.831 489.602 152.265C489.602 148.88 489.75 145.12 490.134 141.695C490.223 140.999 465.836 144.732 465.836 144.732C466.709 149.145 466.982 153.639 466.649 158.112C466.58 158.565 466.472 159.013 466.324 159.45C466.324 159.45 466.324 159.597 466.324 159.678C465.481 162.327 463.944 172.148 469.191 173.793Z" fill="#EB9481"/>
<path d="M488.671 141.654C486.912 147.341 481.37 160.962 468.688 160.052C467.872 159.997 467.062 159.885 466.265 159.717C466.26 159.637 466.26 159.557 466.265 159.476C466.418 159.041 466.527 158.593 466.59 158.138C466.922 153.665 466.649 149.172 465.777 144.758C465.777 144.758 483.424 142.029 488.671 141.654Z" fill="#263238"/>
<path d="M492.824 114.198C495.78 121.758 492.144 143.995 486.321 149.12C477.896 156.546 463.678 157.697 456.583 148.438C449.726 139.46 454.958 110.559 461.49 105.862C471.097 99.0119 488.567 103.026 492.824 114.198Z" fill="#EB9481"/>
<path d="M473.374 127.899C473.374 127.899 473.492 127.993 473.477 128.06C473.196 129.545 473.137 131.298 474.556 131.994C474.556 131.994 474.556 132.087 474.556 132.074C472.738 131.606 472.842 129.278 473.374 127.899Z" fill="#263238"/>
<path d="M475.088 126.535C477.778 126.682 477.246 131.552 474.748 131.405C472.25 131.258 472.842 126.401 475.088 126.535Z" fill="#263238"/>
<path d="M463.811 127.03C463.811 127.03 463.678 127.03 463.678 127.151C463.56 128.649 463.146 130.362 461.579 130.737V130.817C463.441 130.75 463.973 128.449 463.811 127.03Z" fill="#263238"/>
<path d="M462.51 125.318C459.85 124.89 459.096 129.72 461.55 130.121C464.003 130.523 464.727 125.679 462.51 125.318Z" fill="#263238"/>
<path d="M478.487 123.565C477.748 123.752 477.009 123.806 476.3 123.926C475.552 124.154 474.742 124.154 473.994 123.926C473.779 123.811 473.611 123.634 473.517 123.424C473.424 123.213 473.41 122.981 473.477 122.762C473.685 122.346 474.01 121.988 474.42 121.722C474.83 121.457 475.31 121.294 475.812 121.25C476.811 121.037 477.862 121.161 478.768 121.598C478.961 121.71 479.115 121.87 479.212 122.058C479.309 122.247 479.345 122.456 479.315 122.662C479.286 122.868 479.193 123.062 479.046 123.222C478.899 123.382 478.706 123.501 478.487 123.565Z" fill="#263238"/>
<path d="M460.131 122.628C460.828 122.856 461.538 123.048 462.259 123.203C462.98 123.489 463.782 123.56 464.55 123.404C464.78 123.307 464.968 123.145 465.085 122.942C465.203 122.739 465.243 122.506 465.2 122.28C465.045 121.847 464.764 121.46 464.387 121.158C464.01 120.857 463.551 120.653 463.057 120.567C462.106 120.237 461.053 120.237 460.101 120.567C459.869 120.647 459.67 120.79 459.53 120.976C459.39 121.162 459.317 121.382 459.32 121.607C459.324 121.832 459.403 122.05 459.548 122.233C459.693 122.415 459.896 122.553 460.131 122.628Z" fill="#263238"/>
<path d="M472.679 142.016C472.236 142.323 471.792 142.778 471.201 142.765C470.584 142.703 469.989 142.52 469.457 142.23C469.457 142.23 469.339 142.23 469.369 142.23C469.577 142.546 469.874 142.806 470.23 142.985C470.585 143.163 470.987 143.254 471.393 143.246C471.746 143.2 472.074 143.059 472.338 142.842C472.601 142.625 472.787 142.342 472.871 142.029C472.871 142.016 472.738 141.962 472.679 142.016Z" fill="#263238"/>
<path d="M471.231 140.103C467.979 139.367 464.107 139.059 464.092 138.885L464.787 135.433C464.284 135.594 461.831 136.356 461.831 135.754C462.584 130.534 463.921 125.396 465.821 120.421C465.832 120.391 465.852 120.365 465.88 120.346C465.908 120.327 465.942 120.317 465.976 120.317C466.011 120.317 466.045 120.327 466.073 120.346C466.101 120.365 466.121 120.391 466.132 120.421C465.481 125.237 463.9 129.92 463.176 134.764C464.059 134.475 464.986 134.308 465.925 134.269C465.789 135.618 465.562 136.959 465.245 138.283C467.324 138.516 469.361 138.993 471.305 139.701C471.482 139.862 471.393 140.143 471.231 140.103Z" fill="#263238"/>
<path d="M492.263 135.446C488.627 134.63 486.764 129.853 486.764 123.498C486.764 118.748 485.286 111.71 479.936 110.773C474.024 109.73 471.408 113.449 467.713 113.235C464.328 113.048 464.092 109.716 461.535 109.716C458.978 109.716 457.308 112.392 455.845 116.727C457.323 111.536 459.126 106.652 461.269 105.114C470.891 98.1961 489.203 101.849 493.46 113.008C495.13 117.303 494.021 127.512 492.263 135.446Z" fill="#263238"/>
<path d="M488.331 132.369C488.331 132.369 493.725 125.144 497.347 126.87C500.968 128.596 496.992 139.019 492.809 140.504C492.288 140.728 491.722 140.853 491.146 140.873C490.57 140.893 489.995 140.808 489.457 140.621C488.918 140.435 488.427 140.152 488.012 139.789C487.598 139.427 487.269 138.992 487.045 138.511L488.331 132.369Z" fill="#EB9481"/>
<path d="M496.12 129.786V129.88C493.164 131.004 491.686 133.506 490.637 136.088C490.803 135.817 491.032 135.582 491.309 135.398C491.586 135.215 491.903 135.089 492.239 135.028C492.575 134.967 492.922 134.972 493.255 135.045C493.588 135.117 493.9 135.254 494.169 135.446C494.243 135.446 494.169 135.606 494.081 135.593C493.558 135.452 493 135.461 492.484 135.619C491.968 135.777 491.519 136.077 491.198 136.476C490.668 137.145 490.217 137.862 489.853 138.617C489.72 138.858 489.248 138.737 489.336 138.456C489.218 135.044 492.174 130.241 496.12 129.786Z" fill="#263238"/>
<path d="M465.969 160.159L472.191 173.284L489.927 156.278L495.174 161.537C495.174 161.537 478.089 188.297 477.941 187.159L471.689 175.907L463.205 183.935L463.456 164.079L465.969 160.159Z" fill="#A84FCE"/>
<path d="M462.687 174.154C462.85 170.876 462.924 167.571 463.249 164.307C463.249 164.2 463.456 164.133 463.5 164.307C464.284 167.451 463.589 179.975 463.678 182.972C464.032 182.624 471.556 175.867 471.629 175.974C472.974 177.754 477.541 185.942 477.881 186.678C480.586 182.423 490.962 166.929 494.139 162.888C494.16 162.871 494.185 162.861 494.213 162.857C494.24 162.854 494.268 162.859 494.292 162.871C494.317 162.882 494.336 162.901 494.349 162.923C494.361 162.945 494.365 162.971 494.361 162.995C491.981 167.491 478.266 188.351 478.103 188.284C475.692 184.43 473.507 180.464 471.555 176.402C470.284 177.861 462.687 185.46 462.687 184.979C462.479 181.373 462.479 177.76 462.687 174.154Z" fill="#263238"/>
<path d="M502.195 118.815C501.618 119.631 497.879 119.029 497.347 119.176L494.613 121.129C494.613 121.129 479.685 109.542 476.005 108.445C472.324 107.348 455.756 108.071 455.756 108.071L453.923 100.886C453.923 100.886 446.873 96.3363 446.533 93.0448C446.312 91.078 464.269 86.0872 478.34 90.7435C496.12 96.6574 505.328 114.373 502.195 118.815Z" fill="#37474F"/>
<path d="M497.362 119.176L494.613 121.116C494.613 121.116 479.685 109.543 476.005 108.446C472.324 107.348 455.756 108.071 455.756 108.071C455.756 108.071 453.997 101.475 453.923 100.886C453.923 100.886 473.226 98.9189 479.301 102.92C485.375 106.92 493.888 112.968 497.362 119.176Z" fill="#263238"/>
<path d="M459.747 99.8422C459.969 101.403 460.3 102.949 460.737 104.472C461.165 105.462 463.915 106.051 463.915 106.051C463.915 106.051 466.634 105.301 466.871 104.525C466.895 102.828 466.761 101.131 466.471 99.4542C465.765 99.5127 465.053 99.4224 464.391 99.1903C463.73 98.9581 463.137 98.5905 462.658 98.1162C462.414 98.6312 462.008 99.0696 461.49 99.3766C460.972 99.6836 460.366 99.8456 459.747 99.8422Z" fill="#A84FCE"/>
<path d="M494.613 121.13C494.613 121.13 486.262 117.437 480.35 116.875C475.34 116.393 461.328 115.644 457.426 115.818C451.736 116.059 442.794 109.837 444.967 108.031C448.573 105.007 471.393 106.987 476.138 108.312C483.395 110.332 494.613 121.13 494.613 121.13Z" fill="#37474F"/>
<path d="M491.509 118.333C491.544 118.592 491.662 118.837 491.849 119.036C492.036 119.235 492.283 119.38 492.56 119.454C492.836 119.527 493.131 119.526 493.407 119.45C493.683 119.374 493.928 119.226 494.113 119.025C494.297 118.824 494.412 118.578 494.444 118.319C494.477 118.059 494.424 117.797 494.293 117.564C494.162 117.331 493.959 117.138 493.709 117.008C493.458 116.879 493.171 116.818 492.883 116.835C492.682 116.846 492.486 116.895 492.306 116.977C492.126 117.06 491.967 117.175 491.838 117.315C491.71 117.456 491.614 117.618 491.557 117.793C491.501 117.968 491.484 118.152 491.509 118.333Z" fill="#EBEBEB"/>
</svg>
