<svg width="960" height="552" viewBox="0 0 960 552" fill="none" xmlns="http://www.w3.org/2000/svg">
<g clip-path="url(#clip0_2053_11175)">
<path d="M541.979 375.084C544.375 373.71 547.449 373.659 549.888 374.952C552.327 376.245 554.056 378.843 554.338 381.637C549.289 381.642 544.314 380.436 541.979 375.084Z" fill="#EAEAEA"/>
<path d="M547.862 369.796C551.241 370.929 555.157 370.207 557.937 367.942C560.718 365.677 562.277 361.936 561.951 358.316C555.539 359.601 549.517 362.403 547.862 369.796Z" fill="#EAEAEA"/>
<path d="M525.88 378.53C525.878 378.522 525.987 378.478 526.196 378.402C526.432 378.32 526.738 378.215 527.117 378.084C527.92 377.818 529.081 377.43 530.505 376.923C533.357 375.919 537.273 374.453 541.491 372.574C543.598 371.628 545.579 370.667 547.357 369.747C549.128 368.812 550.696 367.919 551.981 367.115C553.254 366.294 554.271 365.601 554.919 365.052C555.581 364.522 555.904 364.176 555.926 364.198C555.933 364.204 555.854 364.292 555.697 364.454C555.538 364.613 555.316 364.864 554.983 365.132C554.35 365.71 553.346 366.43 552.079 367.275C550.802 368.102 549.237 369.015 547.467 369.965C545.69 370.9 543.707 371.87 541.596 372.818C537.368 374.701 533.434 376.141 530.564 377.102C529.13 377.587 527.96 377.947 527.147 378.183C526.762 378.294 526.451 378.384 526.211 378.453C525.997 378.512 525.883 378.539 525.88 378.53Z" fill="#E0E0E0"/>
<path d="M548.466 378.091C548.44 378.128 547.854 377.713 546.847 377.156C545.842 376.597 544.394 375.931 542.712 375.457C541.027 374.989 539.449 374.808 538.306 374.765C537.162 374.72 536.451 374.773 536.447 374.727C536.446 374.709 536.622 374.68 536.943 374.644C537.264 374.603 537.732 374.579 538.31 374.577C539.465 374.572 541.071 374.724 542.78 375.2C544.487 375.681 545.946 376.386 546.937 376.992C547.434 377.294 547.824 377.559 548.08 377.76C548.339 377.959 548.476 378.076 548.466 378.091Z" fill="#E0E0E0"/>
<path d="M260.342 226.137C258.456 231.273 259.269 237.356 262.434 241.786C265.598 246.217 271.018 248.862 276.379 248.59C274.893 238.623 271.143 229.16 260.342 226.137Z" fill="#EAEAEA"/>
<path d="M258.815 221.247C258.832 221.243 258.915 221.515 259.049 222.01C259.178 222.505 259.384 223.217 259.66 224.089C260.209 225.832 261.106 228.2 262.395 230.664C263.69 233.127 265.122 235.201 266.239 236.634C266.797 237.351 267.263 237.921 267.595 238.305C267.924 238.692 268.1 238.913 268.087 238.926C268.074 238.939 267.873 238.742 267.52 238.374C267.164 238.011 266.675 237.458 266.096 236.752C264.937 235.344 263.471 233.27 262.166 230.79C260.868 228.308 259.991 225.912 259.484 224.145C259.229 223.262 259.05 222.539 258.95 222.035C258.846 221.531 258.797 221.251 258.815 221.247Z" fill="#E0E0E0"/>
<path d="M280.403 327.87C277.704 330.091 276.201 333.744 276.535 337.269C276.87 340.794 279.032 344.083 282.098 345.732C284.476 339.695 285.433 333.178 280.403 327.87Z" fill="#EAEAEA"/>
<path d="M281.126 324.64C281.167 324.653 280.959 325.356 280.714 326.51C280.467 327.664 280.21 329.278 280.135 331.077C280.063 332.877 280.187 334.508 280.339 335.678C280.489 336.85 280.638 337.567 280.596 337.577C280.579 337.581 280.524 337.406 280.441 337.084C280.354 336.763 280.255 336.293 280.156 335.706C279.957 334.533 279.802 332.886 279.875 331.066C279.951 329.247 280.24 327.618 280.535 326.467C280.681 325.891 280.818 325.43 280.931 325.118C281.04 324.804 281.109 324.634 281.126 324.64Z" fill="#E0E0E0"/>
<path d="M406.172 198.63C409.274 200.208 413.148 200.077 416.141 198.293C419.134 196.509 421.154 193.126 421.338 189.59C414.979 189.905 408.787 191.74 406.172 198.63Z" fill="#EAEAEA"/>
<path d="M402.999 199.309C402.994 199.265 403.705 199.164 404.834 198.909C405.962 198.656 407.504 198.22 409.134 197.538C410.764 196.852 412.161 196.056 413.138 195.426C414.116 194.797 414.692 194.359 414.719 194.394C414.73 194.408 414.597 194.532 414.346 194.744C414.097 194.958 413.719 195.247 413.239 195.584C412.281 196.259 410.881 197.092 409.233 197.785C407.585 198.474 406.017 198.886 404.87 199.094C404.297 199.198 403.83 199.264 403.506 199.29C403.181 199.319 403.001 199.327 402.999 199.309Z" fill="#E0E0E0"/>
<path d="M388.257 197.701C392.723 196.721 396.611 193.329 398.261 188.975C399.911 184.621 399.272 179.437 396.618 175.637C390.316 181.306 385.41 188.402 388.257 197.701Z" fill="#EAEAEA"/>
<path d="M385.532 201.067C385.519 201.054 385.67 200.867 385.953 200.54C386.239 200.216 386.642 199.736 387.124 199.133C388.091 197.927 389.334 196.182 390.468 194.107C391.597 192.028 392.394 190.028 392.887 188.553C393.135 187.816 393.322 187.214 393.441 186.795C393.564 186.377 393.64 186.147 393.658 186.151C393.675 186.156 393.632 186.394 393.539 186.821C393.45 187.25 393.289 187.864 393.062 188.612C392.611 190.11 391.835 192.14 390.695 194.236C389.552 196.33 388.273 198.073 387.265 199.254C386.762 199.845 386.336 200.308 386.027 200.611C385.72 200.917 385.545 201.08 385.532 201.067Z" fill="#E0E0E0"/>
<path d="M504.819 189.281C506.104 190.961 508.243 191.917 510.322 191.741C512.401 191.565 514.357 190.263 515.354 188.39C511.819 186.875 507.988 186.23 504.819 189.281Z" fill="#EAEAEA"/>
<path d="M502.923 188.809C502.947 188.726 504.592 189.309 506.709 189.421C508.826 189.551 510.524 189.16 510.538 189.245C510.545 189.276 510.131 189.415 509.437 189.537C508.745 189.66 507.769 189.747 506.694 189.686C505.62 189.623 504.66 189.425 503.985 189.224C503.309 189.024 502.913 188.839 502.923 188.809Z" fill="#E0E0E0"/>
<path d="M392.627 179.314C388.656 175.986 382.172 176.519 378.684 180.373C375.661 183.095 376.592 190.821 380.343 194.406C384.095 197.991 390.794 197.467 394.057 193.413C397.319 189.359 396.599 182.641 392.627 179.314Z" fill="#EAEAEA"/>
<path d="M519.429 186.347C523.569 188.077 528.035 184.033 532.484 184.505C534.757 184.746 536.731 186.139 538.852 187.009C540.973 187.878 545.157 188.112 546.003 185.219C547.932 181.71 544.775 177.494 541.704 175.108C538.634 172.723 533.131 171.94 529.28 171.728C526.518 171.577 523.669 171.838 521.171 173.052C518.673 174.266 516.568 176.549 516.042 179.325C515.516 182.1 516.869 185.277 519.429 186.347Z" fill="#EAEAEA"/>
<path d="M335.92 217.609C336.047 231.075 325.47 242.096 312.297 242.225C299.123 242.355 288.342 231.543 288.215 218.077C288.089 204.611 298.665 193.589 311.839 193.46C325.012 193.331 335.794 204.142 335.92 217.609Z" fill="#EAEAEA"/>
<path d="M352.327 332.104C343.272 320.84 333.467 314.686 324.363 313.836C314.593 313.172 304.018 317.303 299.176 326.004C294.333 334.704 297.507 347.781 306.685 351.272C310.455 352.706 314.796 352.529 318.232 354.668C323.584 357.999 324.677 365.468 328.747 370.338C333.745 376.318 343.135 377.341 349.818 373.441C356.5 369.54 360.356 361.549 360.443 353.683C360.529 345.818 357.212 338.182 352.327 332.104Z" fill="#EAEAEA"/>
<path d="M705.013 284.645C705.144 298.588 694.194 309.998 680.554 310.132C666.915 310.266 655.752 299.072 655.621 285.13C655.49 271.187 666.441 259.777 680.08 259.643C693.72 259.509 704.882 270.703 705.013 284.645Z" fill="#EAEAEA"/>
<path d="M736.015 317.469C728.219 272.993 690.856 234.152 646.8 230.484C622.796 228.485 598.654 236.224 574.745 233.273C554.682 230.796 535.634 220.528 522.301 205.004C502.573 182.032 495.865 149.367 474.963 127.507C446.15 97.3727 395.867 96.897 360.815 119.07C325.763 141.243 304.566 181.247 294.866 222.201L294.482 234.656C292.371 277.133 303.299 326.501 327.411 364.365C351.835 402.72 367.896 418.557 412.41 446.139C450.21 469.562 524.226 479.858 568.415 480.946C612.604 482.034 658.001 468.567 691.233 438.774C724.466 408.981 743.812 361.945 736.015 317.469Z" fill="#4BA28C"/>
<g style="mix-blend-mode:screen">
<path d="M736.015 317.469C728.219 272.993 690.856 234.152 646.8 230.484C622.796 228.485 598.654 236.224 574.745 233.273C554.682 230.796 535.634 220.528 522.301 205.004C502.573 182.032 495.865 149.367 474.963 127.507C446.15 97.3727 395.867 96.897 360.815 119.07C325.763 141.243 304.566 181.247 294.866 222.201L294.482 234.656C292.371 277.133 303.299 326.501 327.411 364.365C351.835 402.72 367.896 418.557 412.41 446.139C450.21 469.562 524.226 479.858 568.415 480.946C612.604 482.034 658.001 468.567 691.233 438.774C724.466 408.981 743.812 361.945 736.015 317.469Z" fill="#E4B7F3"/>
</g>
<path d="M609.441 359.306C609.487 364.176 605.661 368.162 600.897 368.209C596.132 368.256 592.233 364.346 592.187 359.475C592.141 354.605 595.966 350.619 600.731 350.572C605.495 350.525 609.395 354.435 609.441 359.306Z" fill="#4BA28C"/>
<path d="M572.345 313.9C572.758 357.898 563.373 391.53 544.193 414.802C525.01 438.077 498.748 449.876 465.411 450.203C431.917 450.531 405.29 439.252 385.523 416.36C365.757 393.471 355.667 360.029 355.253 316.031L354.527 238.652C354.116 194.812 363.497 161.176 382.678 137.748C401.857 114.32 428.192 102.442 461.686 102.113C495.025 101.786 521.581 113.144 541.348 136.19C561.116 159.236 571.207 192.681 571.618 236.52L572.345 313.9ZM516.297 228.391C516.037 200.689 511.297 180.223 502.08 167.001C492.862 153.78 479.537 147.255 462.112 147.426C444.683 147.597 431.522 154.382 422.632 167.781C413.74 181.18 409.425 201.735 409.685 229.437L410.567 323.461C410.828 351.325 415.605 371.903 424.902 385.2C434.195 398.5 447.557 405.062 464.986 404.89C482.411 404.719 495.533 397.934 504.351 384.535C513.167 371.137 517.445 350.43 517.181 322.415L516.297 228.391Z" fill="#A4F2D5"/>
<path d="M572.345 313.9C572.758 357.898 563.373 391.53 544.193 414.802C525.01 438.077 498.748 449.876 465.411 450.203C431.917 450.531 405.29 439.252 385.523 416.36C365.757 393.471 355.667 360.029 355.253 316.031L354.527 238.652C354.116 194.812 363.497 161.176 382.678 137.748C401.857 114.32 428.192 102.442 461.686 102.113C495.025 101.786 521.581 113.144 541.348 136.19C561.116 159.236 571.207 192.681 571.618 236.52L572.345 313.9ZM516.297 228.391C516.037 200.689 511.297 180.223 502.08 167.001C492.862 153.78 479.537 147.255 462.112 147.426C444.683 147.597 431.522 154.382 422.632 167.781C413.74 181.18 409.425 201.735 409.685 229.437L410.567 323.461C410.828 351.325 415.605 371.903 424.902 385.2C434.195 398.5 447.557 405.062 464.986 404.89C482.411 404.719 495.533 397.934 504.351 384.535C513.167 371.137 517.445 350.43 517.181 322.415L516.297 228.391Z" fill="#4BA28C"/>
<path d="M604.169 313.586C604.583 357.584 595.198 391.218 576.018 414.489C556.834 437.763 530.573 449.562 497.236 449.889C463.741 450.218 437.114 438.939 417.348 416.046C397.582 393.157 387.492 359.715 387.078 315.718L386.352 238.338C385.941 194.499 395.322 160.863 414.503 137.435C433.682 114.006 460.016 102.128 493.511 101.8C526.849 101.473 553.406 112.831 573.173 135.877C592.941 158.923 603.032 192.367 603.443 236.207L604.169 313.586ZM548.122 228.078C547.862 200.375 543.123 179.909 533.904 166.688C524.687 153.467 511.362 146.941 493.937 147.112C476.508 147.284 463.347 154.069 454.457 167.467C445.563 180.866 441.249 201.422 441.509 229.124L442.392 323.148C442.653 351.011 447.429 371.59 456.727 384.886C466.019 398.187 479.382 404.748 496.811 404.577C514.236 404.406 527.357 397.621 536.176 384.222C544.992 370.823 549.268 350.117 549.006 322.102L548.122 228.078Z" fill="#A4F2D5"/>
<path d="M386.578 242.936C386.642 243.108 379.25 246.106 370.072 249.631C360.891 253.158 353.4 255.878 353.336 255.706C353.272 255.533 360.662 252.535 369.843 249.009C379.022 245.483 386.515 242.763 386.578 242.936Z" fill="#A4F2D5"/>
<path d="M388.416 273.513C388.48 273.685 381.087 276.684 371.91 280.209C362.728 283.736 355.237 286.455 355.173 286.283C355.11 286.11 362.5 283.113 371.681 279.586C380.858 276.061 388.353 273.34 388.416 273.513Z" fill="#A4F2D5"/>
<path d="M390.252 304.09C390.316 304.262 382.923 307.26 373.746 310.785C364.565 314.312 357.073 317.032 357.01 316.86C356.946 316.687 364.336 313.69 373.517 310.163C382.695 306.638 390.188 303.917 390.252 304.09Z" fill="#A4F2D5"/>
<path d="M392.088 334.667C392.152 334.839 384.759 337.838 375.582 341.364C366.401 344.89 358.909 347.61 358.846 347.437C358.782 347.265 366.172 344.267 375.353 340.74C384.531 337.215 392.024 334.494 392.088 334.667Z" fill="#A4F2D5"/>
<path d="M393.926 365.245C393.942 365.288 393.533 365.492 392.781 365.823C392.028 366.153 390.933 366.612 389.574 367.167C386.857 368.275 383.088 369.763 378.911 371.368C374.732 372.973 370.937 374.39 368.178 375.385C366.799 375.882 365.678 376.276 364.899 376.533C364.121 376.79 363.682 376.911 363.666 376.868C363.649 376.824 364.058 376.621 364.811 376.29C365.562 375.959 366.658 375.5 368.017 374.946C370.734 373.838 374.503 372.349 378.682 370.745C382.859 369.14 386.654 367.723 389.413 366.727C390.792 366.23 391.913 365.837 392.692 365.58C393.472 365.323 393.909 365.202 393.926 365.245Z" fill="#A4F2D5"/>
<path d="M402.47 393.215C402.501 393.3 401.053 393.946 398.686 394.919C396.318 395.893 393.033 397.196 389.39 398.595C385.746 399.996 382.433 401.226 380.025 402.088C377.616 402.949 376.111 403.438 376.08 403.353C376.048 403.267 377.496 402.622 379.863 401.648C382.231 400.674 385.517 399.372 389.161 397.972C392.805 396.573 396.116 395.341 398.525 394.48C400.933 393.619 402.438 393.129 402.47 393.215Z" fill="#A4F2D5"/>
<path d="M420.749 418.878C420.781 418.964 419.493 419.546 417.387 420.42C415.281 421.294 412.356 422.458 409.111 423.704C405.864 424.951 402.913 426.045 400.766 426.805C398.618 427.566 397.273 427.992 397.242 427.907C397.211 427.821 398.497 427.239 400.603 426.365C402.709 425.491 405.636 424.328 408.882 423.081C412.127 421.835 415.078 420.74 417.226 419.979C419.373 419.219 420.718 418.792 420.749 418.878Z" fill="#A4F2D5"/>
<path d="M451.138 435.701C451.17 435.787 449.883 436.37 447.777 437.244C445.671 438.118 442.745 439.28 439.5 440.527C436.253 441.775 433.302 442.868 431.155 443.629C429.007 444.389 427.662 444.816 427.631 444.73C427.6 444.644 428.886 444.062 430.992 443.188C433.098 442.314 436.025 441.151 439.271 439.904C442.516 438.657 445.467 437.563 447.615 436.803C449.762 436.042 451.107 435.616 451.138 435.701Z" fill="#A4F2D5"/>
<path d="M542.794 370.454C542.868 370.621 533.381 375.145 521.604 380.556C509.824 385.969 500.218 390.22 500.144 390.053C500.071 389.885 509.557 385.362 521.337 379.949C533.112 374.538 542.721 370.287 542.794 370.454Z" fill="#A4F2D5"/>
<path d="M549.017 344.253C549.091 344.42 541.257 348.183 531.523 352.657C521.785 357.132 513.835 360.622 513.762 360.455C513.688 360.288 521.519 356.525 531.257 352.05C540.99 347.576 548.943 344.085 549.017 344.253Z" fill="#A4F2D5"/>
<path d="M551.881 314.823C551.954 314.991 544.121 318.754 534.387 323.227C524.649 327.702 516.699 331.193 516.626 331.025C516.552 330.858 524.383 327.095 534.121 322.62C543.854 318.147 551.807 314.656 551.881 314.823Z" fill="#A4F2D5"/>
<path d="M554.746 285.392C554.82 285.56 546.986 289.323 537.252 293.796C527.515 298.271 519.565 301.762 519.491 301.595C519.417 301.427 527.248 297.664 536.986 293.189C546.72 288.716 554.672 285.225 554.746 285.392Z" fill="#A4F2D5"/>
<path d="M557.61 255.963C557.683 256.13 549.85 259.893 540.116 264.367C530.378 268.842 522.428 272.332 522.355 272.165C522.281 271.998 530.112 268.235 539.85 263.76C549.583 259.286 557.536 255.795 557.61 255.963Z" fill="#A4F2D5"/>
<path d="M551.881 229.754C551.954 229.921 544.121 233.684 534.387 238.158C524.649 242.633 516.699 246.123 516.626 245.956C516.552 245.789 524.383 242.026 534.121 237.551C543.854 233.077 551.807 229.586 551.881 229.754Z" fill="#A4F2D5"/>
<path d="M551.881 201.541C551.954 201.708 544.121 205.471 534.387 209.945C524.649 214.42 516.699 217.911 516.626 217.743C516.552 217.576 524.383 213.813 534.121 209.338C543.854 204.864 551.807 201.374 551.881 201.541Z" fill="#A4F2D5"/>
<path d="M549.017 174.972C549.091 175.139 541.257 178.902 531.523 183.376C521.785 187.85 513.835 191.341 513.762 191.174C513.688 191.006 521.519 187.243 531.257 182.769C540.99 178.295 548.943 174.804 549.017 174.972Z" fill="#A4F2D5"/>
<path d="M524.324 156.465C524.398 156.632 519.657 158.974 513.736 161.694C507.813 164.416 502.953 166.486 502.879 166.319C502.806 166.151 507.547 163.809 513.469 161.088C519.389 158.367 524.251 156.297 524.324 156.465Z" fill="#A4F2D5"/>
<path d="M511.123 145.127C511.197 145.294 506.454 147.636 500.534 150.357C494.612 153.078 489.752 155.148 489.678 154.981C489.604 154.813 494.346 152.471 500.268 149.75C506.189 147.029 511.049 144.959 511.123 145.127Z" fill="#A4F2D5"/>
<path d="M387.996 205.872C388.06 206.045 380.667 209.043 371.49 212.569C362.308 216.096 354.817 218.815 354.753 218.642C354.69 218.47 362.08 215.472 371.261 211.945C380.438 208.42 387.932 205.7 387.996 205.872Z" fill="#A4F2D5"/>
<path d="M397.196 167.739C397.26 167.911 389.245 171.149 379.298 174.97C369.348 178.791 361.235 181.749 361.171 181.577C361.107 181.404 369.12 178.168 379.07 174.346C389.016 170.525 397.132 167.566 397.196 167.739Z" fill="#A4F2D5"/>
<path d="M421.223 129.999C421.287 130.171 411.125 134.233 398.528 139.071C385.928 143.911 375.667 147.695 375.603 147.522C375.54 147.35 385.7 143.289 398.3 138.449C410.896 133.611 421.16 129.826 421.223 129.999Z" fill="#A4F2D5"/>
<path d="M268.634 325.008L310.424 326.874L308.49 372.145L266.702 370.28L263.489 445.501L208.527 443.048L211.739 367.828L69.7915 361.494L69.899 327.019L221.145 104.94L277.924 107.473L268.634 325.008ZM124.87 318.594L213.671 322.556L219.532 185.35L218.188 184.823L213.22 194.605L124.87 318.594Z" fill="#A4F2D5"/>
<path d="M268.634 325.008L310.424 326.874L308.49 372.145L266.702 370.28L263.489 445.501L208.527 443.048L211.739 367.828L69.7915 361.494L69.899 327.019L221.145 104.94L277.924 107.473L268.634 325.008ZM124.87 318.594L213.671 322.556L219.532 185.35L218.188 184.823L213.22 194.605L124.87 318.594Z" fill="#4BA28C"/>
<path d="M303.581 326.568L345.373 328.434L343.439 373.705L301.649 371.84L298.436 447.06L243.475 444.608L246.688 369.388L104.74 363.054L104.848 328.578L256.094 106.499L312.871 109.033L303.581 326.568ZM159.818 320.154L248.62 324.116L254.48 186.908L253.136 186.383L248.169 196.163L159.818 320.154Z" fill="#A4F2D5"/>
<path d="M105.555 335.133C105.574 335.175 105.091 335.448 104.203 335.907C103.314 336.367 102.016 337.007 100.405 337.78C97.1827 339.326 92.6952 341.386 87.6927 343.548C82.6877 345.71 78.1152 347.564 74.7852 348.85C73.1202 349.492 71.7665 349.997 70.8252 350.328C69.884 350.66 69.3565 350.824 69.3402 350.78C69.324 350.738 69.8215 350.492 70.734 350.086C71.774 349.638 73.0727 349.078 74.6152 348.413C78.0265 346.956 82.4977 345.046 87.4402 342.935C92.364 340.783 96.8177 338.837 100.218 337.351C101.76 336.684 103.058 336.12 104.098 335.671C105.019 335.283 105.536 335.09 105.555 335.133Z" fill="#A4F2D5"/>
<path d="M125.895 296.868C125.914 296.911 125.242 297.271 124.012 297.887C122.781 298.5 120.987 299.361 118.759 300.398C114.304 302.475 108.107 305.249 101.227 308.225C94.3424 311.196 88.0787 313.807 83.5162 315.625C81.2362 316.536 79.3812 317.252 78.0924 317.727C76.8037 318.2 76.0824 318.44 76.0662 318.398C76.0499 318.356 76.7399 318.034 77.9999 317.487C79.3624 316.901 81.1637 316.126 83.3424 315.189C87.9499 313.209 94.1362 310.551 100.974 307.612C107.797 304.648 113.974 301.965 118.574 299.967C120.749 299.023 122.547 298.242 123.909 297.65C125.17 297.107 125.876 296.826 125.895 296.868Z" fill="#A4F2D5"/>
<path d="M150.733 262.749C150.75 262.791 150.048 263.152 148.761 263.769C147.474 264.382 145.6 265.245 143.273 266.282C138.619 268.361 132.149 271.135 124.969 274.111C117.784 277.082 111.25 279.693 106.493 281.51C104.115 282.421 102.181 283.134 100.839 283.609C99.4952 284.08 98.7452 284.322 98.7302 284.279C98.7152 284.235 99.4352 283.914 100.75 283.367C102.166 282.785 104.048 282.009 106.326 281.071C111.128 279.095 117.586 276.434 124.725 273.494C131.851 270.528 138.298 267.845 143.093 265.849C145.368 264.902 147.248 264.12 148.661 263.531C149.978 262.988 150.715 262.707 150.733 262.749Z" fill="#A4F2D5"/>
<path d="M250.221 302.156C250.239 302.198 249.755 302.463 248.863 302.906C247.971 303.351 246.67 303.968 245.055 304.713C241.824 306.203 237.328 308.189 232.315 310.265C227.3 312.34 222.719 314.111 219.384 315.34C217.716 315.954 216.363 316.437 215.42 316.752C214.478 317.068 213.949 317.223 213.934 317.179C213.919 317.136 214.416 316.901 215.331 316.51C216.374 316.078 217.675 315.54 219.22 314.901C222.64 313.503 227.119 311.672 232.071 309.648C237.004 307.579 241.465 305.71 244.873 304.281C246.418 303.641 247.719 303.101 248.761 302.669C249.684 302.298 250.204 302.114 250.221 302.156Z" fill="#A4F2D5"/>
<path d="M246.179 372.355C246.198 372.397 245.73 372.661 244.867 373.103C244.004 373.547 242.744 374.164 241.179 374.909C238.05 376.397 233.695 378.383 228.835 380.46C223.974 382.535 219.529 384.308 216.294 385.537C214.677 386.152 213.363 386.634 212.448 386.949C211.533 387.266 211.019 387.421 211.003 387.377C210.987 387.334 211.47 387.099 212.357 386.708C213.373 386.275 214.633 385.737 216.127 385.099C219.448 383.699 223.787 381.868 228.584 379.845C233.362 377.779 237.684 375.909 240.993 374.478C242.487 373.839 243.747 373.301 244.763 372.867C245.658 372.496 246.16 372.312 246.179 372.355Z" fill="#A4F2D5"/>
<path d="M245.6 396.959C245.619 397.001 245.151 397.266 244.287 397.708C243.425 398.151 242.165 398.768 240.6 399.513C237.471 401.002 233.116 402.988 228.256 405.064C223.395 407.139 218.95 408.911 215.715 410.141C214.097 410.755 212.782 411.238 211.867 411.554C210.952 411.871 210.44 412.025 210.424 411.982C210.407 411.938 210.891 411.703 211.777 411.312C212.794 410.879 214.054 410.341 215.547 409.704C218.869 408.303 223.207 406.472 228.005 404.449C232.782 402.383 237.105 400.514 240.414 399.083C241.907 398.445 243.167 397.906 244.184 397.471C245.079 397.101 245.581 396.917 245.6 396.959Z" fill="#A4F2D5"/>
<path d="M245.021 421.564C245.04 421.606 244.573 421.87 243.709 422.312C242.846 422.756 241.586 423.373 240.021 424.118C236.893 425.606 232.538 427.592 227.678 429.668C222.816 431.744 218.371 433.517 215.136 434.746C213.519 435.361 212.205 435.843 211.29 436.158C210.375 436.475 209.861 436.63 209.845 436.586C209.829 436.544 210.313 436.308 211.199 435.917C212.215 435.484 213.475 434.946 214.969 434.308C218.29 432.908 222.629 431.077 227.426 429.054C232.204 426.988 236.526 425.118 239.835 423.687C241.329 423.05 242.589 422.51 243.605 422.076C244.5 421.705 245.003 421.521 245.021 421.564Z" fill="#A4F2D5"/>
<path d="M250.871 276.163C250.889 276.205 250.405 276.47 249.513 276.913C248.621 277.358 247.32 277.975 245.705 278.72C242.474 280.21 237.978 282.196 232.965 284.272C227.95 286.347 223.369 288.119 220.034 289.347C218.366 289.962 217.013 290.444 216.07 290.759C215.128 291.075 214.599 291.229 214.584 291.186C214.569 291.143 215.066 290.907 215.981 290.516C217.024 290.085 218.326 289.547 219.871 288.908C223.291 287.51 227.769 285.679 232.721 283.655C237.654 281.586 242.115 279.717 245.523 278.288C247.068 277.648 248.369 277.107 249.411 276.676C250.334 276.305 250.854 276.121 250.871 276.163Z" fill="#A4F2D5"/>
<path d="M251.521 250.171C251.539 250.213 251.055 250.478 250.162 250.921C249.271 251.366 247.97 251.983 246.355 252.728C243.124 254.218 238.627 256.203 233.615 258.28C228.6 260.355 224.019 262.127 220.684 263.355C219.016 263.97 217.662 264.451 216.72 264.767C215.777 265.083 215.249 265.237 215.234 265.194C215.219 265.15 215.716 264.915 216.631 264.524C217.674 264.094 218.976 263.554 220.521 262.916C223.941 261.518 228.419 259.687 233.371 257.663C238.304 255.594 242.765 253.724 246.172 252.296C247.717 251.656 249.019 251.115 250.061 250.683C250.984 250.313 251.504 250.129 251.521 250.171Z" fill="#A4F2D5"/>
<path d="M252.173 224.177C252.19 224.219 251.729 224.474 250.88 224.898C250.032 225.323 248.794 225.914 247.257 226.627C244.182 228.051 239.902 229.953 235.125 231.931C230.347 233.909 225.979 235.586 222.8 236.752C221.21 237.333 219.92 237.789 219.022 238.088C218.123 238.387 217.618 238.533 217.603 238.489C217.588 238.446 218.062 238.219 218.933 237.845C219.935 237.43 221.174 236.918 222.638 236.311C225.908 234.977 230.169 233.237 234.882 231.313C239.574 229.343 243.817 227.562 247.074 226.195C248.538 225.589 249.777 225.075 250.779 224.66C251.659 224.309 252.155 224.135 252.173 224.177Z" fill="#A4F2D5"/>
<path d="M255.047 199.889C255.109 200.062 252.303 201.284 248.78 202.618C245.257 203.953 242.349 204.895 242.287 204.722C242.224 204.55 245.03 203.329 248.554 201.994C252.077 200.66 254.984 199.717 255.047 199.889Z" fill="#A4F2D5"/>
<path d="M175.528 227.374C175.545 227.416 174.843 227.777 173.556 228.394C172.269 229.007 170.395 229.87 168.068 230.907C163.414 232.986 156.944 235.76 149.764 238.736C142.579 241.707 136.045 244.318 131.288 246.135C128.91 247.046 126.976 247.759 125.634 248.234C124.29 248.707 123.54 248.947 123.525 248.904C123.51 248.86 124.23 248.538 125.545 247.991C126.961 247.409 128.843 246.634 131.121 245.696C135.923 243.72 142.381 241.059 149.52 238.119C156.646 235.153 163.093 232.47 167.888 230.474C170.163 229.527 172.043 228.745 173.456 228.156C174.773 227.613 175.51 227.332 175.528 227.374Z" fill="#A4F2D5"/>
<path d="M200.324 191.999C200.342 192.041 199.639 192.402 198.353 193.019C197.065 193.632 195.192 194.495 192.864 195.532C188.21 197.611 181.74 200.385 174.56 203.361C167.375 206.332 160.842 208.943 156.084 210.76C153.707 211.671 151.773 212.384 150.43 212.859C149.087 213.332 148.337 213.572 148.322 213.529C148.307 213.485 149.027 213.164 150.342 212.617C151.758 212.035 153.639 211.259 155.918 210.321C160.719 208.345 167.178 205.684 174.317 202.744C181.443 199.778 187.889 197.095 192.684 195.099C194.959 194.152 196.839 193.37 198.253 192.781C199.569 192.238 200.307 191.957 200.324 191.999Z" fill="#A4F2D5"/>
<path d="M223.239 156.623C223.257 156.665 222.554 157.026 221.268 157.643C219.98 158.256 218.107 159.119 215.779 160.156C211.125 162.235 204.657 165.009 197.477 167.985C190.292 170.956 183.757 173.567 178.999 175.384C176.622 176.295 174.688 177.008 173.345 177.483C172.002 177.956 171.252 178.196 171.237 178.153C171.222 178.109 171.942 177.788 173.257 177.242C174.673 176.659 176.554 175.883 178.833 174.945C183.635 172.969 190.093 170.308 197.232 167.368C204.358 164.402 210.804 161.719 215.599 159.723C217.874 158.776 219.754 157.994 221.168 157.405C222.484 156.862 223.222 156.581 223.239 156.623Z" fill="#A4F2D5"/>
<path d="M247.083 122.61C247.1 122.652 246.398 123.012 245.112 123.629C243.824 124.243 241.95 125.105 239.623 126.143C234.969 128.222 228.499 130.996 221.319 133.972C214.134 136.942 207.6 139.553 202.843 141.37C200.465 142.281 198.532 142.994 197.189 143.469C195.845 143.942 195.095 144.182 195.08 144.139C195.065 144.095 195.785 143.773 197.1 143.227C198.517 142.644 200.398 141.868 202.677 140.93C207.478 138.954 213.937 136.295 221.075 133.354C228.202 130.389 234.648 127.705 239.443 125.709C241.718 124.763 243.598 123.981 245.012 123.392C246.328 122.849 247.065 122.567 247.083 122.61Z" fill="#A4F2D5"/>
<path d="M801.712 326.592L843.343 322.432L847.658 367.531L806.028 371.692L813.197 446.627L758.445 452.101L751.276 377.167L609.868 391.303L605.231 357.154L724.417 115.539L780.98 109.884L801.712 326.592ZM658.496 340.911L746.961 332.068L733.883 195.38L732.481 195.054L728.908 205.451L658.496 340.911Z" fill="#A4F2D5"/>
<path d="M801.712 326.592L843.343 322.432L847.658 367.531L806.028 371.692L813.197 446.627L758.445 452.101L751.276 377.167L609.868 391.303L605.231 357.154L724.417 115.539L780.98 109.884L801.712 326.592ZM658.496 340.911L746.961 332.068L733.883 195.38L732.481 195.054L728.908 205.451L658.496 340.911Z" fill="#4BA28C"/>
<path d="M836.527 323.113L878.158 318.95L882.473 364.049L840.842 368.212L848.012 443.146L793.26 448.62L786.091 373.685L644.682 387.824L640.046 353.675L759.232 112.057L815.795 106.403L836.527 323.113ZM693.311 337.431L781.776 328.586L768.7 191.899L767.296 191.574L763.723 201.971L693.311 337.431Z" fill="#A4F2D5"/>
<path d="M641.647 360.063C641.671 360.102 641.232 360.443 640.415 361.025C639.598 361.608 638.402 362.428 636.913 363.425C633.936 365.418 629.776 368.104 625.121 370.964C620.463 373.824 616.191 376.317 613.071 378.068C611.511 378.945 610.241 379.639 609.353 380.101C608.467 380.565 607.967 380.802 607.945 380.762C607.922 380.722 608.382 380.408 609.23 379.875C610.197 379.281 611.406 378.54 612.842 377.659C616.02 375.726 620.182 373.194 624.786 370.393C629.365 367.555 633.506 364.988 636.667 363.028C638.102 362.145 639.311 361.402 640.278 360.807C641.137 360.292 641.622 360.025 641.647 360.063Z" fill="#A4F2D5"/>
<path d="M656.521 319.256C656.546 319.294 655.931 319.746 654.797 320.533C653.662 321.317 652.005 322.428 649.941 323.775C645.816 326.472 640.064 330.11 633.661 334.046C627.254 337.978 621.41 341.462 617.144 343.919C615.011 345.15 613.274 346.122 612.064 346.779C610.852 347.432 610.172 347.774 610.15 347.735C610.127 347.695 610.766 347.276 611.939 346.554C613.207 345.778 614.884 344.752 616.912 343.512C621.202 340.888 626.961 337.367 633.326 333.475C639.675 329.558 645.419 326.016 649.699 323.376C651.722 322.128 653.396 321.096 654.662 320.315C655.837 319.595 656.497 319.217 656.521 319.256Z" fill="#A4F2D5"/>
<path d="M676.416 281.905C676.44 281.945 675.794 282.401 674.605 283.197C673.415 283.989 671.677 285.112 669.516 286.474C665.195 289.203 659.171 292.88 652.472 296.858C645.769 300.833 639.657 304.356 635.197 306.838C632.969 308.082 631.154 309.067 629.89 309.73C628.625 310.391 627.915 310.737 627.894 310.696C627.872 310.655 628.54 310.232 629.767 309.503C631.089 308.722 632.845 307.686 634.972 306.428C639.455 303.781 645.482 300.218 652.146 296.281C658.794 292.32 664.807 288.737 669.28 286.072C671.402 284.807 673.154 283.762 674.472 282.976C675.701 282.249 676.392 281.866 676.416 281.905Z" fill="#A4F2D5"/>
<path d="M780.337 306.614C780.361 306.654 779.917 306.985 779.095 307.552C778.274 308.12 777.07 308.918 775.574 309.888C772.58 311.828 768.402 314.441 763.725 317.217C759.045 319.994 754.754 322.405 751.621 324.101C750.055 324.948 748.78 325.621 747.89 326.068C747.001 326.517 746.499 326.747 746.477 326.706C746.456 326.665 746.917 326.36 747.769 325.841C748.742 325.263 749.956 324.544 751.399 323.689C754.592 321.813 758.772 319.358 763.397 316.641C767.997 313.884 772.156 311.391 775.334 309.487C776.775 308.631 777.99 307.91 778.962 307.332C779.825 306.833 780.314 306.575 780.337 306.614Z" fill="#A4F2D5"/>
<path d="M785.995 376.697C786.018 376.735 785.591 377.066 784.797 377.629C784.003 378.192 782.842 378.983 781.396 379.945C778.502 381.87 774.462 384.461 769.937 387.216C765.41 389.969 761.253 392.364 758.22 394.046C756.702 394.886 755.468 395.553 754.606 395.998C753.743 396.443 753.257 396.669 753.235 396.629C753.213 396.59 753.658 396.285 754.482 395.772C755.428 395.197 756.602 394.483 757.993 393.637C761.09 391.772 765.133 389.337 769.605 386.645C774.051 383.911 778.071 381.439 781.151 379.547C782.542 378.699 783.716 377.985 784.662 377.409C785.497 376.914 785.971 376.659 785.995 376.697Z" fill="#A4F2D5"/>
<path d="M788.807 401.14C788.831 401.178 788.403 401.509 787.61 402.071C786.816 402.635 785.655 403.425 784.208 404.388C781.315 406.312 777.276 408.905 772.75 411.658C768.222 414.412 764.066 416.805 761.032 418.488C759.515 419.329 758.281 419.996 757.418 420.44C756.557 420.885 756.068 421.111 756.047 421.072C756.026 421.032 756.471 420.728 757.295 420.214C758.241 419.639 759.415 418.925 760.806 418.079C763.902 416.215 767.946 413.779 772.417 411.087C776.863 408.354 780.883 405.881 783.963 403.989C785.355 403.142 786.528 402.428 787.475 401.851C788.31 401.357 788.783 401.101 788.807 401.14Z" fill="#A4F2D5"/>
<path d="M791.62 425.582C791.643 425.62 791.216 425.951 790.422 426.513C789.63 427.077 788.467 427.868 787.021 428.83C784.127 430.754 780.087 433.346 775.562 436.101C771.035 438.854 766.878 441.247 763.845 442.93C762.327 443.771 761.093 444.438 760.231 444.883C759.368 445.327 758.881 445.554 758.86 445.514C758.838 445.474 759.283 445.17 760.107 444.655C761.053 444.08 762.227 443.367 763.618 442.521C766.715 440.657 770.758 438.222 775.23 435.529C779.676 432.796 783.696 430.324 786.776 428.431C788.166 427.584 789.341 426.87 790.287 426.294C791.122 425.799 791.596 425.544 791.62 425.582Z" fill="#A4F2D5"/>
<path d="M777.406 280.787C777.43 280.827 776.987 281.158 776.165 281.725C775.344 282.292 774.139 283.091 772.642 284.061C769.649 286.001 765.471 288.614 760.794 291.39C756.114 294.167 751.822 296.578 748.69 298.274C747.124 299.121 745.849 299.794 744.959 300.241C744.07 300.69 743.567 300.92 743.546 300.879C743.525 300.838 743.986 300.533 744.837 300.014C745.811 299.436 747.026 298.717 748.467 297.862C751.661 295.986 755.842 293.53 760.467 290.814C765.067 288.056 769.225 285.564 772.402 283.66C773.844 282.804 775.059 282.083 776.031 281.505C776.894 281.006 777.382 280.748 777.406 280.787Z" fill="#A4F2D5"/>
<path d="M774.473 254.959C774.497 254.999 774.055 255.33 773.232 255.897C772.411 256.464 771.206 257.263 769.71 258.233C766.716 260.172 762.538 262.785 757.861 265.562C753.181 268.339 748.89 270.75 745.757 272.445C744.191 273.293 742.916 273.966 742.026 274.413C741.137 274.862 740.635 275.092 740.613 275.051C740.592 275.01 741.053 274.705 741.905 274.186C742.878 273.608 744.093 272.889 745.535 272.034C748.728 270.158 752.91 267.702 757.535 264.986C762.135 262.228 766.293 259.735 769.47 257.831C770.911 256.975 772.126 256.255 773.098 255.677C773.961 255.178 774.45 254.919 774.473 254.959Z" fill="#A4F2D5"/>
<path d="M771.542 229.132C771.566 229.172 771.145 229.49 770.362 230.032C769.581 230.575 768.435 231.338 767.011 232.264C764.162 234.117 760.187 236.615 755.731 239.26C751.272 241.905 747.177 244.195 744.191 245.805C742.697 246.61 741.482 247.247 740.634 247.671C739.786 248.097 739.306 248.313 739.285 248.272C739.264 248.231 739.702 247.94 740.512 247.444C741.447 246.889 742.604 246.203 743.97 245.392C747.024 243.6 751.002 241.266 755.404 238.685C759.779 236.059 763.735 233.685 766.771 231.863C768.137 231.053 769.294 230.365 770.229 229.811C771.051 229.337 771.519 229.092 771.542 229.132Z" fill="#A4F2D5"/>
<path d="M771.044 204.671C771.129 204.832 768.519 206.446 765.215 208.273C761.91 210.102 759.161 211.451 759.076 211.29C758.991 211.129 761.6 209.517 764.905 207.688C768.209 205.861 770.959 204.51 771.044 204.671Z" fill="#A4F2D5"/>
<path d="M696.097 243.316C696.121 243.356 695.475 243.812 694.286 244.608C693.096 245.4 691.36 246.523 689.197 247.886C684.876 250.612 678.852 254.291 672.153 258.269C665.45 262.244 659.338 265.767 654.878 268.25C652.65 269.493 650.835 270.478 649.571 271.141C648.306 271.802 647.596 272.148 647.575 272.107C647.553 272.066 648.221 271.643 649.448 270.914C650.77 270.133 652.526 269.097 654.653 267.839C659.136 265.192 665.163 261.629 671.827 257.693C678.475 253.731 684.487 250.149 688.96 247.483C691.082 246.218 692.835 245.174 694.153 244.388C695.382 243.661 696.073 243.277 696.097 243.316Z" fill="#A4F2D5"/>
<path d="M715.78 204.727C715.804 204.767 715.157 205.223 713.969 206.019C712.779 206.811 711.042 207.935 708.88 209.297C704.559 212.024 698.535 215.702 691.836 219.68C685.132 223.655 679.021 227.178 674.561 229.661C672.332 230.904 670.517 231.889 669.254 232.552C667.989 233.213 667.279 233.559 667.257 233.518C667.236 233.477 667.904 233.054 669.131 232.325C670.452 231.544 672.209 230.508 674.336 229.251C678.819 226.603 684.846 223.041 691.51 219.104C698.157 215.143 704.17 211.56 708.642 208.894C710.765 207.629 712.517 206.585 713.836 205.799C715.065 205.072 715.756 204.688 715.78 204.727Z" fill="#A4F2D5"/>
<path d="M733.6 166.409C733.623 166.449 732.977 166.905 731.788 167.701C730.598 168.493 728.862 169.616 726.7 170.978C722.378 173.705 716.355 177.384 709.656 181.362C702.952 185.337 696.841 188.86 692.381 191.342C690.152 192.586 688.337 193.571 687.073 194.234C685.808 194.895 685.098 195.241 685.077 195.2C685.056 195.159 685.725 194.736 686.951 194.006C688.272 193.226 690.028 192.189 692.156 190.932C696.638 188.285 702.666 184.722 709.33 180.785C715.977 176.824 721.99 173.241 726.462 170.576C728.585 169.311 730.337 168.266 731.656 167.48C732.885 166.753 733.576 166.369 733.6 166.409Z" fill="#A4F2D5"/>
<path d="M752.527 129.306C752.551 129.345 751.905 129.801 750.716 130.597C749.526 131.39 747.789 132.513 745.627 133.875C741.306 136.602 735.282 140.28 728.584 144.258C721.88 148.233 715.769 151.756 711.309 154.239C709.08 155.482 707.265 156.467 706.001 157.13C704.736 157.791 704.026 158.137 704.005 158.096C703.984 158.056 704.651 157.633 705.879 156.903C707.2 156.122 708.956 155.086 711.084 153.829C715.566 151.181 721.594 147.619 728.257 143.682C734.905 139.721 740.917 136.138 745.39 133.472C747.512 132.207 749.265 131.163 750.584 130.378C751.812 129.651 752.504 129.266 752.527 129.306Z" fill="#A4F2D5"/>
<path d="M566.631 213.567C566.644 213.579 566.552 213.72 566.373 213.963C566.193 214.207 565.925 214.552 565.583 214.97C564.901 215.807 563.921 216.933 562.773 218.113C562.201 218.682 561.666 219.326 560.931 219.563C560.575 219.677 560.196 219.681 559.876 219.551C559.553 219.424 559.329 219.166 559.197 218.916C558.929 218.398 558.973 217.914 559.01 217.616C559.055 217.31 559.113 217.15 559.129 217.153C559.149 217.157 559.124 217.325 559.111 217.625C559.104 217.918 559.098 218.375 559.357 218.822C559.485 219.04 559.684 219.249 559.953 219.345C560.22 219.444 560.546 219.435 560.858 219.329C561.495 219.118 562.013 218.504 562.589 217.925C563.732 216.75 564.729 215.649 565.445 214.846C566.161 214.043 566.602 213.543 566.631 213.567Z" fill="#EB8E6F"/>
<path d="M573.03 316.035C577.721 311.986 579.306 304.697 576.728 299.042C574.526 298.813 572.324 298.584 570.122 298.355C573.475 296.581 575.496 292.551 574.925 288.779C571.363 292.65 565.201 293.794 560.504 291.454C557.419 289.917 554.918 287.057 551.528 286.457C548.452 285.912 545.427 287.365 542.485 288.42C539.542 289.475 535.972 290.056 533.534 288.088C531.601 286.529 531.002 283.796 531.128 281.305C531.253 278.814 531.968 276.383 532.121 273.894C532.421 269.006 530.32 264.086 526.771 260.766C525.66 257.219 522.992 254.164 519.582 252.714C515.454 250.958 510.408 251.621 506.864 254.386C505.42 255.513 504.199 256.966 502.561 257.782C500.711 258.704 498.558 258.702 496.555 259.2C494.551 259.698 492.449 261.034 492.234 263.101L491.428 267.34C491.292 267.644 491.149 267.944 490.985 268.234C489.282 271.242 485.801 273.22 485.04 276.597C484.614 278.491 485.143 280.541 484.509 282.374C483.675 284.788 481.089 286.146 479.884 288.394C478.23 291.482 479.353 296.891 481.997 299.174C484.642 301.457 490.098 303.873 493.505 304.603C494.428 301.035 495.244 297.22 496.037 293.316C497.426 294.659 498.882 295.941 500.332 297.209C504.127 300.529 507.999 303.904 510.631 308.218C515.632 316.417 515.717 327.282 522.013 334.519C523.247 335.938 524.745 337.202 526.538 337.749C528.33 338.296 530.454 338.007 531.78 336.674C533.344 335.102 533.546 332.452 535.277 331.069C537.578 329.231 540.939 330.697 543.413 332.291C545.203 333.445 546.992 334.665 549.023 335.298C551.053 335.93 553.412 335.889 555.139 334.641C556.865 333.392 557.624 330.734 556.378 328.999C555.88 328.305 555.135 327.82 554.641 327.124C554.148 326.427 554.004 325.324 554.68 324.805C555.427 324.232 556.474 324.785 557.283 325.265C561.23 327.605 566.231 328.049 570.524 326.441C574.817 324.832 578.315 321.203 579.785 316.833C577.517 317.185 575.156 316.906 573.03 316.035Z" fill="#28172F"/>
<path d="M568.918 279.525C568.918 279.525 569.142 279.681 569.516 280.04C569.881 280.402 570.419 280.967 570.876 281.85C571.099 282.292 571.292 282.816 571.383 283.417C571.468 284.015 571.436 284.703 571.159 285.363C570.893 286.019 570.424 286.662 569.74 287.097C569.399 287.313 569.002 287.472 568.575 287.52C568.147 287.571 567.698 287.5 567.283 287.331C565.569 286.627 564.709 284.632 562.855 283.742C561.049 282.78 558.74 282.714 556.522 283.226C554.278 283.743 552.143 284.952 549.958 286.188C547.777 287.418 545.451 288.75 542.777 289.213C541.455 289.457 540.095 289.471 538.806 289.185C538.163 289.033 537.544 288.804 536.969 288.497C536.394 288.187 535.879 287.786 535.419 287.341C534.505 286.435 533.865 285.316 533.43 284.169C532.992 283.018 532.75 281.832 532.616 280.669C532.371 278.333 532.565 276.114 532.587 274.049C532.63 271.986 532.508 270.051 532.027 268.365C531.798 267.521 531.491 266.742 531.146 266.035C530.806 265.325 530.425 264.684 530.026 264.116C529.236 262.972 528.401 262.103 527.664 261.462C526.93 260.815 526.288 260.406 525.86 260.121C525.647 259.993 525.48 259.894 525.357 259.821C525.244 259.752 525.187 259.715 525.189 259.711C525.191 259.707 525.252 259.737 525.369 259.799C525.495 259.867 525.666 259.96 525.885 260.079C526.322 260.352 526.976 260.75 527.725 261.39C528.476 262.025 529.328 262.891 530.136 264.038C530.544 264.608 530.934 265.252 531.283 265.967C531.638 266.68 531.953 267.465 532.19 268.319C532.688 270.024 532.82 271.981 532.786 274.052C532.772 276.123 532.588 278.341 532.836 280.644C532.971 281.792 533.214 282.96 533.645 284.087C534.073 285.21 534.699 286.297 535.584 287.171C536.03 287.601 536.527 287.987 537.082 288.286C537.637 288.581 538.236 288.804 538.859 288.95C540.109 289.227 541.437 289.214 542.735 288.974C545.358 288.521 547.659 287.21 549.843 285.981C552.03 284.749 554.184 283.531 556.472 283.008C557.608 282.756 558.751 282.63 559.856 282.72C560.409 282.747 560.947 282.858 561.47 282.983C561.984 283.139 562.491 283.307 562.947 283.564C564.861 284.51 565.724 286.513 567.346 287.172C568.135 287.518 569.015 287.386 569.659 286.967C570.314 286.558 570.772 285.941 571.035 285.311C571.308 284.676 571.345 284.018 571.27 283.433C571.188 282.847 571.005 282.33 570.792 281.892C570.355 281.016 569.834 280.446 569.482 280.074C569.302 279.89 569.16 279.754 569.061 279.665C568.964 279.576 568.916 279.528 568.918 279.525Z" fill="#28172F"/>
<path d="M493.437 306.379C493.437 306.379 493.419 306.308 493.398 306.169C493.376 306.03 493.356 305.821 493.275 305.559C493.139 305.033 492.82 304.268 492.141 303.483C491.453 302.712 490.427 301.926 489.079 301.339C487.74 300.723 486.081 300.421 484.259 300.076C482.453 299.718 480.378 299.34 478.523 298.092C476.697 296.851 475.238 294.737 474.863 292.247C474.487 289.772 475.279 286.989 477.165 285.014C479.075 283.037 481.778 282.058 483.986 280.32C484.529 279.875 485.026 279.382 485.44 278.83C485.828 278.261 486.146 277.647 486.326 276.989C486.693 275.668 486.662 274.286 486.787 272.941C486.849 272.268 486.948 271.595 487.157 270.955C487.36 270.312 487.698 269.719 488.129 269.217C489.027 268.225 490.256 267.703 491.433 267.364C492.62 267.017 493.799 266.8 494.914 266.49C496.027 266.179 497.075 265.759 497.954 265.12C498.845 264.504 499.585 263.745 500.234 262.971C500.885 262.196 501.439 261.392 501.953 260.616C502.973 259.059 503.846 257.605 504.776 256.443C505.689 255.27 506.618 254.371 507.47 253.764C508.317 253.149 509.074 252.826 509.595 252.662C510.117 252.494 510.405 252.457 510.405 252.457C510.409 252.473 510.124 252.527 509.611 252.708C509.098 252.885 508.355 253.22 507.524 253.841C506.689 254.453 505.778 255.353 504.881 256.526C503.968 257.689 503.109 259.141 502.095 260.711C501.583 261.492 501.031 262.303 500.377 263.091C499.724 263.876 498.976 264.651 498.068 265.285C497.173 265.942 496.093 266.378 494.971 266.695C493.845 267.011 492.665 267.232 491.495 267.578C490.332 267.915 489.15 268.428 488.301 269.371C487.892 269.85 487.573 270.41 487.378 271.028C487.179 271.643 487.082 272.299 487.022 272.963C486.898 274.291 486.934 275.685 486.556 277.055C486.369 277.739 486.038 278.382 485.634 278.972C485.205 279.547 484.692 280.054 484.137 280.51C483.008 281.4 481.77 282.079 480.586 282.783C479.402 283.484 478.258 284.228 477.335 285.178C475.5 287.094 474.722 289.808 475.083 292.214C475.441 294.637 476.858 296.709 478.635 297.926C480.439 299.151 482.489 299.541 484.291 299.908C486.107 300.263 487.782 300.58 489.133 301.216C490.492 301.821 491.525 302.629 492.211 303.421C492.89 304.228 493.2 305.011 493.322 305.547C493.396 305.814 493.409 306.025 493.422 306.166C493.436 306.307 493.437 306.379 493.437 306.379Z" fill="#28172F"/>
<path d="M530.304 264.615C530.298 264.631 530.172 264.598 529.949 264.524C529.724 264.453 529.407 264.326 529.025 264.149C528.261 263.796 527.248 263.196 526.27 262.35C525.293 261.501 524.553 260.581 524.092 259.872C523.86 259.518 523.689 259.222 523.586 259.009C523.48 258.797 523.429 258.676 523.443 258.669C523.478 258.649 523.739 259.1 524.231 259.774C524.722 260.449 525.468 261.333 526.426 262.166C527.387 262.996 528.366 263.608 529.101 263.996C529.837 264.385 530.318 264.578 530.304 264.615Z" fill="#542F64"/>
<path d="M545.653 296.347C545.646 296.368 545.363 296.275 544.841 296.161C544.319 296.045 543.554 295.927 542.6 295.884C541.646 295.842 540.508 295.886 539.245 295.98C537.982 296.07 536.587 296.2 535.113 296.168C533.642 296.131 532.226 295.905 531.038 295.396C529.851 294.888 528.921 294.14 528.304 293.384C527.686 292.624 527.375 291.873 527.253 291.343C527.195 291.076 527.16 290.868 527.156 290.723C527.146 290.581 527.144 290.506 527.152 290.505C527.181 290.501 527.194 290.804 527.344 291.318C527.491 291.83 527.816 292.549 528.434 293.274C529.05 293.995 529.966 294.708 531.123 295.19C532.281 295.673 533.667 295.89 535.119 295.925C536.574 295.958 537.963 295.835 539.23 295.757C540.497 295.675 541.646 295.648 542.609 295.713C543.572 295.778 544.344 295.924 544.863 296.069C545.123 296.143 545.322 296.206 545.454 296.259C545.587 296.309 545.656 296.339 545.653 296.347Z" fill="#542F64"/>
<path d="M572.867 317.502C572.869 317.506 572.824 317.526 572.733 317.563C572.643 317.6 572.509 317.659 572.321 317.696C571.953 317.784 571.369 317.83 570.668 317.621C569.973 317.408 569.172 316.959 568.452 316.21C567.713 315.469 567.166 314.395 566.671 313.201C566.166 312.009 565.745 310.638 564.921 309.375C564.535 308.727 564.012 308.145 563.455 307.572C562.864 307.035 562.226 306.508 561.497 306.08C558.596 304.319 554.788 303.598 550.899 303.827C546.989 304.034 543.31 304.806 539.907 305.046C536.509 305.353 533.386 304.974 530.946 304.113C528.491 303.267 526.773 301.946 525.81 300.871C525.554 300.613 525.365 300.351 525.196 300.129C525.019 299.912 524.892 299.713 524.796 299.548C524.703 299.394 524.629 299.271 524.572 299.176C524.523 299.092 524.499 299.048 524.503 299.046C524.507 299.044 524.537 299.084 524.593 299.164C524.655 299.255 524.736 299.373 524.837 299.521C524.938 299.681 525.071 299.875 525.252 300.085C525.426 300.301 525.619 300.556 525.878 300.806C526.853 301.852 528.564 303.134 531.001 303.951C533.427 304.782 536.51 305.14 539.89 304.823C543.274 304.573 546.95 303.794 550.887 303.585C554.809 303.354 558.667 304.087 561.611 305.889C562.352 306.328 563.001 306.867 563.602 307.419C564.168 308.005 564.699 308.603 565.089 309.267C565.924 310.565 566.336 311.947 566.829 313.135C567.311 314.328 567.837 315.385 568.549 316.116C569.245 316.858 570.022 317.309 570.695 317.531C571.376 317.748 571.946 317.72 572.311 317.648C572.68 317.579 572.861 317.483 572.867 317.502Z" fill="#542F64"/>
<path d="M512.074 327.458L507.91 326.803L482.133 318.426L467.058 314.038C463.535 312.811 458.967 312.388 454.013 314.932C446.892 318.589 427.236 337.018 427.236 337.018L441.387 351.718L434.722 381.466C442.182 402.833 456.785 405.282 456.785 405.282C456.785 405.282 466.381 406.149 477.706 401.797C491.267 396.586 505.504 384.376 507.286 379.125C508.356 375.973 509.239 369.354 509.942 361.874L531.411 353.058L537.229 323.136L512.074 327.458Z" fill="#542F64"/>
<path d="M480.719 380.415C480.725 380.424 480.653 380.487 480.51 380.6C480.364 380.709 480.16 380.887 479.868 381.075C479.3 381.472 478.43 381.985 477.287 382.472C475.029 383.455 471.506 384.192 467.765 383.373C464.024 382.546 461.127 380.395 459.481 378.554C458.644 377.631 458.066 376.799 457.714 376.2C457.526 375.907 457.414 375.659 457.326 375.499C457.244 375.336 457.204 375.248 457.214 375.243C457.237 375.229 457.432 375.56 457.815 376.134C458.195 376.709 458.794 377.511 459.64 378.402C461.306 380.181 464.167 382.259 467.831 383.069C471.495 383.871 474.955 383.185 477.205 382.267C478.343 381.813 479.219 381.335 479.803 380.972C480.388 380.611 480.703 380.393 480.719 380.415Z" fill="#28172F"/>
<path d="M472.565 319.661C472.57 319.66 472.586 319.708 472.611 319.803C472.639 319.916 472.674 320.056 472.717 320.228C472.807 320.601 472.931 321.153 473.081 321.867C473.367 323.297 473.796 325.375 473.931 327.994C473.984 329.301 473.96 330.749 473.687 332.272C473.416 333.792 472.881 335.386 471.993 336.885C471.1 338.382 469.864 339.745 468.469 340.999C467.071 342.255 465.525 343.422 463.951 344.626C460.603 347.163 457.341 349.456 454.425 351.537C451.505 353.613 448.937 355.488 446.881 357.056L446.815 357.106L446.753 357.055C444.915 355.556 443.523 354.263 442.625 353.312C442.178 352.835 441.858 352.443 441.659 352.164C441.556 352.027 441.495 351.909 441.448 351.836C441.404 351.76 441.383 351.721 441.387 351.718C441.398 351.711 441.498 351.86 441.706 352.128C441.918 352.393 442.249 352.771 442.706 353.233C443.624 354.153 445.036 355.419 446.882 356.89L446.754 356.889C448.795 355.294 451.351 353.397 454.261 351.306C457.168 349.209 460.422 346.91 463.765 344.377C465.336 343.175 466.881 342.011 468.267 340.771C469.651 339.532 470.869 338.196 471.749 336.736C472.623 335.274 473.156 333.719 473.434 332.225C473.714 330.729 473.751 329.3 473.712 328.003C473.607 325.405 473.212 323.325 472.963 321.891C472.833 321.194 472.731 320.642 472.656 320.24C472.625 320.066 472.601 319.925 472.58 319.81C472.565 319.713 472.56 319.662 472.565 319.661Z" fill="#28172F"/>
<path d="M490.802 266.955C488.496 266.895 486.528 268.623 486.272 270.933L481.466 321.36C480.635 328.45 489.839 343.652 497.382 344.491C504.999 345.338 505.743 341.619 506.733 334.9C508.387 323.674 508.935 319.451 508.931 319.515C508.931 319.515 518.739 319.183 522.377 306.831C524.186 300.687 525.218 290.358 525.791 281.879C526.308 274.247 522.545 264.3 514.954 264.104L490.802 266.955Z" fill="#FFBAA3"/>
<path d="M523.157 285.307C522.971 285.533 521.684 284.706 519.945 284.833C518.206 284.934 516.992 285.925 516.789 285.723C516.69 285.635 516.868 285.237 517.395 284.791C517.914 284.347 518.82 283.886 519.904 283.815C520.987 283.745 521.926 284.083 522.478 284.458C523.041 284.834 523.249 285.205 523.157 285.307Z" fill="#28172F"/>
<path d="M507.185 289.48C506.978 289.687 505.775 288.737 504.034 288.692C502.294 288.622 500.99 289.488 500.807 289.268C500.717 289.17 500.93 288.793 501.5 288.4C502.06 288.009 503.005 287.64 504.091 287.675C505.176 287.712 506.077 288.141 506.591 288.568C507.114 288.997 507.286 289.387 507.185 289.48Z" fill="#28172F"/>
<path d="M510.431 298.753C510.435 298.653 511.534 298.609 513.304 298.615C513.751 298.628 514.181 298.595 514.295 298.302C514.441 297.994 514.319 297.49 514.173 296.945C513.898 295.813 513.611 294.628 513.31 293.386C512.128 288.325 511.334 284.187 511.537 284.141C511.739 284.095 512.862 288.16 514.044 293.221C514.325 294.467 514.594 295.655 514.849 296.792C514.95 297.319 515.163 297.931 514.85 298.567C514.688 298.884 514.332 299.082 514.039 299.121C513.745 299.171 513.496 299.142 513.276 299.127C511.512 298.989 510.424 298.853 510.431 298.753Z" fill="#28172F"/>
<path d="M508.931 319.516C508.931 319.516 500.434 318.945 492.749 312.783C492.749 312.783 495.846 322.02 508.534 322.502L508.931 319.516Z" fill="#F28A68"/>
<path d="M507.428 286.479C507.153 286.905 505.509 286.285 503.462 286.057C501.419 285.788 499.677 285.997 499.509 285.517C499.438 285.29 499.82 284.918 500.573 284.621C501.321 284.324 502.448 284.139 503.674 284.286C504.9 284.437 505.95 284.886 506.606 285.354C507.268 285.823 507.551 286.276 507.428 286.479Z" fill="#28172F"/>
<path d="M522.899 282.954C522.614 283.368 521.393 283.016 519.95 283.071C518.505 283.075 517.3 283.476 516.998 283.074C516.864 282.878 517.037 282.469 517.551 282.064C518.058 281.661 518.922 281.309 519.914 281.288C520.907 281.269 521.783 281.586 522.306 281.968C522.836 282.351 523.025 282.752 522.899 282.954Z" fill="#28172F"/>
<path d="M506.223 301.932C507.011 301.395 508.011 301.185 508.947 301.359C509.425 301.448 509.903 301.647 510.215 302.023C510.624 302.515 510.674 303.211 510.658 303.853C510.648 304.238 510.62 304.63 510.489 304.991C510.358 305.353 510.11 305.688 509.762 305.848C509.404 306.012 508.988 305.975 508.6 305.91C507.953 305.801 507.304 305.615 506.764 305.241C506.223 304.867 505.799 304.28 505.738 303.622C505.677 302.964 506.041 302.255 506.658 302.03" fill="#F28A68"/>
<path d="M510.912 305.781C510.784 305.826 510.556 305.445 510.138 304.92C509.724 304.395 509.086 303.73 508.231 303.239C507.375 302.748 506.483 302.533 505.823 302.442C505.161 302.348 504.72 302.344 504.694 302.21C504.667 302.093 505.082 301.856 505.835 301.781C506.577 301.703 507.666 301.838 508.691 302.426C509.715 303.014 510.385 303.889 510.697 304.573C511.016 305.264 511.026 305.744 510.912 305.781Z" fill="#28172F"/>
<path d="M575.743 316.916L556.26 285.369L550.88 274.269C550.88 274.269 549.164 271.976 547.38 270.017C544.452 266.802 541.562 269.301 541.562 269.301C541.562 269.301 541.142 268.071 539.606 268.086C537.776 268.104 536.912 269.469 536.912 269.469C536.912 269.469 536.116 268.576 533.905 268.439C533.427 268.409 532.955 268.595 532.505 268.894C531.783 268.253 530.452 267.328 529.173 267.797C528.174 268.164 522.118 272.803 520.627 275.139C519.89 276.293 521.259 277.793 523.1 277.09C523.909 276.782 524.723 276.531 525.309 276.184C526.295 275.601 526.807 274.971 526.807 274.971C526.807 274.971 525.281 277.667 526.803 278.14C527.436 278.337 528.788 278.192 529.67 277.439C530.25 276.944 530.923 276.304 531.558 275.678C531.533 275.713 531.507 275.748 531.483 275.784C530.639 277.041 532.84 278.905 533.907 278.148C534.44 277.77 534.909 277.39 535.328 277.014C537.8 278.822 534.366 281.139 532.917 281.02C530.672 280.836 528.045 280.843 526.213 280.998C524.952 281.104 523.827 281.405 523.148 282.109C522.33 282.958 523.187 284.744 524.348 284.925C526.48 285.256 529.202 285.734 532.032 286.467C535.363 287.331 544.079 290.185 544.079 290.185L544.928 290.882L556.777 319.99L536.494 324.317L531.965 350.208L568.578 340.2C576.829 335.88 580.735 324.82 575.743 316.916Z" fill="#FFBAA3"/>
<path d="M544.079 290.185C544.076 290.195 543.915 290.156 543.614 290.074C543.286 289.979 542.848 289.853 542.299 289.696C541.132 289.346 539.494 288.855 537.483 288.253C536.465 287.943 535.353 287.604 534.162 287.241C532.97 286.871 531.693 286.487 530.336 286.139C528.981 285.792 527.549 285.443 526.047 285.246C525.314 285.131 524.493 285.202 523.72 284.823C523.53 284.729 523.346 284.605 523.196 284.43C523.124 284.338 523.058 284.246 523.019 284.11L522.974 283.791C522.929 283.38 522.919 282.946 523.051 282.519C523.187 282.088 523.521 281.736 523.894 281.536C524.265 281.329 524.653 281.208 525.028 281.083C525.808 280.833 526.609 280.791 527.378 280.793C528.922 280.813 530.378 281.028 531.77 280.972C532.463 280.949 533.144 280.888 533.788 280.772C534.434 280.654 535.055 280.484 535.66 280.327C536.862 280.005 538.043 279.771 539.122 279.883C540.198 279.973 541.132 280.277 541.916 280.599C542.702 280.921 543.343 281.271 543.863 281.562C544.382 281.854 544.774 282.1 545.039 282.265C545.304 282.433 545.44 282.526 545.435 282.536C545.429 282.545 545.282 282.47 545.008 282.32C544.708 282.157 544.308 281.94 543.806 281.669C543.28 281.396 542.633 281.064 541.851 280.761C541.072 280.458 540.151 280.176 539.106 280.102C538.059 280.008 536.924 280.245 535.725 280.577C535.123 280.738 534.499 280.916 533.837 281.042C533.173 281.166 532.488 281.232 531.779 281.259C530.361 281.324 528.886 281.113 527.376 281.098C526.624 281.098 525.849 281.143 525.123 281.378C524.396 281.617 523.567 281.877 523.345 282.617C523.234 282.972 523.238 283.369 523.281 283.754L523.319 284.032C523.334 284.089 523.381 284.167 523.433 284.231C523.543 284.359 523.693 284.464 523.856 284.545C524.523 284.881 525.321 284.827 526.086 284.942C527.612 285.147 529.048 285.505 530.408 285.861C531.769 286.218 533.045 286.612 534.234 286.993C535.422 287.369 536.531 287.72 537.546 288.041C539.545 288.684 541.174 289.207 542.335 289.58C542.877 289.761 543.309 289.906 543.633 290.014C543.928 290.116 544.082 290.174 544.079 290.185Z" fill="#F28A68"/>
<path d="M529.063 267.845C529.094 267.894 528.145 268.448 526.743 269.518C526.042 270.053 525.241 270.73 524.412 271.551C523.581 272.368 522.705 273.324 521.675 274.215C521.17 274.648 520.692 275.111 520.577 275.694C520.518 275.978 520.544 276.271 520.681 276.499C520.812 276.732 521.043 276.888 521.295 276.977C521.812 277.152 522.366 277.103 522.863 277.008C523.364 276.913 523.822 276.776 524.227 276.614C525.852 275.95 526.599 275.081 526.639 275.139C526.651 275.151 526.479 275.368 526.103 275.698C525.727 276.026 525.134 276.458 524.31 276.818C523.899 276.997 523.429 277.152 522.912 277.262C522.401 277.368 521.806 277.444 521.203 277.249C520.907 277.151 520.603 276.956 520.427 276.65C520.242 276.348 520.212 275.971 520.281 275.632C520.42 274.925 520.969 274.413 521.472 273.979C522.488 273.101 523.363 272.159 524.214 271.345C525.062 270.527 525.89 269.857 526.613 269.341C527.335 268.821 527.949 268.447 528.377 268.197C528.809 267.952 529.053 267.826 529.063 267.845Z" fill="#F28A68"/>
<path d="M536.493 270.322C536.509 270.337 536.264 270.63 535.807 271.147C535.311 271.696 534.651 272.427 533.851 273.314C533.005 274.233 532.015 275.311 530.92 276.501C530.357 277.111 529.684 277.678 528.863 278.083C528.452 278.278 527.992 278.429 527.5 278.426C527.015 278.415 526.5 278.27 526.132 277.874C525.937 277.669 525.843 277.392 525.807 277.127C525.786 276.859 525.823 276.6 525.887 276.357C526.025 275.873 526.247 275.446 526.516 275.049L526.521 275.042L526.531 275.031C527.579 273.908 528.554 272.855 529.431 271.887C530.322 270.933 531.179 270.155 531.875 269.494C532.222 269.166 532.541 268.852 532.892 268.669C533.256 268.481 533.593 268.491 533.854 268.458C534.378 268.421 534.689 268.469 534.662 268.526C534.671 268.504 534.384 268.497 533.864 268.565C533.612 268.61 533.271 268.627 532.966 268.804C532.648 268.986 532.352 269.295 532.011 269.636C531.332 270.318 530.494 271.11 529.624 272.068C528.771 273.037 527.795 274.112 526.746 275.246L526.761 275.228C526.518 275.589 526.304 276.006 526.184 276.439C526.127 276.657 526.098 276.88 526.115 277.096C526.146 277.306 526.214 277.511 526.361 277.665C526.635 277.967 527.089 278.11 527.503 278.115C527.929 278.121 528.349 277.988 528.734 277.806C529.503 277.433 530.167 276.886 530.711 276.306C531.824 275.132 532.831 274.07 533.691 273.164C534.52 272.305 535.205 271.595 535.719 271.063C535.942 270.841 536.128 270.657 536.282 270.503C536.413 270.377 536.486 270.315 536.493 270.322Z" fill="#F28A68"/>
<path d="M545.599 273.212C545.63 273.234 545.571 273.394 545.364 273.56C545.163 273.725 544.794 273.877 544.379 273.806C543.964 273.731 543.667 273.462 543.534 273.239C543.395 273.011 543.394 272.841 543.43 272.83C543.474 272.815 543.549 272.945 543.706 273.103C543.86 273.26 544.115 273.442 544.432 273.499C544.748 273.553 545.05 273.47 545.248 273.374C545.449 273.28 545.563 273.182 545.599 273.212Z" fill="#F28A68"/>
<path d="M546.312 275.958C546.248 276.011 545.801 275.56 545.409 274.889C545.014 274.219 544.838 273.608 544.915 273.577C544.995 273.543 545.293 274.082 545.675 274.731C546.055 275.381 546.381 275.903 546.312 275.958Z" fill="#F28A68"/>
<path d="M547.625 286.665C547.594 286.68 547.329 286.225 547.063 285.418C546.794 284.614 546.559 283.447 546.574 282.144C546.593 280.841 546.859 279.681 547.149 278.884C547.437 278.085 547.714 277.637 547.744 277.653C547.844 277.684 546.9 279.593 546.884 282.149C546.832 284.703 547.725 286.636 547.625 286.665Z" fill="#F28A68"/>
<path d="M563.626 328.155C563.568 328.161 563.51 327.519 563.199 326.545C563.048 326.056 562.81 325.496 562.496 324.901C562.169 324.313 561.758 323.696 561.253 323.108C560.739 322.527 560.184 322.037 559.648 321.634C559.103 321.244 558.582 320.933 558.121 320.719C557.202 320.283 556.578 320.142 556.592 320.085C556.596 320.064 556.754 320.086 557.039 320.144C557.325 320.195 557.728 320.321 558.21 320.518C558.694 320.711 559.242 321.01 559.813 321.4C560.376 321.802 560.955 322.302 561.485 322.902C562.007 323.509 562.425 324.152 562.748 324.766C563.057 325.387 563.281 325.974 563.408 326.482C563.54 326.989 563.612 327.408 563.625 327.7C563.646 327.992 563.647 328.153 563.626 328.155Z" fill="#F28A68"/>
<path d="M495.647 385.826C493.048 385.282 490.7 386.461 490.7 386.461C488.053 385.281 484.792 387.317 484.792 387.317C483.833 386.856 478.068 390.65 478.068 390.65L470.886 394.065L432.534 365.355L443.405 353.961L428.174 337.992L410.317 356.498C408.092 358.807 406.968 361.928 406.758 365.208C406.305 372.241 410.286 378.814 416.526 382L461.716 405.352C461.716 405.352 466.508 405.185 471.99 403.742C475.89 402.717 482.553 399.737 482.553 399.737C482.553 399.737 482.535 399.941 483.726 402.267C485.87 406.454 489.018 401.936 489.018 401.936C489.018 401.936 489.662 403.419 490.237 403.982C492.953 406.635 494.836 403.071 494.836 403.071C494.836 403.071 495.652 404.501 498.08 403.438C500.501 402.379 497.729 395.018 497.729 395.018C497.729 395.018 498.542 396.618 500.119 394.593C501.696 392.568 498.245 386.371 495.647 385.826Z" fill="#FFBAA3"/>
<path d="M490.222 386.829C490.216 386.816 490.383 386.719 490.719 386.636C491.052 386.548 491.573 386.519 492.175 386.68C492.777 386.838 493.448 387.173 494.096 387.669C494.421 387.92 494.742 388.192 495.052 388.529C495.354 388.873 495.589 389.279 495.799 389.698C496.626 391.374 497.204 392.965 497.555 394.134C497.731 394.719 497.855 395.198 497.928 395.532C498.002 395.866 498.029 396.053 498.009 396.058C497.964 396.071 497.749 395.348 497.348 394.204C496.945 393.06 496.34 391.494 495.523 389.839C495.319 389.43 495.096 389.047 494.824 388.73C494.546 388.422 494.227 388.14 493.922 387.897C493.306 387.407 492.677 387.068 492.115 386.892C490.969 386.529 490.23 386.908 490.222 386.829Z" fill="#F28A68"/>
<path d="M494.837 403.072C494.816 403.08 494.701 402.842 494.503 402.408C494.278 401.917 493.996 401.302 493.663 400.573C492.957 399.023 491.921 396.906 490.932 394.49C490.449 393.279 490.011 392.123 489.372 391.218C488.75 390.304 487.92 389.709 487.167 389.365C486.41 389.014 485.719 388.961 485.262 389.022C484.802 389.084 484.564 389.209 484.552 389.179C484.547 389.17 484.603 389.135 484.716 389.077C484.828 389.017 485.006 388.952 485.243 388.902C485.714 388.8 486.451 388.822 487.253 389.162C488.048 389.491 488.939 390.103 489.604 391.051C490.284 391.986 490.739 393.171 491.219 394.372C492.202 396.774 493.206 398.907 493.862 400.484C494.194 401.27 494.45 401.913 494.614 402.362C494.778 402.811 494.856 403.064 494.837 403.072Z" fill="#F28A68"/>
<path d="M477.235 393.834C477.226 393.814 477.445 393.693 477.847 393.49C478.311 393.265 478.884 392.987 479.561 392.658C479.929 392.487 480.314 392.294 480.761 392.101C481.216 391.916 481.748 391.827 482.301 391.876C482.852 391.93 483.426 392.126 483.913 392.496C484.402 392.874 484.764 393.379 485.093 393.913C485.418 394.448 485.674 395.004 485.927 395.522C486.18 396.041 486.443 396.534 486.7 397C487.217 397.931 487.705 398.763 488.065 399.492C488.43 400.217 488.679 400.828 488.827 401.257C488.976 401.686 489.035 401.931 489.018 401.937C488.966 401.956 488.646 401.005 487.872 399.594C487.49 398.886 486.987 398.07 486.452 397.141C486.186 396.676 485.915 396.181 485.655 395.658C485.395 395.134 485.144 394.594 484.829 394.075C484.515 393.562 484.16 393.075 483.73 392.74C483.294 392.403 482.775 392.219 482.273 392.161C481.768 392.11 481.277 392.181 480.853 392.342C480.428 392.514 480.019 392.703 479.651 392.859C478.957 393.152 478.371 393.4 477.896 393.6C477.479 393.769 477.244 393.853 477.235 393.834Z" fill="#F28A68"/>
<path d="M478.068 390.65C478.078 390.67 477.891 390.788 477.544 390.985C477.198 391.182 476.692 391.457 476.064 391.792C474.808 392.462 473.063 393.369 471.127 394.352C469.19 395.336 467.429 396.211 466.147 396.83C465.506 397.14 464.985 397.385 464.622 397.548C464.259 397.711 464.053 397.792 464.043 397.773C464.034 397.754 464.221 397.636 464.568 397.44C464.914 397.243 465.42 396.968 466.048 396.633C467.305 395.964 469.051 395.058 470.987 394.074C472.924 393.09 474.684 392.216 475.966 391.596C476.606 391.286 477.127 391.04 477.49 390.876C477.854 390.713 478.059 390.631 478.068 390.65Z" fill="#F28A68"/>
<path d="M433.044 365.417C433.028 365.519 431.015 364.954 428.516 365.267C426.012 365.551 424.186 366.573 424.146 366.477C424.128 366.446 424.557 366.15 425.324 365.81C426.089 365.468 427.205 365.111 428.479 364.957C429.753 364.808 430.921 364.892 431.744 365.044C432.568 365.195 433.054 365.382 433.044 365.417Z" fill="#F28A68"/>
<path d="M540.471 271.359C540.487 271.373 540.378 271.538 540.164 271.823C539.95 272.108 539.632 272.512 539.226 273.002C538.415 273.983 537.249 275.303 535.885 276.684C535.205 277.351 534.57 278.106 533.696 278.383C533.273 278.516 532.822 278.521 532.442 278.37C532.057 278.22 531.792 277.918 531.635 277.625C531.317 277.018 531.369 276.451 531.412 276.102C531.467 275.744 531.535 275.557 531.553 275.56C531.577 275.565 531.549 275.762 531.532 276.113C531.524 276.457 531.517 276.992 531.825 277.515C531.977 277.771 532.213 278.015 532.533 278.128C532.851 278.244 533.239 278.234 533.609 278.11C534.366 277.862 534.982 277.142 535.666 276.464C537.024 275.088 538.21 273.798 539.061 272.857C539.912 271.917 540.437 271.331 540.471 271.359Z" fill="#F28A68"/>
<path d="M545.01 271.362C545.026 271.377 544.898 271.543 544.653 271.829C544.408 272.116 544.046 272.524 543.594 273.023C543.121 273.539 542.583 274.125 541.996 274.765C541.691 275.093 541.373 275.434 541.045 275.787C540.713 276.14 540.36 276.513 539.929 276.825C539.501 277.136 539.004 277.371 538.481 277.403C537.964 277.449 537.414 277.229 537.131 276.811C536.987 276.608 536.903 276.36 536.911 276.115C536.917 275.869 537.01 275.653 537.113 275.473C537.332 275.116 537.558 274.84 537.754 274.561C538.151 274.017 538.476 273.579 538.707 273.281C538.938 272.983 539.074 272.824 539.091 272.837C539.109 272.849 539.006 273.031 538.805 273.351C538.605 273.671 538.307 274.128 537.933 274.688C537.752 274.968 537.523 275.275 537.337 275.6C537.145 275.923 537.115 276.319 537.362 276.642C537.593 276.968 538.016 277.137 538.461 277.098C538.906 277.068 539.351 276.861 539.748 276.572C540.148 276.282 540.492 275.924 540.825 275.576C541.158 275.228 541.48 274.891 541.79 274.567C542.394 273.944 542.948 273.374 543.436 272.871C543.907 272.391 544.293 272.007 544.565 271.746C544.837 271.485 544.995 271.347 545.01 271.362Z" fill="#F28A68"/>
<path d="M476.17 317.166C480.352 316.328 483.58 312.704 485.02 308.66C486.46 304.617 486.385 300.194 486.002 295.915C485.953 295.363 485.865 294.748 485.429 294.41C484.796 293.919 483.887 294.319 483.205 294.738C480.567 296.357 478.035 298.151 475.631 300.104C473.392 301.923 471.173 304.018 470.314 306.783C468.995 311.025 471.785 316.092 476.055 317.211" fill="#28172F"/>
<path d="M520.165 265.845C511.571 264.778 502.919 264.728 494.451 265.695C492.487 265.919 490.406 266.256 489.025 267.594C487.564 269.009 487.219 271.215 486.944 273.275C486.609 275.781 486.274 278.287 485.94 280.793C485.54 281.384 485.1 281.946 484.633 282.467C482.492 284.859 479.816 286.756 477.852 289.299C475.888 291.841 474.709 295.374 476.077 298.482C476.905 300.362 478.53 301.801 479.688 303.516C481.651 306.425 482.177 309.954 483.255 313.246C484.333 316.537 486.384 320 489.711 321.004C491.297 321.483 492.975 321.331 494.575 321.742C496.968 322.356 498.921 324.139 500.771 325.835C502.622 327.53 504.626 329.277 507.037 329.783C509.449 330.288 512.295 328.972 512.453 326.571C510.629 327.395 508.273 327.07 506.605 325.762C505.234 324.688 504.391 323.096 503.229 321.798C500.382 318.615 495.626 317.18 493.714 313.4C492.202 310.409 493.008 306.963 493.892 303.886C494.658 301.217 495.443 298.319 494.762 295.6C494.841 295.184 494.896 294.761 494.918 294.333C495.063 291.533 494.075 288.406 495.504 286.071C497.394 282.984 502.443 283.126 504.352 280.05C505.461 278.263 505.21 275.793 506.412 274.07C507.542 272.449 509.682 271.88 511.702 271.671C513.722 271.461 515.841 271.495 517.655 270.67C519.469 269.845 520.881 267.798 520.165 265.845Z" fill="#28172F"/>
<path d="M524.895 323.209C524.899 323.212 524.869 323.247 524.805 323.313C524.731 323.388 524.636 323.483 524.519 323.601C524.257 323.846 523.829 324.173 523.204 324.503C522.571 324.822 521.721 325.117 520.662 325.256C519.607 325.395 518.331 325.372 516.958 325.007C515.587 324.67 514.126 323.922 512.915 322.8C511.682 321.703 510.61 320.348 509.216 319.172C508.517 318.595 507.705 318.087 506.797 317.83C505.886 317.559 504.937 317.633 504.014 317.803C503.086 317.965 502.144 318.217 501.095 318.19C500.042 318.174 498.965 317.762 498.047 317.18C497.116 316.601 496.316 315.899 495.546 315.211C494.778 314.519 494.024 313.824 493.376 313.067C492.727 312.315 492.175 311.494 491.892 310.624C491.589 309.756 491.63 308.869 491.867 308.105C492.097 307.333 492.474 306.653 492.827 305.998C493.185 305.345 493.499 304.698 493.783 304.06C494.337 302.781 494.74 301.539 495.029 300.381C495.603 298.062 495.728 296.092 495.744 294.73C495.753 294.048 495.738 293.515 495.72 293.153C495.714 292.985 495.709 292.849 495.706 292.742C495.704 292.649 495.705 292.602 495.71 292.602C495.715 292.602 495.723 292.651 495.734 292.744C495.745 292.851 495.759 292.987 495.777 293.157C495.813 293.52 495.846 294.057 495.854 294.743C495.871 296.114 495.777 298.1 495.224 300.441C494.946 301.61 494.551 302.864 494.002 304.158C493.721 304.802 493.408 305.459 493.053 306.116C492.704 306.773 492.337 307.447 492.118 308.192C491.894 308.933 491.861 309.762 492.149 310.584C492.42 311.408 492.95 312.198 493.585 312.931C494.219 313.669 494.964 314.356 495.73 315.044C496.497 315.73 497.287 316.419 498.185 316.978C499.074 317.539 500.08 317.921 501.067 317.937C502.057 317.965 502.986 317.723 503.927 317.559C504.859 317.388 505.873 317.307 506.844 317.599C507.812 317.876 508.663 318.416 509.378 319.01C510.802 320.221 511.863 321.578 513.069 322.661C514.25 323.766 515.649 324.492 516.99 324.835C518.329 325.203 519.58 325.238 520.621 325.115C521.665 324.992 522.509 324.716 523.142 324.415C524.402 323.79 524.858 323.171 524.895 323.209Z" fill="#28172F"/>
<path d="M470.138 296.838C470.138 296.838 469.979 296.642 469.737 296.24C469.505 295.836 469.221 295.206 469.082 294.377C468.935 293.549 468.977 292.528 469.323 291.441C469.682 290.364 470.333 289.205 471.425 288.219C472.496 287.221 473.918 286.364 475.543 285.617C477.163 284.859 478.989 284.205 480.821 283.393C482.635 282.571 484.508 281.585 485.906 280.075C486.611 279.329 487.135 278.435 487.55 277.475C487.965 276.513 488.272 275.485 488.62 274.456C488.965 273.426 489.351 272.412 489.917 271.501C490.47 270.586 491.25 269.801 492.212 269.267C493.17 268.731 494.269 268.422 495.38 268.291C496.492 268.15 497.617 268.167 498.711 268.266C500.906 268.464 502.962 269.021 504.874 269.466C506.786 269.924 508.578 270.301 510.213 270.416C511.847 270.548 513.292 270.355 514.47 270.016C515.641 269.661 516.547 269.157 517.152 268.623C517.763 268.093 518.105 267.571 518.291 267.2C518.471 266.826 518.541 266.617 518.556 266.622C518.556 266.622 518.508 266.839 518.344 267.225C518.173 267.607 517.842 268.147 517.234 268.697C516.632 269.252 515.721 269.777 514.537 270.151C513.349 270.508 511.881 270.716 510.223 270.594C508.568 270.489 506.759 270.118 504.843 269.668C502.926 269.23 500.88 268.686 498.719 268.498C497.641 268.403 496.536 268.389 495.452 268.53C494.367 268.661 493.303 268.963 492.38 269.481C491.455 269.998 490.706 270.752 490.167 271.645C489.616 272.533 489.235 273.532 488.892 274.558C488.544 275.582 488.236 276.615 487.814 277.591C487.393 278.564 486.852 279.485 486.129 280.247C484.692 281.791 482.789 282.782 480.96 283.604C479.112 284.416 477.286 285.06 475.671 285.806C474.051 286.54 472.641 287.378 471.576 288.352C470.494 289.312 469.843 290.442 469.475 291.496C469.121 292.561 469.063 293.561 469.19 294.376C469.448 296.025 470.203 296.827 470.138 296.838Z" fill="#542F64"/>
<path d="M471.658 301.452C471.658 301.452 471.017 300.909 470.087 299.758C469.634 299.181 469.099 298.436 468.773 297.484C468.615 297.011 468.527 296.478 468.623 295.946C468.713 295.413 468.999 294.901 469.452 294.5C470.387 293.7 471.87 293.436 473.408 293.412C474.182 293.4 474.984 293.426 475.793 293.388C476.599 293.35 477.423 293.246 478.151 292.933C478.873 292.612 479.477 292.096 479.94 291.459C480.41 290.826 480.759 290.094 481.122 289.352C481.485 288.609 481.854 287.842 482.378 287.142C482.887 286.436 483.62 285.834 484.534 285.5C485.447 285.165 486.444 285.064 487.412 285.007C488.381 284.951 489.34 284.935 490.249 284.819C492.087 284.625 493.575 283.769 494.722 282.751C495.884 281.733 496.762 280.572 497.621 279.515C498.476 278.454 499.322 277.486 500.253 276.74C501.171 275.984 502.186 275.477 503.157 275.208C504.128 274.935 505.045 274.889 505.791 274.958C506.54 275.034 507.118 275.213 507.487 275.372C507.859 275.529 508.039 275.643 508.039 275.643C508.033 275.655 507.843 275.558 507.471 275.419C507.1 275.276 506.529 275.115 505.795 275.056C505.064 275.004 504.17 275.064 503.223 275.344C502.275 275.622 501.293 276.126 500.397 276.881C499.489 277.624 498.662 278.588 497.817 279.653C496.968 280.713 496.092 281.888 494.915 282.928C494.33 283.448 493.666 283.931 492.899 284.311C492.138 284.699 491.254 284.954 490.323 285.066C489.392 285.186 488.428 285.203 487.467 285.259C486.508 285.317 485.54 285.417 484.671 285.737C483.802 286.056 483.112 286.619 482.616 287.302C482.109 287.979 481.742 288.735 481.378 289.476C481.012 290.217 480.657 290.959 480.17 291.611C479.691 292.267 479.053 292.812 478.287 293.147C477.515 293.474 476.659 293.577 475.838 293.612C475.014 293.646 474.209 293.615 473.442 293.623C471.927 293.636 470.489 293.89 469.6 294.638C469.168 295.012 468.892 295.49 468.8 295.992C468.702 296.493 468.778 297.003 468.924 297.462C469.226 298.387 469.739 299.13 470.174 299.71C470.617 300.29 471.001 300.718 471.263 301.007C471.386 301.141 471.485 301.25 471.563 301.335C471.63 301.41 471.662 301.449 471.658 301.452Z" fill="#542F64"/>
<path d="M520.952 285.159C521.841 285.159 522.562 285.94 522.562 286.901C522.562 287.863 521.841 288.644 520.952 288.644C520.064 288.644 519.343 287.863 519.343 286.901C519.343 285.94 520.064 285.159 520.952 285.159Z" fill="#312437"/>
</g>
<defs>
<clipPath id="clip0_2053_11175">
<rect width="960" height="552" fill="white"/>
</clipPath>
</defs>
</svg>
