<svg width="138" height="381" viewBox="0 0 138 381" fill="none" xmlns="http://www.w3.org/2000/svg">
<g clip-path="url(#clip0_2265_9583)">
<path d="M416.512 -232.518C429.402 -209.223 428.859 -174.403 415.217 -149.343L153.385 331.627C134.47 366.373 105.033 386.854 77.4981 376.012C71.954 373.829 66.8763 371.334 62.9641 368.522V368.522C43.6873 354.669 42.5667 315.375 57.205 289.391L349.214 -228.946C367.419 -261.261 399.661 -262.972 416.512 -232.518V-232.518Z" fill="#68BB9E"/>
<path d="M429.173 -296.29C440.807 -267.898 435.669 -228.306 416.832 -201.181L109.208 241.793C82.5195 280.224 43.07 297.624 16.5896 271.061C15.9729 270.443 15.3701 269.822 14.7827 269.199V269.199C-5.15085 248.069 -0.975908 202.16 19.5538 172.705L348.843 -299.754C374.408 -336.434 413.412 -334.752 429.173 -296.29V-296.29Z" fill="#A84FCE"/>
</g>
<defs>
<clipPath id="clip0_2265_9583">
<rect width="138" height="381" fill="white"/>
</clipPath>
</defs>
</svg>
