<svg width="138" height="381" viewBox="0 0 138 381" fill="none" xmlns="http://www.w3.org/2000/svg">
<g clip-path="url(#clip0_2265_9583)">
<path d="M-278.512 613.518C-291.402 590.223 -290.859 555.403 -277.217 530.343L-15.3851 49.3735C3.53028 14.627 32.9671 -5.85418 60.5019 4.98753C66.046 7.17052 71.1237 9.66606 75.0359 12.4776V12.4776C94.3127 26.331 95.4333 65.6252 80.795 91.6093L-211.214 609.946C-229.419 642.261 -261.661 643.972 -278.512 613.518V613.518Z" fill="#68BB9E"/>
<path d="M-291.173 677.29C-302.807 648.898 -297.669 609.306 -278.832 582.181L28.7921 139.207C55.4805 100.776 94.93 83.3759 121.41 109.939C122.027 110.557 122.63 111.178 123.217 111.801V111.801C143.151 132.931 138.976 178.84 118.446 208.295L-210.843 680.754C-236.408 717.434 -275.412 715.752 -291.173 677.29V677.29Z" fill="#A84FCE"/>
</g>
<defs>
<clipPath id="clip0_2265_9583">
<rect width="138" height="381" fill="white" transform="matrix(-1 0 0 -1 138 381)"/>
</clipPath>
</defs>
</svg>
