<svg width="107" height="308" viewBox="0 0 107 308" fill="none" xmlns="http://www.w3.org/2000/svg">
<g clip-path="url(#clip0_1559_1048)">
<path d="M-357.177 572.434C-367.422 547.86 -363.048 513.313 -346.728 489.908L-33.5095 40.7063C-10.8818 8.25487 20.632 -8.85909 46.805 4.94967C52.0749 7.73007 56.8468 10.7697 60.4255 13.9951V13.9951C78.059 29.8876 74.8445 69.0661 57.433 93.2797L-289.895 576.296C-311.549 606.409 -343.784 604.559 -357.177 572.434V572.434Z" fill="#68BB9E"/>
<path d="M-376.786 634.423C-385.221 604.923 -375.754 566.137 -354.043 541.252L0.503307 134.859C31.2626 99.6022 72.3887 86.6532 95.7821 115.971C96.3268 116.654 96.8576 117.337 97.3728 118.021V118.021C114.857 141.219 105.651 186.388 82.0016 213.403L-297.326 646.714C-326.776 680.355 -365.358 674.387 -376.786 634.423V634.423Z" fill="#A84FCE"/>
</g>
<defs>
<clipPath id="clip0_1559_1048">
<rect width="106.5" height="307.1" fill="white"/>
</clipPath>
</defs>
</svg>
