<svg width="105" height="304" viewBox="0 0 105 304" fill="none" xmlns="http://www.w3.org/2000/svg">
<g clip-path="url(#clip0_1559_1053)">
<path d="M467.482 569.343C477.503 544.678 472.815 510.171 456.283 486.915L138.989 40.583C116.067 8.33884 84.399 -8.48765 58.3527 5.55871C53.1083 8.38696 48.3643 11.4699 44.8151 14.7277V14.7277C27.3269 30.78 30.8979 69.9277 48.529 93.9818L400.238 573.818C422.165 603.732 454.381 601.589 467.482 569.343V569.343Z" fill="#68BB9E"/>
<path d="M487.654 631.151C495.821 601.575 486.001 562.878 464.065 538.191L105.835 135.042C74.7556 100.066 33.5134 87.4915 10.3878 117.021C9.84929 117.709 9.32477 118.397 8.81581 119.085V119.085C-8.45705 142.441 1.16006 187.525 25.0544 214.323L408.309 644.165C438.064 677.536 476.59 671.218 487.654 631.151V631.151Z" fill="#A84FCE"/>
</g>
<defs>
<clipPath id="clip0_1559_1053">
<rect width="105" height="304" fill="white" transform="matrix(1 0 0 -1 0 304)"/>
</clipPath>
</defs>
</svg>
