<svg width="218" height="168" viewBox="0 0 218 168" fill="none" xmlns="http://www.w3.org/2000/svg">
<g clip-path="url(#clip0_1542_1264)">
<path d="M638.611 -420.107C654.741 -369.309 634.118 -301.538 592.346 -268.074L141.222 93.3299C130.387 102.01 118.758 107.869 107.128 109.953C97.4548 111.686 85.6525 113.527 76.7148 114.048C66.5358 114.642 54.2485 112.065 42.9625 108.66C20.9824 102.029 6.73731 78.3289 2.43418 48.4223L2.11595 46.2105C-5.01915 -3.37834 16.9608 -60.3348 54.2691 -88.9332L532.653 -455.635C574.837 -487.971 621.794 -473.067 637.941 -422.217L638.611 -420.107Z" fill="#A84FCE"/>
<path d="M123.673 141.031C99.7467 112.334 100.31 58.5355 124.862 27.5951L479.052 -418.767C511.698 -459.909 560.178 -456.817 587.334 -411.862V-411.862C608.589 -376.675 611.037 -325 591.593 -285.039C527.545 -153.404 374.454 126.799 217.21 161.049C212.389 162.099 207.956 163.149 203.88 164.189C177.503 170.922 143.604 164.934 123.673 141.031V141.031Z" fill="#4C9F84"/>
</g>
<defs>
<clipPath id="clip0_1542_1264">
<rect width="217" height="166.5" fill="white" transform="translate(0.714844 0.546875)"/>
</clipPath>
</defs>
</svg>
