<svg width="100" height="100" viewBox="0 0 100 100" fill="none" xmlns="http://www.w3.org/2000/svg">
<g clip-path="url(#clip0_2060_12525)">
<path d="M26.875 73.125C28.125 74.375 29.375 75 31.25 75C33.125 75 34.375 74.375 35.625 73.125L50 58.75L64.375 73.125C65.625 74.375 67.5 75 68.75 75C70 75 71.875 74.375 73.125 73.125C75.625 70.625 75.625 66.875 73.125 64.375L58.75 50L73.125 35.625C75.625 33.125 75.625 29.375 73.125 26.875C70.625 24.375 66.875 24.375 64.375 26.875L50 41.25L35.625 26.875C33.125 24.375 29.375 24.375 26.875 26.875C24.375 29.375 24.375 33.125 26.875 35.625L41.25 50L26.875 64.375C24.375 66.875 24.375 70.625 26.875 73.125Z" fill="#B81F1E"/>
<path d="M50 100C77.7778 100 100 77.7778 100 50C100 22.2222 77.7778 0 50 0C22.2222 0 0 22.2222 0 50C0 77.7778 22.2222 100 50 100ZM50 11.1111C71.6667 11.1111 88.8889 28.3333 88.8889 50C88.8889 71.6667 71.6667 88.8889 50 88.8889C28.3333 88.8889 11.1111 71.6667 11.1111 50C11.1111 28.3333 28.3333 11.1111 50 11.1111Z" fill="#B81F1E"/>
</g>
<defs>
<clipPath id="clip0_2060_12525">
<rect width="100" height="100" fill="white"/>
</clipPath>
</defs>
</svg>
