<svg  viewBox="0 0 117 314" fill="none" xmlns="http://www.w3.org/2000/svg">
<g clip-path="url(#clip0_1858_2525)">
<path d="M473.632 564.053C483.317 539.253 478.161 504.814 461.315 481.784L137.994 39.7986C114.637 7.86845 82.7432 -8.52676 56.89 5.8717C51.6844 8.77085 46.9827 11.9179 43.478 15.2236C26.2092 31.5117 30.3111 70.6073 48.2669 94.4199L406.455 569.439C428.785 599.054 460.97 596.473 473.632 564.053Z" fill="#68BB9E"/>
<path d="M494.64 625.582C502.405 595.898 492.061 557.337 469.792 532.95L106.124 134.699C74.5734 100.148 33.1644 88.1344 10.4416 117.975C9.91242 118.67 9.39731 119.365 8.89775 120.06C-8.05659 143.649 2.17136 188.597 26.4271 215.069L415.48 639.671C445.684 672.636 484.121 665.795 494.64 625.582Z" fill="#A84FCE"/>
</g>
<defs>
<clipPath id="clip0_1858_2525">
<rect width="117" height="313.6" fill="white" transform="matrix(-1 0 0 1 117 0.399902)"/>
</clipPath>
</defs>
</svg>
