<svg  viewBox="0 0 117 314" fill="none" xmlns="http://www.w3.org/2000/svg">
<g clip-path="url(#clip0_1858_2521)">
<path d="M-356.632 564.053C-366.317 539.253 -361.161 504.814 -344.315 481.784L-20.9943 39.7986C2.3632 7.86845 34.2568 -8.52676 60.11 5.8717C65.3156 8.77085 70.0173 11.9179 73.522 15.2236C90.7908 31.5117 86.6889 70.6073 68.7331 94.4199L-289.455 569.439C-311.785 599.054 -343.97 596.473 -356.632 564.053Z" fill="#68BB9E"/>
<path d="M-377.64 625.582C-385.405 595.898 -375.061 557.337 -352.792 532.95L10.876 134.699C42.4266 100.148 83.8356 88.1344 106.558 117.975C107.088 118.67 107.603 119.365 108.102 120.06C125.057 143.649 114.829 188.597 90.5729 215.069L-298.48 639.671C-328.684 672.636 -367.121 665.795 -377.64 625.582Z" fill="#A84FCE"/>
</g>
<defs>
<clipPath id="clip0_1858_2521">
<rect width="117" height="313.6" fill="white" transform="translate(0 0.399902)"/>
</clipPath>
</defs>
</svg>
