<svg  viewBox="0 0 610 549" fill="none" xmlns="http://www.w3.org/2000/svg">
<path d="M434.796 143.684C434.796 143.684 385.679 95.2516 307.916 97.5683C230.153 99.8851 163.822 146.814 108.983 183.531C54.1436 220.248 39.4426 277.278 71.3212 321.802C103.2 366.326 154.001 347.583 218.673 376.482C283.345 405.382 295.63 421.797 367.671 414.77C439.712 407.742 494.551 335.867 486.377 259.304C478.203 182.74 434.796 143.684 434.796 143.684Z" fill="#7B1FA2"/>
<path opacity="0.7" d="M434.796 143.684C434.796 143.684 385.679 95.2516 307.916 97.5683C230.153 99.8851 163.822 146.814 108.983 183.531C54.1436 220.248 39.4426 277.278 71.3212 321.802C103.2 366.326 154.001 347.583 218.673 376.482C283.345 405.382 295.63 421.797 367.671 414.77C439.712 407.742 494.551 335.867 486.377 259.304C478.203 182.74 434.796 143.684 434.796 143.684Z" fill="white"/>
<path d="M314.296 442.79C448.057 442.79 556.491 437.467 556.491 430.899C556.491 424.332 448.057 419.008 314.296 419.008C180.536 419.008 72.1021 424.332 72.1021 430.899C72.1021 437.467 180.536 442.79 314.296 442.79Z" fill="#7B1FA2"/>
<path opacity="0.3" d="M314.296 442.79C448.057 442.79 556.491 437.467 556.491 430.899C556.491 424.332 448.057 419.008 314.296 419.008C180.536 419.008 72.1021 424.332 72.1021 430.899C72.1021 437.467 180.536 442.79 314.296 442.79Z" fill="white"/>
<path d="M457.427 251.662C457.353 251.662 458.268 247.566 458.366 247.27C459.415 244.349 463.368 239.254 467.187 239.265C467.821 239.281 468.445 239.418 469.018 239.666C469.59 239.913 470.099 240.266 470.509 240.702C470.92 241.138 471.224 241.647 471.402 242.196C471.58 242.745 471.628 243.321 471.542 243.888C471.261 246.314 468.846 248.368 466.662 249.564C464.1 251.003 457.427 251.662 457.427 251.662Z" fill="#88C0B2" fill-opacity="0.6"/>
<path d="M450.021 224.091C453.62 225.255 455.414 231.25 455.292 234.324C455.292 234.588 454.608 238.716 454.547 238.716H454.474C454.755 239.66 455.06 240.682 455.365 241.791C455.902 243.855 456.487 246.183 456.939 248.774C457.462 251.553 457.804 254.358 457.963 257.173C458.158 260.324 458.039 263.484 457.61 266.616C457.603 266.653 457.603 266.69 457.61 266.726C458.085 265.815 459.488 263.289 459.623 263.103C461.501 260.533 466.796 256.515 470.493 257.481C471.099 257.649 471.659 257.93 472.136 258.305C472.614 258.68 472.998 259.142 473.265 259.659C473.532 260.177 473.675 260.739 473.685 261.31C473.695 261.88 473.572 262.446 473.323 262.971C472.347 265.233 469.419 266.649 466.967 267.275C464.198 267.989 458.024 267.143 457.536 267.077C457.016 270.253 456.258 273.393 455.267 276.476C454.698 278.277 454.08 280.078 453.413 281.878C453.84 281.099 454.242 280.407 454.303 280.308C456.182 277.739 461.477 273.72 465.174 274.676C465.781 274.842 466.342 275.122 466.82 275.497C467.299 275.872 467.684 276.334 467.951 276.852C468.219 277.37 468.361 277.933 468.37 278.504C468.379 279.075 468.255 279.641 468.004 280.166C467.028 282.438 464.1 283.844 461.648 284.481C459.196 285.118 453.876 284.481 452.486 284.316C452.229 284.997 451.973 285.689 451.705 286.369C450.485 289.663 449.167 292.957 448.045 296.185C447.642 297.283 447.288 298.469 446.935 299.611C447.325 298.919 447.654 298.338 447.715 298.261C449.582 295.691 454.889 291.673 458.573 292.628C459.179 292.796 459.739 293.077 460.217 293.452C460.695 293.827 461.08 294.288 461.348 294.805C461.616 295.323 461.76 295.885 461.772 296.455C461.784 297.026 461.662 297.592 461.416 298.118C460.44 300.38 457.5 301.796 455.048 302.422C452.595 303.048 447.801 302.499 446.142 302.29C445.812 303.476 445.495 304.651 445.239 305.804C445.08 306.594 444.873 307.352 444.763 308.154C444.653 308.955 444.519 309.735 444.397 310.503C444.226 312.008 444.031 313.567 443.909 315.038C443.811 316.059 443.738 317.036 443.665 318.014C444.043 316.916 444.885 314.654 444.946 314.467C446.301 312.054 448.316 309.99 450.802 308.472C450.937 308.197 451.105 307.936 451.302 307.692C451.648 307.213 452.102 306.805 452.634 306.494C453.167 306.183 453.766 305.976 454.393 305.887C455.02 305.798 455.661 305.829 456.274 305.977C456.887 306.125 457.458 306.388 457.951 306.748C460.855 308.944 460.123 315.181 458.793 318.014C458.72 318.178 457.634 319.902 456.939 320.978C457.463 320.407 457.951 319.88 458.5 319.243C459.562 318.08 460.66 316.938 461.831 315.708L463.624 313.962C464.21 313.358 464.917 312.798 465.564 312.216C467.089 310.888 468.712 309.603 470.383 308.34C469.236 307.506 465.247 304.464 464.1 302.4C462.953 300.336 462.136 297.448 463.331 295.274C463.593 294.752 463.974 294.285 464.449 293.904C464.925 293.523 465.484 293.237 466.091 293.064C466.698 292.891 467.338 292.835 467.97 292.9C468.603 292.965 469.213 293.149 469.761 293.44C472.994 295.263 473.323 301.467 472.481 304.42C472.481 304.607 471.554 306.682 471.054 307.813C472.067 307.067 473.067 306.309 474.116 305.617C477.142 303.509 480.277 301.467 483.388 299.414L486.231 297.514C485.828 297.218 480.997 293.704 479.704 291.398C478.569 289.345 477.74 286.446 478.935 284.261C479.198 283.74 479.58 283.275 480.056 282.895C480.531 282.515 481.09 282.229 481.696 282.056C482.303 281.884 482.942 281.827 483.574 281.891C484.206 281.955 484.816 282.138 485.365 282.427C488.598 284.261 488.927 290.465 488.085 293.407C488.024 293.638 486.768 296.625 486.402 297.371C488.488 295.966 490.55 294.56 492.502 293.1C495.174 291.136 497.701 289.016 500.066 286.754C499.883 286.622 494.82 282.976 493.502 280.605C492.355 278.552 491.538 275.653 492.733 273.479C492.994 272.957 493.373 272.49 493.848 272.11C494.322 271.729 494.88 271.443 495.486 271.269C496.092 271.096 496.731 271.04 497.363 271.105C497.994 271.17 498.604 271.354 499.151 271.645C502.396 273.468 502.725 279.672 501.883 282.625C501.822 282.812 500.871 285.096 500.383 286.172L500.578 286.27C502.892 283.938 504.97 281.425 506.788 278.76C507.8 277.311 508.691 275.872 509.521 274.445C508.496 273.852 503.872 271.151 502.42 269.087C500.968 267.023 499.87 264.365 500.785 262.082C500.983 261.544 501.302 261.05 501.724 260.629C502.145 260.209 502.659 259.873 503.233 259.641C503.807 259.41 504.428 259.289 505.057 259.285C505.686 259.282 506.309 259.397 506.885 259.622C510.338 261.115 511.412 267.253 510.936 270.295C510.936 270.459 510.448 272.117 510.094 273.325C510.448 272.677 510.838 272.018 511.168 271.393C512.388 269.043 513.425 266.825 514.279 264.805C514.767 263.707 515.169 262.609 515.499 261.697C514.828 260.599 512.217 256.372 511.961 254.011C511.704 251.651 512.119 248.752 514.108 247.105C514.561 246.704 515.104 246.394 515.699 246.195C516.295 245.996 516.93 245.911 517.564 245.948C518.198 245.984 518.817 246.14 519.379 246.405C519.942 246.671 520.436 247.04 520.83 247.489C523.124 250.245 520.94 256.13 518.963 258.645C518.793 258.853 515.682 261.939 515.645 261.939V261.873C515.303 262.806 514.937 263.805 514.498 264.881C513.693 266.869 512.741 269.12 511.546 271.469C510.272 274.045 508.834 276.553 507.239 278.98C505.463 281.699 503.421 284.271 501.139 286.666L501.054 286.754C502.005 286.216 504.714 284.821 504.946 284.733C508.093 283.526 514.95 282.834 517.463 285.436C517.866 285.878 518.161 286.39 518.33 286.941C518.498 287.492 518.537 288.069 518.442 288.634C518.348 289.199 518.123 289.739 517.782 290.221C517.441 290.703 516.991 291.115 516.462 291.431C514.254 292.837 510.936 292.529 508.508 291.859C505.763 291.08 501.188 287.314 500.761 287.017C498.382 289.406 495.826 291.647 493.112 293.726C491.526 294.956 489.903 296.142 488.232 297.305C489.073 296.877 489.83 296.493 489.94 296.449C493.075 295.241 499.931 294.549 502.445 297.152C502.849 297.593 503.146 298.105 503.316 298.656C503.486 299.207 503.525 299.785 503.43 300.35C503.336 300.916 503.11 301.457 502.768 301.939C502.426 302.421 501.975 302.832 501.444 303.147C499.248 304.552 495.93 304.245 493.502 303.575C491.074 302.905 487.012 299.743 485.962 298.897L484.047 300.226C480.973 302.345 477.947 304.442 474.958 306.583C473.921 307.341 472.933 308.121 471.932 308.889C472.689 308.505 473.311 308.187 473.421 308.154C476.556 306.935 483.413 306.254 485.926 308.845C486.332 309.286 486.631 309.798 486.801 310.35C486.972 310.901 487.012 311.479 486.917 312.045C486.823 312.611 486.597 313.152 486.253 313.634C485.91 314.116 485.458 314.527 484.925 314.84C482.717 316.246 479.411 315.938 476.983 315.28C474.555 314.621 470.883 311.744 469.663 310.745C468.675 311.568 467.675 312.381 466.76 313.226C466.137 313.808 465.54 314.324 464.93 314.95C464.32 315.576 463.71 316.136 463.173 316.729C462.111 317.893 461.001 319.101 459.989 320.265C459.281 321.066 458.622 321.846 457.963 322.625C458.976 321.868 461.026 320.429 461.209 320.308C464.1 318.683 470.761 317.069 473.689 319.287C474.162 319.67 474.54 320.139 474.799 320.662C475.058 321.185 475.192 321.751 475.192 322.323C475.192 322.896 475.058 323.462 474.799 323.985C474.54 324.508 474.162 324.976 473.689 325.359C471.749 327.039 468.431 327.226 465.918 326.875C463.136 326.479 458.11 323.581 457.488 323.163C456.39 324.459 455.34 325.733 454.364 326.951C450.985 331.157 448.35 334.769 446.544 337.327L446.361 337.58L444.019 336.559C444.141 336.394 444.263 336.24 444.385 336.065C446.276 333.517 449.033 329.916 452.547 325.733C453.657 324.415 454.865 323.021 456.121 321.593C454.813 320.313 453.591 318.963 452.461 317.553C449.765 318.497 444.165 318.541 443.445 318.541C443.336 320.166 443.238 321.747 443.165 323.24C442.921 328.434 442.945 332.76 443.006 335.779V336.142L440.432 335.044C440.432 332.046 440.566 327.973 440.908 323.174C441.018 321.516 441.176 319.749 441.359 317.948C440.639 317.783 434.82 316.433 432.624 314.851C430.635 313.424 428.537 311.096 428.61 308.67C428.603 308.097 428.731 307.53 428.985 307.005C429.239 306.48 429.613 306.01 430.083 305.624C430.553 305.239 431.108 304.947 431.712 304.768C432.316 304.588 432.955 304.526 433.588 304.585C437.382 305.024 440.554 310.536 441.188 313.556C441.188 313.731 441.384 315.752 441.457 316.96C441.542 316.213 441.603 315.499 441.689 314.764C441.859 313.259 442.079 311.755 442.311 310.141C442.445 309.372 442.591 308.593 442.726 307.802C442.86 307.012 443.092 306.199 443.275 305.387C443.738 303.52 444.299 301.643 444.922 299.765C443.458 299.622 438.273 299.073 436.04 297.931C433.807 296.789 431.367 294.769 431.038 292.364C430.934 291.799 430.964 291.22 431.126 290.666C431.288 290.112 431.579 289.595 431.979 289.149C432.378 288.704 432.878 288.339 433.446 288.079C434.013 287.82 434.636 287.671 435.271 287.643C439.09 287.555 443.165 292.573 444.287 295.472C444.36 295.658 444.909 297.821 445.178 299.018C445.568 297.92 445.934 296.756 446.398 295.636C447.618 292.342 448.996 289.114 450.338 285.853C450.753 284.854 451.144 283.855 451.558 282.867C451.034 282.867 444.848 282.285 442.36 281C440.151 279.902 437.687 277.838 437.345 275.433C437.245 274.868 437.278 274.291 437.442 273.738C437.606 273.186 437.896 272.67 438.295 272.225C438.694 271.78 439.193 271.415 439.759 271.155C440.324 270.894 440.944 270.743 441.579 270.712C445.41 270.624 449.484 275.642 450.607 278.541C450.692 278.76 451.473 281.835 451.632 282.68C452.51 280.484 453.376 278.288 454.072 276.092C455.103 273.127 455.918 270.105 456.512 267.045C456.268 267.045 449.802 266.496 447.264 265.178C445.044 264.08 442.579 262.016 442.25 259.611C442.15 259.046 442.183 258.469 442.346 257.916C442.51 257.364 442.801 256.848 443.2 256.403C443.599 255.958 444.097 255.593 444.663 255.333C445.229 255.072 445.849 254.921 446.483 254.89C450.302 254.813 454.377 259.82 455.499 262.718C455.572 262.916 456.17 265.288 456.426 266.419H456.646C457.149 263.326 457.345 260.199 457.231 257.075C457.231 255.351 457.048 253.715 456.865 252.112C455.645 252.112 450.107 252.112 447.667 251.167C445.227 250.223 442.628 248.488 441.994 246.128C441.824 245.575 441.787 244.996 441.883 244.429C441.98 243.862 442.209 243.32 442.554 242.838C442.9 242.356 443.354 241.945 443.888 241.632C444.423 241.319 445.024 241.111 445.654 241.022C449.448 240.561 454.108 245.139 455.584 247.917C455.658 248.071 456.292 249.685 456.719 250.86C456.634 250.146 456.548 249.4 456.438 248.719C456.06 246.139 455.523 243.789 455.035 241.725C454.743 240.55 454.462 239.529 454.181 238.507C452.961 237.958 448.179 235.697 446.532 233.863C444.885 232.029 443.445 229.405 444.092 227.044C444.231 226.482 444.502 225.952 444.886 225.49C445.269 225.029 445.758 224.646 446.318 224.366C446.878 224.087 447.498 223.918 448.137 223.871C448.775 223.823 449.417 223.898 450.021 224.091Z" fill="#88C0B2" fill-opacity="0.6"/>
<path d="M519.171 277.157C516.182 277.047 510.204 274.291 510.204 274.28C510.204 274.269 513.413 271.294 513.644 271.129C516.316 269.208 522.733 266.924 525.918 268.823C526.437 269.154 526.873 269.578 527.198 270.07C527.524 270.562 527.73 271.11 527.805 271.678C527.88 272.247 527.821 272.823 527.632 273.369C527.444 273.916 527.13 274.421 526.711 274.851C525.003 276.696 521.721 277.245 519.171 277.157Z" fill="#88C0B2" fill-opacity="0.6"/>
<g opacity="0.5">
<path d="M457.427 251.662C457.353 251.662 458.268 247.566 458.366 247.27C459.415 244.349 463.368 239.254 467.187 239.265C467.821 239.281 468.445 239.418 469.018 239.666C469.59 239.913 470.099 240.266 470.509 240.702C470.92 241.138 471.224 241.647 471.402 242.196C471.58 242.745 471.628 243.321 471.542 243.888C471.261 246.314 468.846 248.368 466.662 249.564C464.1 251.003 457.427 251.662 457.427 251.662Z" fill="white"/>
<path d="M450.021 224.091C453.62 225.255 455.414 231.25 455.292 234.324C455.292 234.588 454.608 238.716 454.547 238.716H454.474C454.755 239.66 455.06 240.682 455.365 241.791C455.902 243.855 456.487 246.183 456.939 248.774C457.462 251.553 457.804 254.358 457.963 257.173C458.158 260.324 458.039 263.484 457.61 266.616C457.603 266.653 457.603 266.69 457.61 266.726C458.085 265.815 459.488 263.289 459.623 263.103C461.501 260.533 466.796 256.515 470.493 257.481C471.099 257.649 471.659 257.93 472.136 258.305C472.614 258.68 472.998 259.142 473.265 259.659C473.532 260.177 473.675 260.739 473.685 261.31C473.695 261.88 473.572 262.446 473.323 262.971C472.347 265.233 469.419 266.649 466.967 267.275C464.198 267.989 458.024 267.143 457.536 267.077C457.016 270.253 456.258 273.393 455.267 276.476C454.698 278.277 454.08 280.078 453.413 281.878C453.84 281.099 454.242 280.407 454.303 280.308C456.182 277.739 461.477 273.72 465.174 274.676C465.781 274.842 466.342 275.122 466.82 275.497C467.299 275.872 467.684 276.334 467.951 276.852C468.219 277.37 468.361 277.933 468.37 278.504C468.379 279.075 468.255 279.641 468.004 280.166C467.028 282.438 464.1 283.844 461.648 284.481C459.196 285.118 453.876 284.481 452.486 284.316C452.229 284.997 451.973 285.689 451.705 286.369C450.485 289.663 449.167 292.957 448.045 296.185C447.642 297.283 447.288 298.469 446.935 299.611C447.325 298.919 447.654 298.338 447.715 298.261C449.582 295.691 454.889 291.673 458.573 292.628C459.179 292.796 459.739 293.077 460.217 293.452C460.695 293.827 461.08 294.288 461.348 294.805C461.616 295.323 461.76 295.885 461.772 296.455C461.784 297.026 461.662 297.592 461.416 298.118C460.44 300.38 457.5 301.796 455.048 302.422C452.595 303.048 447.801 302.499 446.142 302.29C445.812 303.476 445.495 304.651 445.239 305.804C445.08 306.594 444.873 307.352 444.763 308.154C444.653 308.955 444.519 309.735 444.397 310.503C444.226 312.008 444.031 313.567 443.909 315.038C443.811 316.059 443.738 317.036 443.665 318.014C444.043 316.916 444.885 314.654 444.946 314.467C446.301 312.054 448.316 309.99 450.802 308.472C450.937 308.197 451.105 307.936 451.302 307.692C451.648 307.213 452.102 306.805 452.634 306.494C453.167 306.183 453.766 305.976 454.393 305.887C455.02 305.798 455.661 305.829 456.274 305.977C456.887 306.125 457.458 306.388 457.951 306.748C460.855 308.944 460.123 315.181 458.793 318.014C458.72 318.178 457.634 319.902 456.939 320.978C457.463 320.407 457.951 319.88 458.5 319.243C459.562 318.08 460.66 316.938 461.831 315.708L463.624 313.962C464.21 313.358 464.917 312.798 465.564 312.216C467.089 310.888 468.712 309.603 470.383 308.34C469.236 307.506 465.247 304.464 464.1 302.4C462.953 300.336 462.136 297.448 463.331 295.274C463.593 294.752 463.974 294.285 464.449 293.904C464.925 293.523 465.484 293.237 466.091 293.064C466.698 292.891 467.338 292.835 467.97 292.9C468.603 292.965 469.213 293.149 469.761 293.44C472.994 295.263 473.323 301.467 472.481 304.42C472.481 304.607 471.554 306.682 471.054 307.813C472.067 307.067 473.067 306.309 474.116 305.617C477.142 303.509 480.277 301.467 483.388 299.414L486.231 297.514C485.828 297.218 480.997 293.704 479.704 291.398C478.569 289.345 477.74 286.446 478.935 284.261C479.198 283.74 479.58 283.275 480.056 282.895C480.531 282.515 481.09 282.229 481.696 282.056C482.303 281.884 482.942 281.827 483.574 281.891C484.206 281.955 484.816 282.138 485.365 282.427C488.598 284.261 488.927 290.465 488.085 293.407C488.024 293.638 486.768 296.625 486.402 297.371C488.488 295.966 490.55 294.56 492.502 293.1C495.174 291.136 497.701 289.016 500.066 286.754C499.883 286.622 494.82 282.976 493.502 280.605C492.355 278.552 491.538 275.653 492.733 273.479C492.994 272.957 493.373 272.49 493.848 272.11C494.322 271.729 494.88 271.443 495.486 271.269C496.092 271.096 496.731 271.04 497.363 271.105C497.994 271.17 498.604 271.354 499.151 271.645C502.396 273.468 502.725 279.672 501.883 282.625C501.822 282.812 500.871 285.096 500.383 286.172L500.578 286.27C502.892 283.938 504.97 281.425 506.788 278.76C507.8 277.311 508.691 275.872 509.521 274.445C508.496 273.852 503.872 271.151 502.42 269.087C500.968 267.023 499.87 264.365 500.785 262.082C500.983 261.544 501.302 261.05 501.724 260.629C502.145 260.209 502.659 259.873 503.233 259.641C503.807 259.41 504.428 259.289 505.057 259.285C505.686 259.282 506.309 259.397 506.885 259.622C510.338 261.115 511.412 267.253 510.936 270.295C510.936 270.459 510.448 272.117 510.094 273.325C510.448 272.677 510.838 272.018 511.168 271.393C512.388 269.043 513.425 266.825 514.279 264.805C514.767 263.707 515.169 262.609 515.499 261.697C514.828 260.599 512.217 256.372 511.961 254.011C511.704 251.651 512.119 248.752 514.108 247.105C514.561 246.704 515.104 246.394 515.699 246.195C516.295 245.996 516.93 245.911 517.564 245.948C518.198 245.984 518.817 246.14 519.379 246.405C519.942 246.671 520.436 247.04 520.83 247.489C523.124 250.245 520.94 256.13 518.963 258.645C518.793 258.853 515.682 261.939 515.645 261.939V261.873C515.303 262.806 514.937 263.805 514.498 264.881C513.693 266.869 512.741 269.12 511.546 271.469C510.272 274.045 508.834 276.553 507.239 278.98C505.463 281.699 503.421 284.271 501.139 286.666L501.054 286.754C502.005 286.216 504.714 284.821 504.946 284.733C508.093 283.526 514.95 282.834 517.463 285.436C517.866 285.878 518.161 286.39 518.33 286.941C518.498 287.492 518.537 288.069 518.442 288.634C518.348 289.199 518.123 289.739 517.782 290.221C517.441 290.703 516.991 291.115 516.462 291.431C514.254 292.837 510.936 292.529 508.508 291.859C505.763 291.08 501.188 287.314 500.761 287.017C498.382 289.406 495.826 291.647 493.112 293.726C491.526 294.956 489.903 296.142 488.232 297.305C489.073 296.877 489.83 296.493 489.94 296.449C493.075 295.241 499.931 294.549 502.445 297.152C502.849 297.593 503.146 298.105 503.316 298.656C503.486 299.207 503.525 299.785 503.43 300.35C503.336 300.916 503.11 301.457 502.768 301.939C502.426 302.421 501.975 302.832 501.444 303.147C499.248 304.552 495.93 304.245 493.502 303.575C491.074 302.905 487.012 299.743 485.962 298.897L484.047 300.226C480.973 302.345 477.947 304.442 474.958 306.583C473.921 307.341 472.933 308.121 471.932 308.889C472.689 308.505 473.311 308.187 473.421 308.154C476.556 306.935 483.413 306.254 485.926 308.845C486.332 309.286 486.631 309.798 486.801 310.35C486.972 310.901 487.012 311.479 486.917 312.045C486.823 312.611 486.597 313.152 486.253 313.634C485.91 314.116 485.458 314.527 484.925 314.84C482.717 316.246 479.411 315.938 476.983 315.28C474.555 314.621 470.883 311.744 469.663 310.745C468.675 311.568 467.675 312.381 466.76 313.226C466.137 313.808 465.54 314.324 464.93 314.95C464.32 315.576 463.71 316.136 463.173 316.729C462.111 317.893 461.001 319.101 459.989 320.265C459.281 321.066 458.622 321.846 457.963 322.625C458.976 321.868 461.026 320.429 461.209 320.308C464.1 318.683 470.761 317.069 473.689 319.287C474.162 319.67 474.54 320.139 474.799 320.662C475.058 321.185 475.192 321.751 475.192 322.323C475.192 322.896 475.058 323.462 474.799 323.985C474.54 324.508 474.162 324.976 473.689 325.359C471.749 327.039 468.431 327.226 465.918 326.875C463.136 326.479 458.11 323.581 457.488 323.163C456.39 324.459 455.34 325.733 454.364 326.951C450.985 331.157 448.35 334.769 446.544 337.327L446.361 337.58L444.019 336.559C444.141 336.394 444.263 336.24 444.385 336.065C446.276 333.517 449.033 329.916 452.547 325.733C453.657 324.415 454.865 323.021 456.121 321.593C454.813 320.313 453.591 318.963 452.461 317.553C449.765 318.497 444.165 318.541 443.445 318.541C443.336 320.166 443.238 321.747 443.165 323.24C442.921 328.434 442.945 332.76 443.006 335.779V336.142L440.432 335.044C440.432 332.046 440.566 327.973 440.908 323.174C441.018 321.516 441.176 319.749 441.359 317.948C440.639 317.783 434.82 316.433 432.624 314.851C430.635 313.424 428.537 311.096 428.61 308.67C428.603 308.097 428.731 307.53 428.985 307.005C429.239 306.48 429.613 306.01 430.083 305.624C430.553 305.239 431.108 304.947 431.712 304.768C432.316 304.588 432.955 304.526 433.588 304.585C437.382 305.024 440.554 310.536 441.188 313.556C441.188 313.731 441.384 315.752 441.457 316.96C441.542 316.213 441.603 315.499 441.689 314.764C441.859 313.259 442.079 311.755 442.311 310.141C442.445 309.372 442.591 308.593 442.726 307.802C442.86 307.012 443.092 306.199 443.275 305.387C443.738 303.52 444.299 301.643 444.922 299.765C443.458 299.622 438.273 299.073 436.04 297.931C433.807 296.789 431.367 294.769 431.038 292.364C430.934 291.799 430.964 291.22 431.126 290.666C431.288 290.112 431.579 289.595 431.979 289.149C432.378 288.704 432.878 288.339 433.446 288.079C434.013 287.82 434.636 287.671 435.271 287.643C439.09 287.555 443.165 292.573 444.287 295.472C444.36 295.658 444.909 297.821 445.178 299.018C445.568 297.92 445.934 296.756 446.398 295.636C447.618 292.342 448.996 289.114 450.338 285.853C450.753 284.854 451.144 283.855 451.558 282.867C451.034 282.867 444.848 282.285 442.36 281C440.151 279.902 437.687 277.838 437.345 275.433C437.245 274.868 437.278 274.291 437.442 273.738C437.606 273.186 437.896 272.67 438.295 272.225C438.694 271.78 439.193 271.415 439.759 271.155C440.324 270.894 440.944 270.743 441.579 270.712C445.41 270.624 449.484 275.642 450.607 278.541C450.692 278.76 451.473 281.835 451.632 282.68C452.51 280.484 453.376 278.288 454.072 276.092C455.103 273.127 455.918 270.105 456.512 267.045C456.268 267.045 449.802 266.496 447.264 265.178C445.044 264.08 442.579 262.016 442.25 259.611C442.15 259.046 442.183 258.469 442.346 257.916C442.51 257.364 442.801 256.848 443.2 256.403C443.599 255.958 444.097 255.593 444.663 255.333C445.229 255.072 445.849 254.921 446.483 254.89C450.302 254.813 454.377 259.82 455.499 262.718C455.572 262.916 456.17 265.288 456.426 266.419H456.646C457.149 263.326 457.345 260.199 457.231 257.075C457.231 255.351 457.048 253.715 456.865 252.112C455.645 252.112 450.107 252.112 447.667 251.167C445.227 250.223 442.628 248.488 441.994 246.128C441.824 245.575 441.787 244.996 441.883 244.429C441.98 243.862 442.209 243.32 442.554 242.838C442.9 242.356 443.354 241.945 443.888 241.632C444.423 241.319 445.024 241.111 445.654 241.022C449.448 240.561 454.108 245.139 455.584 247.917C455.658 248.071 456.292 249.685 456.719 250.86C456.634 250.146 456.548 249.4 456.438 248.719C456.06 246.139 455.523 243.789 455.035 241.725C454.743 240.55 454.462 239.529 454.181 238.507C452.961 237.958 448.179 235.697 446.532 233.863C444.885 232.029 443.445 229.405 444.092 227.044C444.231 226.482 444.502 225.952 444.886 225.49C445.269 225.029 445.758 224.646 446.318 224.366C446.878 224.087 447.498 223.918 448.137 223.871C448.775 223.823 449.417 223.898 450.021 224.091Z" fill="white"/>
<path d="M519.171 277.157C516.182 277.047 510.204 274.291 510.204 274.28C510.204 274.269 513.413 271.294 513.644 271.129C516.316 269.208 522.733 266.924 525.918 268.823C526.437 269.154 526.873 269.578 527.198 270.07C527.524 270.562 527.73 271.11 527.805 271.678C527.88 272.247 527.821 272.823 527.632 273.369C527.444 273.916 527.13 274.421 526.711 274.851C525.003 276.696 521.721 277.245 519.171 277.157Z" fill="white"/>
</g>
<path d="M484.267 344.53C484.267 344.53 466.125 305.167 455.975 306.88C445.825 308.593 473.36 369.62 473.36 369.62C473.36 369.62 441.445 315.433 419.68 315.433C397.915 315.433 427.659 375.329 455.219 395.291C455.219 395.291 411.701 353.084 386.313 362.208C360.925 371.333 437.089 414.111 437.089 414.111C437.089 414.111 392.84 401.561 397.915 411.256C402.99 420.951 416.776 422.664 416.776 422.664L366.756 424.948H540.85L501.676 421.522C501.676 421.522 542.302 403.273 531.42 395.862C520.537 388.45 496.601 404.415 496.601 404.415C496.601 404.415 537.947 363.35 529.968 347.945C521.989 332.54 486.438 375.9 486.438 375.9C486.438 375.9 515.462 320.572 509.618 310.877C503.775 301.181 484.267 344.53 484.267 344.53Z" fill="#88C0B2" fill-opacity="0.6"/>
<path opacity="0.4" d="M484.267 344.53C484.267 344.53 466.125 305.167 455.975 306.88C445.825 308.593 473.36 369.62 473.36 369.62C473.36 369.62 441.445 315.433 419.68 315.433C397.915 315.433 427.659 375.329 455.219 395.291C455.219 395.291 411.701 353.084 386.313 362.208C360.925 371.333 437.089 414.111 437.089 414.111C437.089 414.111 392.84 401.561 397.915 411.256C402.99 420.951 416.776 422.664 416.776 422.664L366.756 424.948H540.85L501.676 421.522C501.676 421.522 542.302 403.273 531.42 395.862C520.537 388.45 496.601 404.415 496.601 404.415C496.601 404.415 537.947 363.35 529.968 347.945C521.989 332.54 486.438 375.9 486.438 375.9C486.438 375.9 515.462 320.572 509.618 310.877C503.775 301.181 484.267 344.53 484.267 344.53Z" fill="white"/>
<path d="M490.074 346.595C474.104 389.032 474.104 419.063 474.104 419.063C474.104 419.063 492.965 419.711 512.558 406.655" stroke="#263238" stroke-linecap="round" stroke-linejoin="round"/>
<path d="M482.095 369.455C478.801 356.766 474.433 344.322 469.029 332.233" stroke="#263238" stroke-linecap="round" stroke-linejoin="round"/>
<path d="M434.942 344.64L475.556 398.826C475.556 398.826 503.128 377.964 512.558 366.183" stroke="#263238" stroke-linecap="round" stroke-linejoin="round"/>
<path d="M474.836 411.893C474.836 411.893 432.038 393.611 414.629 383.202" stroke="#263238" stroke-linecap="round" stroke-linejoin="round"/>
<path d="M436.418 119.682H306.074C300.737 119.682 296.411 123.575 296.411 128.378V416.252C296.411 421.055 300.737 424.948 306.074 424.948H436.418C441.755 424.948 446.081 421.055 446.081 416.252V128.378C446.081 123.575 441.755 119.682 436.418 119.682Z" fill="white" stroke="#263238" stroke-linecap="round" stroke-linejoin="round"/>
<path d="M441.078 173.121C440.551 173.121 440.045 172.933 439.672 172.597C439.299 172.262 439.09 171.806 439.09 171.332V147.34C439.129 146.889 439.356 146.467 439.726 146.159C440.096 145.851 440.581 145.68 441.085 145.68C441.588 145.68 442.073 145.851 442.443 146.159C442.813 146.467 443.04 146.889 443.079 147.34V171.288C443.084 171.527 443.036 171.765 442.938 171.987C442.839 172.209 442.693 172.412 442.506 172.582C442.32 172.753 442.098 172.889 441.853 172.981C441.608 173.074 441.344 173.121 441.078 173.121Z" fill="#263238"/>
<path d="M441.078 195.345C440.551 195.345 440.045 195.157 439.672 194.821C439.299 194.485 439.09 194.03 439.09 193.555V180.149C439.129 179.697 439.356 179.275 439.726 178.967C440.096 178.659 440.581 178.489 441.085 178.489C441.588 178.489 442.073 178.659 442.443 178.967C442.813 179.275 443.04 179.697 443.079 180.149V193.555C443.076 194.031 442.864 194.486 442.489 194.822C442.114 195.157 441.607 195.345 441.078 195.345Z" fill="#263238"/>
<path d="M425.133 119.682H294.788C289.452 119.682 285.126 123.575 285.126 128.378V416.252C285.126 421.055 289.452 424.948 294.788 424.948H425.133C430.47 424.948 434.796 421.055 434.796 416.252V128.378C434.796 123.575 430.47 119.682 425.133 119.682Z" fill="#263238" stroke="#263238" stroke-linecap="round" stroke-linejoin="round"/>
<path d="M424.828 140.006H295.093V401.835H424.828V140.006Z" fill="#7B1FA2"/>
<path d="M340.697 131.639H375.235" stroke="white" stroke-width="3" stroke-linecap="round" stroke-linejoin="round"/>
<path d="M355.313 411.102C355.313 413.243 353.824 414.978 351.982 414.978C350.14 414.978 348.664 413.243 348.664 411.102C348.664 408.961 350.152 407.215 351.982 407.215C353.812 407.215 355.313 408.95 355.313 411.102Z" fill="white"/>
<path d="M359.961 205.161C372.385 205.161 382.457 194.592 382.457 181.554C382.457 168.516 372.385 157.947 359.961 157.947C347.536 157.947 337.464 168.516 337.464 181.554C337.464 194.592 347.536 205.161 359.961 205.161Z" fill="white"/>
<path d="M359.961 181.258C364.677 181.258 368.501 177.241 368.501 172.287C368.501 167.333 364.677 163.316 359.961 163.316C355.244 163.316 351.421 167.333 351.421 172.287C351.421 177.241 355.244 181.258 359.961 181.258Z" fill="#263238" stroke="#263238" stroke-linecap="round" stroke-linejoin="round"/>
<path d="M359.961 183.64C351.421 183.64 344.43 189.537 344.43 196.816C344.437 197.494 344.506 198.17 344.638 198.837C346.532 200.826 348.882 202.424 351.527 203.519C354.172 204.614 357.049 205.181 359.961 205.181C362.872 205.181 365.749 204.614 368.394 203.519C371.039 202.424 373.39 200.826 375.284 198.837C375.405 198.169 375.47 197.493 375.479 196.816C375.479 189.537 368.525 183.64 359.961 183.64Z" fill="#263238" stroke="#263238" stroke-linecap="round" stroke-linejoin="round"/>
<path d="M387.313 284.382H332.609C331.161 284.33 329.795 283.764 328.811 282.806C327.827 281.849 327.306 280.579 327.363 279.276V248.884C327.363 231.37 342.003 217.118 359.961 217.118C377.919 217.118 392.547 231.392 392.547 248.884V279.254C392.578 279.9 392.467 280.546 392.221 281.153C391.975 281.761 391.598 282.319 391.112 282.795C390.626 283.271 390.04 283.656 389.388 283.929C388.736 284.201 388.031 284.355 387.313 284.382ZM337.842 274.17H382.067V248.916C382.067 237.036 372.149 227.363 359.961 227.363C347.773 227.363 337.842 237.036 337.842 248.916V274.17Z" fill="#263238"/>
<path d="M397.939 263.641H321.982V328.313H397.939V263.641Z" fill="white"/>
<path d="M371.026 308.165L365.39 295.966C366.636 295.118 367.644 294.018 368.333 292.756C369.021 291.493 369.371 290.103 369.355 288.697C369.355 283.833 365.317 279.913 360.327 279.913C355.337 279.913 351.311 283.844 351.311 288.697C351.292 290.103 351.64 291.492 352.326 292.755C353.013 294.017 354.019 295.117 355.264 295.966L349.64 308.165H371.026Z" fill="#263238" stroke="#263238" stroke-linecap="round" stroke-linejoin="round"/>
<path d="M336.817 386.43C336.934 386.507 337.075 386.549 337.22 386.551C337.324 386.55 337.426 386.527 337.517 386.483C337.609 386.439 337.687 386.376 337.745 386.298L424.828 279.693V277.673L336.72 385.596C336.665 385.656 336.625 385.726 336.6 385.8C336.575 385.875 336.567 385.953 336.576 386.031C336.585 386.108 336.611 386.184 336.653 386.252C336.694 386.321 336.75 386.381 336.817 386.43Z" fill="white"/>
<path d="M407.309 178.414C407.257 178.477 407.22 178.549 407.199 178.625C407.178 178.702 407.175 178.781 407.188 178.859C407.202 178.936 407.232 179.011 407.278 179.078C407.324 179.145 407.384 179.203 407.456 179.248C407.599 179.34 407.776 179.377 407.949 179.353C408.122 179.328 408.278 179.243 408.383 179.117L424.828 158.99V157.014L407.309 178.414Z" fill="white"/>
<path d="M295.093 317.827L402.6 186.254C402.703 186.126 402.746 185.966 402.719 185.809C402.691 185.653 402.596 185.512 402.453 185.419C402.311 185.326 402.133 185.288 401.959 185.312C401.785 185.337 401.63 185.423 401.526 185.551L295.142 315.807L295.093 317.827Z" fill="white"/>
<path d="M326.716 399.408C326.82 399.407 326.922 399.384 327.015 399.342C327.108 399.301 327.189 399.241 327.253 399.167L333.353 391.744C333.405 391.681 333.442 391.609 333.463 391.533C333.484 391.456 333.487 391.377 333.474 391.299C333.46 391.222 333.429 391.147 333.383 391.08C333.338 391.014 333.277 390.956 333.206 390.91C333.063 390.818 332.886 390.781 332.713 390.805C332.54 390.83 332.384 390.915 332.279 391.042L326.179 398.453C326.127 398.516 326.088 398.587 326.067 398.663C326.045 398.739 326.04 398.818 326.053 398.896C326.065 398.973 326.095 399.048 326.139 399.115C326.184 399.182 326.243 399.241 326.313 399.288C326.428 399.369 326.57 399.412 326.716 399.408Z" fill="white"/>
<path d="M424.828 301.039L353.336 388.56C353.264 388.649 353.22 388.754 353.21 388.864C353.2 388.973 353.225 389.084 353.28 389.182C353.336 389.28 353.421 389.362 353.526 389.419C353.63 389.476 353.751 389.505 353.873 389.504C353.977 389.506 354.081 389.485 354.174 389.443C354.268 389.401 354.349 389.339 354.41 389.263L424.828 303.048V301.039Z" fill="white"/>
<path d="M173.74 178.03C174.95 175.617 175.534 172.989 175.448 170.344C175.448 165.436 168.848 162.592 161.089 161.812C153.33 161.033 149.889 163.876 151.036 165.688C152.228 167.182 153.682 168.492 155.343 169.564C155.343 169.564 147.583 165.688 142.411 168.796C137.238 171.903 144.716 170.607 143.277 173.704C141.837 176.8 133.797 175.515 131.784 183.783C129.771 192.051 135.518 200.33 130.345 203.953C125.172 207.577 109.605 202.658 105.066 211.705C100.528 220.753 106.97 224.772 96.0628 230.459C85.156 236.147 77.2016 241.703 80.3614 255.658C83.5212 269.614 93.8668 274.5 114.265 269.57C134.664 264.64 133.224 253.539 139.885 242.12C146.546 230.701 156.843 233.072 160.003 226.605C163.163 220.138 159.137 212.386 159.43 206.435C159.722 200.484 166.323 199.199 168.909 192.161C171.495 185.123 173.74 178.03 173.74 178.03Z" fill="#263238" stroke="#263238" stroke-linecap="round" stroke-linejoin="round"/>
<path d="M82.7403 255.395C82.2053 256.367 81.9335 257.439 81.9473 258.524" stroke="white" stroke-width="0.5" stroke-linecap="round" stroke-linejoin="round"/>
<path d="M162.712 172.902C162.712 172.902 159.125 169.169 166.03 170.904C174.729 173.1 164.517 182.158 160.589 183.981C152.708 187.615 142.289 186.451 136.189 193.061C130.65 199.034 138.129 205.26 134.81 209.992C131.492 214.725 118.206 211.98 113.79 217.678C109.373 223.377 121.805 235.609 109.08 242.329C99.8815 247.193 89.8043 249.059 84.9365 252.913" stroke="white" stroke-width="0.5" stroke-linecap="round" stroke-linejoin="round"/>
<path d="M142.081 194.994C141.327 196.582 141.098 198.331 141.422 200.033C142.52 204.261 148.889 212.232 143.081 216.712C137.274 221.192 127.307 220.939 125.66 226.188C124.013 231.436 127.319 245.853 121.792 252.54C116.266 259.227 105.469 258.765 99.6616 263.245C93.8544 267.725 94.684 270.218 94.684 270.218" stroke="white" stroke-width="0.5" stroke-linecap="round" stroke-linejoin="round"/>
<path d="M145.009 190.075C144.506 190.714 144.042 191.378 143.618 192.062" stroke="white" stroke-width="0.5" stroke-linecap="round" stroke-linejoin="round"/>
<path d="M177.461 254.999L178.864 264.881C178.864 264.881 186.184 271.469 191.565 275.543C196.945 279.617 210.731 288.236 210.731 288.236L203.74 290.026C203.74 290.026 180.89 277.838 176.376 276.85C171.862 275.861 168.482 269.998 167.079 268.219C165.676 266.441 173.789 253.221 177.461 254.999Z" fill="#FFBDA7" stroke="#263238" stroke-linecap="round" stroke-linejoin="round"/>
<path d="M191.418 415.78C191.418 415.78 198.323 421.028 201.178 422.785C204.033 424.542 207.363 425.332 206.839 426.287C206.314 427.243 204.887 428.198 198.165 427.385C191.442 426.573 189.503 424.52 188.258 424.201C187.014 423.883 184.013 424.684 181.719 423.411C179.425 422.137 183.061 414.55 183.061 414.55C184.068 415.61 185.46 416.315 186.99 416.54C188.519 416.765 190.088 416.496 191.418 415.78Z" fill="#1F8A70" stroke="#263238" stroke-linecap="round" stroke-linejoin="round"/>
<path d="M206.814 426.287C206.82 426.236 206.82 426.185 206.814 426.134C202.933 426.455 199.02 426.123 195.273 425.157C190.93 424.234 189.649 422.159 185.513 422.159C183.89 422.172 182.277 421.935 180.743 421.456C180.698 421.823 180.754 422.193 180.905 422.536C181.056 422.878 181.298 423.182 181.609 423.422C183.903 424.695 186.916 423.894 188.148 424.212C189.38 424.531 191.332 426.606 198.055 427.396C204.777 428.187 206.277 427.243 206.814 426.287Z" fill="#263238" stroke="#263238" stroke-linecap="round" stroke-linejoin="round"/>
<path d="M155.269 203.569C155.269 203.569 156.599 211.628 154.891 214.878C153.183 218.129 147.84 218.48 143.277 219.172C138.714 219.863 128.234 223.454 129.369 232.71C130.503 241.966 143.655 262.016 143.655 267.67C143.655 273.325 139.653 276.235 135.274 287.204C130.894 298.173 131.467 318.574 132.834 331.772C133.835 340.482 135.747 349.088 138.543 357.476C138.543 357.476 127.563 373.419 122.683 380.27C117.803 387.122 100.723 416.954 100.723 416.954C100.723 416.954 100.723 417.976 103.383 418.667C105.254 419.077 107.19 419.192 109.105 419.008C109.105 419.008 141.849 383.531 147.949 377.536C154.049 371.541 159.759 361.066 160.515 356.279C161.272 351.492 160.332 322.175 160.332 322.175C160.332 322.175 167.177 336.91 172.532 344.453C175.781 349.07 178.762 353.834 181.463 358.727C180.713 364.931 180.713 371.19 181.463 377.393C182.793 385.958 181.67 413.474 183 415.703C184.33 417.932 189.49 416.998 190.637 415.977C191.784 414.956 192.321 408.291 192.321 408.291C192.321 408.291 194.602 387.429 195.981 377.613C197.359 367.797 199.641 359.441 198.848 357.212C198.055 354.983 193.321 331.157 189.698 319.88C186.074 308.604 175.058 287.489 172.618 282.01C170.178 276.531 168.799 271.546 169.19 269.833C169.58 268.121 176.998 257.843 178.95 255.098C180.062 253.237 180.676 251.168 180.742 249.056C180.807 246.943 180.323 244.846 179.328 242.932C177.046 238.475 179.328 232.468 178.95 228.878C178.571 225.288 172.667 223.728 169.617 222.367C166.567 221.005 165.42 217.909 165.42 215.34C165.606 213.175 166.187 211.053 167.14 209.059C167.14 209.059 157.746 203.569 155.269 203.569Z" fill="#A4F2D5" stroke="#263238" stroke-linecap="round" stroke-linejoin="round"/>
<path d="M178.352 240.231C177.348 237.937 176.513 235.586 175.851 233.193" stroke="#263238" stroke-linecap="round" stroke-linejoin="round"/>
<path d="M153.623 259.315C153.623 259.315 157.063 259.995 163.956 256.899" stroke="#263238" stroke-linecap="round" stroke-linejoin="round"/>
<path d="M189.734 319.77C186.282 308.966 176.046 289.235 172.984 282.724C158.344 287.665 144.655 283.449 138.226 280.726C137.299 282.548 136.298 284.656 135.274 287.204C130.894 298.184 131.467 318.574 132.834 331.772C133.835 340.482 135.747 349.088 138.543 357.476C138.543 357.476 127.563 373.419 122.683 380.27C117.803 387.122 100.723 416.954 100.723 416.954C100.723 416.954 100.723 417.976 103.383 418.667C105.254 419.077 107.19 419.192 109.105 419.008C109.105 419.008 141.849 383.531 147.949 377.536C154.049 371.541 159.759 361.066 160.515 356.279C161.272 351.492 160.332 322.175 160.332 322.175C160.332 322.175 167.177 336.91 172.532 344.454C175.781 349.07 178.762 353.834 181.463 358.728C180.713 364.931 180.713 371.19 181.463 377.394C182.793 385.958 181.67 413.474 183 415.703C184.33 417.932 189.49 416.998 190.637 415.977C191.784 414.956 192.321 408.291 192.321 408.291C192.321 408.291 194.602 387.429 195.981 377.613C197.359 367.797 199.641 359.441 198.848 357.212C198.055 354.983 193.358 331.08 189.734 319.77Z" fill="#263238" stroke="#263238" stroke-linecap="round" stroke-linejoin="round"/>
<path d="M264.325 308.889V306.65H266.411V289.06H264.325H243.732H241.646V306.65H243.732V308.889H241.633V312.974H249.673V311.602H258.384V312.974H266.424V308.889H264.325Z" fill="#7B1FA2" stroke="#263238" stroke-linecap="round" stroke-linejoin="round"/>
<path d="M131.223 283.8H274.89C275.466 283.8 276.019 284.006 276.426 284.373C276.833 284.739 277.062 285.236 277.062 285.754V289.685C277.062 290.204 276.833 290.701 276.426 291.067C276.019 291.434 275.466 291.64 274.89 291.64H131.223V283.789V283.8Z" fill="#7B1FA2" stroke="#263238" stroke-linecap="round" stroke-linejoin="round"/>
<path d="M234.338 282.625H225.59C224.923 282.625 224.382 283.112 224.382 283.712V291.739C224.382 292.339 224.923 292.826 225.59 292.826H234.338C235.005 292.826 235.545 292.339 235.545 291.739V283.712C235.545 283.112 235.005 282.625 234.338 282.625Z" fill="#BA68C8" stroke="#263238" stroke-linecap="round" stroke-linejoin="round"/>
<path d="M135.718 291.027C137.742 279.902 129.363 269.407 117.002 267.585C104.64 265.763 92.9789 273.305 90.9547 284.43C88.9305 295.555 97.3102 306.05 109.671 307.872C122.032 309.694 133.694 302.152 135.718 291.027Z" fill="#7B1FA2" stroke="#263238" stroke-linecap="round" stroke-linejoin="round"/>
<path d="M117.998 287.676C119.313 287.109 120.429 286.227 121.223 285.127C122.017 284.027 122.459 282.751 122.5 281.439C122.5 277.432 118.401 274.182 113.338 274.182C108.275 274.182 104.176 277.476 104.176 281.439C104.214 282.752 104.655 284.029 105.449 285.129C106.244 286.23 107.361 287.111 108.678 287.676C107.362 288.245 106.246 289.128 105.451 290.231C104.657 291.333 104.216 292.611 104.176 293.924C104.176 297.931 108.275 301.181 113.338 301.181C118.401 301.181 122.5 297.887 122.5 293.924C122.457 292.611 122.015 291.334 121.221 290.233C120.427 289.131 119.312 288.247 117.998 287.676Z" fill="white" stroke="#263238" stroke-linecap="round" stroke-linejoin="round"/>
<path d="M206.253 291.815C206.253 291.815 213.353 294.517 215.549 294.517C217.745 294.517 220.283 292.529 221.54 290.125C222.796 287.72 222.76 286.578 222.015 287.149L220.442 288.247C220.442 288.247 221.662 285.842 220.283 286.128C219.328 286.414 218.536 287.025 218.075 287.83C218.075 287.83 217.916 285.7 216.66 286.732C215.828 287.41 215.087 288.172 214.451 289.005C214.451 289.005 214.293 286.314 213.5 287.017C212.707 287.72 209.73 291.552 209.73 291.552L206.253 291.815Z" fill="#FFBDA7" stroke="#263238" stroke-linecap="round" stroke-linejoin="round"/>
<path d="M214.451 288.983C214.451 288.983 213.976 292.386 211.621 292.957Z" fill="white"/>
<path d="M214.451 288.983C214.451 288.983 213.976 292.386 211.621 292.957" stroke="#263238" stroke-linecap="round" stroke-linejoin="round"/>
<path d="M218.075 287.852C218.075 287.852 216.855 293.232 214.927 294.088Z" fill="white"/>
<path d="M218.075 287.852C218.075 287.852 216.855 293.232 214.927 294.088" stroke="#263238" stroke-linecap="round" stroke-linejoin="round"/>
<path d="M220.442 288.269C219.813 290.232 218.967 292.134 217.917 293.945Z" fill="white"/>
<path d="M220.442 288.269C219.813 290.232 218.967 292.134 217.917 293.945" stroke="#263238" stroke-linecap="round" stroke-linejoin="round"/>
<path d="M169.165 222.037C167.936 221.291 166.941 220.273 166.275 219.081C165.608 217.889 165.293 216.563 165.359 215.23C165.577 213.1 166.179 211.016 167.14 209.059C167.14 209.059 157.807 203.569 155.33 203.569C155.33 203.569 156.66 211.628 154.952 214.878C154.392 215.889 153.479 216.707 152.354 217.206C154.609 222.672 157.666 227.841 161.443 232.578C164.871 236.454 166.542 228.285 169.165 222.037Z" fill="#FFBDA7" stroke="#263238" stroke-linecap="round" stroke-linejoin="round"/>
<path d="M140.361 220.281C138.033 220.639 135.829 221.478 133.924 222.734C132.018 223.99 130.463 225.627 129.381 227.517C125.623 234.039 109.202 263.641 110.605 265.409C118.584 275.51 147.608 282.779 150.56 285.436C153.512 288.215 156.751 290.733 160.235 292.957C163.187 294.648 169.08 293.924 170.153 293.441C171.227 292.957 172.032 290.783 170.153 290.783C169.436 290.792 168.736 290.578 168.172 290.179C167.608 289.779 167.214 289.217 167.055 288.587C166.786 287.621 170.007 289.554 171.617 288.829C173.228 288.104 168.018 285.458 166.408 284.25C164.798 283.042 163.456 281.363 161.308 281.363C159.161 281.363 155.123 281.363 155.123 281.363C155.123 281.363 145.241 274.917 139.263 270.119C134.612 266.341 129.538 263.008 124.123 260.171L142.24 233.347" fill="#A4F2D5"/>
<path d="M140.361 220.281C138.033 220.639 135.829 221.478 133.924 222.734C132.018 223.99 130.463 225.627 129.381 227.517C125.623 234.039 109.202 263.641 110.605 265.409C118.584 275.51 147.608 282.779 150.56 285.436C153.512 288.215 156.751 290.733 160.235 292.957C163.187 294.648 169.08 293.924 170.153 293.441C171.227 292.957 172.032 290.783 170.153 290.783C169.436 290.792 168.736 290.578 168.172 290.179C167.608 289.779 167.214 289.217 167.055 288.587C166.786 287.621 170.007 289.554 171.617 288.829C173.228 288.104 168.018 285.458 166.408 284.25C164.798 283.042 163.456 281.363 161.308 281.363C159.161 281.363 155.123 281.363 155.123 281.363C155.123 281.363 145.241 274.917 139.263 270.119C134.612 266.341 129.538 263.008 124.123 260.171L142.24 233.347" stroke="#263238" stroke-linecap="round" stroke-linejoin="round"/>
<path d="M166.396 284.261C164.785 283.053 163.443 281.373 161.296 281.373C159.149 281.373 155.111 281.373 155.111 281.373C155.111 281.373 145.229 274.928 139.251 270.13C134.599 266.352 129.525 263.019 124.111 260.182L131.357 249.443C127.653 247.425 123.415 246.337 119.084 246.292C114.204 255.45 109.824 264.497 110.544 265.452C118.523 275.554 147.547 282.823 150.499 285.48C153.451 288.258 156.69 290.777 160.174 293.001C163.126 294.692 169.019 293.967 170.092 293.484C171.166 293.001 171.971 290.827 170.092 290.827C169.375 290.836 168.675 290.622 168.111 290.223C167.547 289.823 167.153 289.261 166.994 288.631C166.725 287.665 169.946 289.597 171.556 288.873C173.167 288.148 168.006 285.48 166.396 284.261Z" fill="#FFBDA7" stroke="#263238" stroke-linecap="round" stroke-linejoin="round"/>
<path d="M176.217 191.744C175.265 190.031 175.265 188.658 175.643 186.254C176.022 183.849 173.74 178.019 173.74 178.019C171.41 181.642 164.676 183.794 161.699 184.607C158.417 185.507 163.212 187.549 162.699 190.283C162.187 193.017 155.635 194.599 155.635 194.599C155.635 194.599 153.72 191.052 151.06 191.052C148.401 191.052 146.51 196.542 148.023 199.452C148.417 200.258 149.103 200.92 149.97 201.328C150.837 201.737 151.832 201.869 152.793 201.703C152.793 201.703 152.61 206.852 156.221 208.389C160.074 210.044 164.094 211.364 168.226 212.331C170.507 212.672 172.789 211.651 173.74 208.565C174.484 205.456 174.994 202.305 175.265 199.133C176.863 198.193 178.333 197.087 179.645 195.839C180.56 194.653 177.168 193.457 176.217 191.744Z" fill="#FFBDA7" stroke="#263238" stroke-linecap="round" stroke-linejoin="round"/>
<path d="M172.508 191.821C172.508 192.765 172.166 193.522 171.752 193.522C171.337 193.522 170.995 192.765 170.995 191.821C170.995 190.876 171.337 190.119 171.752 190.119C172.166 190.119 172.508 190.876 172.508 191.821Z" fill="#263238"/>
<path d="M169.226 188.988C169.226 188.988 171.251 186.934 172.764 187.396" stroke="#263238" stroke-linecap="round" stroke-linejoin="round"/>
<path d="M172.764 203.064C171.85 203.312 170.879 203.342 169.949 203.149C169.018 202.956 168.159 202.549 167.457 201.966" stroke="#263238" stroke-linecap="round" stroke-linejoin="round"/>
<path d="M100.808 416.954C100.808 416.954 96.2577 425.167 96.4285 426.287C96.5993 427.407 105.627 433.293 109.849 435.357C114.07 437.421 121.707 437.75 121.17 434.885C120.633 432.019 113.387 430.108 111.618 425.804C110.675 423.578 109.861 421.309 109.178 419.008C106.228 419.047 103.327 418.335 100.808 416.954Z" fill="#1F8A70" stroke="#263238" stroke-linecap="round" stroke-linejoin="round"/>
<path d="M121.195 434.929C117.947 435.321 114.641 434.899 111.642 433.71C105.091 431.152 98.7467 425.925 97.0021 424.443C96.6923 425.035 96.4943 425.67 96.4165 426.32C96.5995 427.418 105.615 433.326 109.837 435.39C114.058 437.454 121.634 437.74 121.195 434.929Z" fill="#263238" stroke="#263238" stroke-linecap="round" stroke-linejoin="round"/>
</svg>
