<svg width="587" height="572" viewBox="0 0 587 572" fill="none" xmlns="http://www.w3.org/2000/svg">
<path d="M294.052 554.68C430.063 554.68 540.322 492.649 540.322 416.13C540.322 339.611 430.063 277.58 294.052 277.58C158.041 277.58 47.7817 339.611 47.7817 416.13C47.7817 492.649 158.041 554.68 294.052 554.68Z" fill="white"/>
<path d="M254.876 464.659C286.802 464.659 312.683 450.097 312.683 432.135C312.683 414.172 286.802 399.611 254.876 399.611C222.949 399.611 197.068 414.172 197.068 432.135C197.068 450.097 222.949 464.659 254.876 464.659Z" fill="#E0E0E0"/>
<path d="M352.881 494.86C391.538 494.86 422.875 477.231 422.875 455.484C422.875 433.737 391.538 416.107 352.881 416.107C314.225 416.107 282.887 433.737 282.887 455.484C282.887 477.231 314.225 494.86 352.881 494.86Z" fill="#E0E0E0"/>
<path d="M274.716 419.688C274.716 416.828 272.79 413.968 268.916 411.806C261.18 407.447 248.629 407.447 240.893 411.806C237.019 413.979 235.082 416.839 235.082 419.688V428.508C235.082 431.368 237.019 434.228 240.893 436.402C248.629 440.749 261.18 440.749 268.916 436.402C272.79 434.217 274.716 431.368 274.716 428.508V419.688Z" fill="#263238"/>
<path d="M268.963 420.626C276.7 424.985 276.7 432.066 268.963 436.402C261.226 440.738 248.676 440.749 240.94 436.402C233.203 432.055 233.191 424.962 240.94 420.626C248.688 416.29 261.226 416.279 268.963 420.626Z" fill="#37474F"/>
<path d="M274.763 419.688H235.128V428.508H274.763V419.688Z" fill="#37474F"/>
<path d="M268.963 411.84C276.7 416.188 276.7 423.28 268.963 427.605C261.226 431.929 248.676 431.963 240.94 427.605C233.203 423.246 233.191 416.165 240.94 411.84C248.688 407.516 261.226 407.447 268.963 411.84Z" fill="#455A64"/>
<path d="M261.543 413.808C265.195 415.856 265.195 419.185 261.543 421.232C259.499 422.243 257.238 422.769 254.946 422.769C252.653 422.769 250.393 422.243 248.348 421.232C244.708 419.185 244.708 415.856 248.348 413.808C250.393 412.798 252.653 412.271 254.946 412.271C257.238 412.271 259.499 412.798 261.543 413.808Z" fill="#263238"/>
<path d="M264.279 251.005H245.612V417.526H264.279V251.005Z" fill="#263238"/>
<path d="M331.173 174.105V173.98C330.997 173.03 330.786 172.069 330.539 171.108C330.572 171.21 330.6 171.313 330.622 171.417C330.469 170.765 330.293 170.113 330.105 169.461C330.176 169.701 330.234 169.941 330.293 170.182C330.105 169.461 329.894 168.752 329.671 168.031C329.776 168.34 329.882 168.66 329.964 168.969C329.847 168.557 329.718 168.145 329.589 167.733L329.377 167.081V166.99V167.058C327.8 162.393 325.722 157.903 323.178 153.662C323.096 153.513 323.014 153.365 322.92 153.216C316.522 142.611 307.247 132.921 296.893 126.904L296.388 126.607C293.419 124.926 290.269 123.568 286.996 122.557C284.275 121.718 281.443 121.275 278.59 121.241H277.604H277.005C276.512 121.241 276.031 121.333 275.561 121.401H275.127L274.328 121.55C273.988 121.619 273.647 121.699 273.319 121.79L272.403 122.053C272.403 122.053 272.403 122.053 272.344 122.053L271.429 122.374C271.123 122.5 270.818 122.625 270.536 122.763L268.517 123.907L166.837 181.107H166.755C161.249 184.115 157.914 190.259 157.914 198.987V252.881L119.654 273.473C115.863 275.509 112.696 278.49 110.476 282.111C108.256 285.731 107.063 289.862 107.018 294.079C106.974 298.296 108.081 302.45 110.224 306.114C112.368 309.778 115.472 312.821 119.219 314.932C129.874 320.921 141.958 324.073 154.257 324.073C166.557 324.073 178.641 320.921 189.296 314.932L228.93 293.196L331.925 235.206V181.301C331.895 178.886 331.644 176.477 331.173 174.105Z" fill="#BA68C8"/>
<path d="M165.076 249.14V188.932L230.491 152.484L236.385 208.151L165.076 249.14Z" fill="#BA68C8"/>
<path opacity="0.5" d="M165.076 249.14V188.932L230.491 152.484L236.385 208.151L165.076 249.14Z" fill="black"/>
<path d="M165.076 249.14L236.385 208.151V273.668L221.639 280.966L165.076 249.14Z" fill="#BA68C8"/>
<path opacity="0.3" d="M165.076 249.14L236.385 208.151V273.668L221.639 280.966L165.076 249.14Z" fill="black"/>
<path d="M331.185 174.105L324.423 177.732L283.263 199.685L275.819 203.632L224.375 231.088C221.111 225.711 212.635 200.623 208.115 196.082C203.76 191.619 198.79 187.769 193.346 184.642C186.889 181.004 180.843 179.276 175.619 179.276C172.545 179.215 169.506 179.92 166.79 181.324L268.482 124.124L270.501 122.98C270.783 122.843 271.088 122.717 271.393 122.591L272.309 122.271C272.309 122.271 272.309 122.271 272.368 122.271L273.284 122.008C273.612 121.916 273.953 121.836 274.293 121.767L275.092 121.619H275.526C275.996 121.55 276.477 121.493 276.97 121.458H277.569H278.555C281.408 121.492 284.24 121.936 286.961 122.774C290.234 123.785 293.383 125.143 296.353 126.824L296.857 127.121C313.869 136.788 327.98 156.591 331.185 174.105Z" fill="#BA68C8"/>
<g opacity="0.3">
<path d="M331.185 174.105L324.423 177.732L283.263 199.685L275.819 203.632L224.375 231.088C221.111 225.711 212.635 200.623 208.115 196.082C203.76 191.619 198.79 187.769 193.346 184.642C186.889 181.004 180.843 179.276 175.619 179.276C172.545 179.215 169.506 179.92 166.79 181.324L268.482 124.124L270.501 122.98C270.783 122.843 271.088 122.717 271.393 122.591L272.309 122.271C272.309 122.271 272.309 122.271 272.368 122.271L273.284 122.008C273.612 121.916 273.953 121.836 274.293 121.767L275.092 121.619H275.526C275.996 121.55 276.477 121.493 276.97 121.458H277.569H278.555C281.408 121.492 284.24 121.936 286.961 122.774C290.234 123.785 293.383 125.143 296.353 126.824L296.857 127.121C313.869 136.788 327.98 156.591 331.185 174.105Z" fill="black"/>
</g>
<path d="M322.85 153.296C322.944 153.433 323.038 153.582 323.12 153.731C323.073 153.548 322.991 153.399 322.85 153.296Z" fill="#BA68C8"/>
<path d="M328.309 164.164C329.582 167.384 330.544 170.712 331.186 174.105L324.423 177.732L283.263 199.685L275.82 203.632L224.375 231.088L228.93 293.196L331.925 235.206V181.301C331.788 175.423 330.563 169.618 328.309 164.164Z" fill="#BA68C8"/>
<path d="M326.783 160.572C326.348 159.634 325.891 158.684 325.409 157.746C325.891 158.684 326.372 159.634 326.783 160.572Z" fill="#BA68C8"/>
<path d="M323.625 154.44C324.118 155.309 324.611 156.179 325.069 157.06C324.611 156.225 324.13 155.355 323.625 154.44Z" fill="#BA68C8"/>
<g opacity="0.5">
<path d="M322.85 153.296C322.944 153.433 323.038 153.582 323.12 153.731C323.073 153.548 322.991 153.399 322.85 153.296Z" fill="black"/>
<path d="M328.309 164.164C329.582 167.384 330.544 170.712 331.186 174.105L324.423 177.732L283.263 199.685L275.82 203.632L224.375 231.088L228.93 293.196L331.925 235.206V181.301C331.788 175.423 330.563 169.618 328.309 164.164Z" fill="black"/>
<path d="M326.783 160.572C326.349 159.634 325.891 158.684 325.41 157.746C325.891 158.684 326.372 159.634 326.783 160.572Z" fill="black"/>
<path d="M323.625 154.44C324.118 155.309 324.611 156.179 325.069 157.06C324.611 156.225 324.13 155.355 323.625 154.44Z" fill="black"/>
</g>
<path d="M175.619 186.392C179.716 186.392 184.6 187.914 189.707 190.808C207 200.532 221.616 222.737 221.616 239.302V280.967L165.053 249.141V199.319C165.053 188.634 170.782 186.392 175.619 186.392ZM175.619 179.322C164.982 179.322 157.833 186.495 157.833 199.319V253.213L228.883 293.253V239.302C228.883 220.174 212.975 195.727 193.358 184.688C186.901 181.061 180.831 179.322 175.619 179.322Z" fill="#BA68C8"/>
<path d="M157.832 253.213L119.572 273.805C115.781 275.841 112.614 278.822 110.394 282.442C108.174 286.063 106.981 290.193 106.936 294.411C106.892 298.628 107.999 302.781 110.142 306.445C112.286 310.109 115.39 313.152 119.137 315.263C129.792 321.252 141.875 324.405 154.175 324.405C166.475 324.405 178.559 321.252 189.213 315.263L228.93 293.196L157.832 253.213Z" fill="#BA68C8"/>
<path opacity="0.2" d="M157.832 253.213L119.572 273.805C115.781 275.841 112.614 278.822 110.394 282.442C108.174 286.063 106.981 290.193 106.936 294.411C106.892 298.628 107.999 302.781 110.142 306.445C112.286 310.109 115.39 313.152 119.137 315.263C129.792 321.252 141.875 324.405 154.175 324.405C166.475 324.405 178.559 321.252 189.213 315.263L228.93 293.196L157.832 253.213Z" fill="white"/>
<path d="M252.586 276.78L244.603 281.264V206.16L252.586 201.665V276.78Z" fill="#E0E0E0"/>
<path d="M267.66 208.197L244.603 221.158V206.16L267.66 193.188V208.197Z" fill="#E0E0E0"/>
<path d="M256.026 274.137C255.885 276.669 255.133 279.134 253.832 281.33C252.531 283.527 250.716 285.393 248.536 286.778C244.391 289.066 241.034 287.224 241.034 282.568C241.184 280.044 241.941 277.59 243.244 275.404C244.547 273.218 246.36 271.361 248.536 269.984C252.668 267.593 256.026 269.481 256.026 274.137Z" fill="#BA68C8"/>
<path opacity="0.2" d="M256.026 274.137C255.885 276.669 255.133 279.134 253.832 281.33C252.531 283.527 250.716 285.393 248.536 286.778C244.391 289.066 241.034 287.224 241.034 282.568C241.184 280.044 241.941 277.59 243.244 275.404C244.547 273.218 246.36 271.361 248.536 269.984C252.668 267.593 256.026 269.481 256.026 274.137Z" fill="black"/>
<path d="M258.515 275.544C258.366 278.067 257.611 280.52 256.31 282.706C255.008 284.892 253.198 286.749 251.025 288.128C246.892 290.416 243.535 288.563 243.535 283.907C243.678 281.375 244.431 278.911 245.732 276.715C247.033 274.519 248.846 272.652 251.025 271.265C255.169 269 258.515 270.888 258.515 275.544Z" fill="#BA68C8"/>
<path d="M425.833 399.256L439.076 406.738C439.076 406.738 432.384 385.928 436.094 365.004C437.491 357.111 440.45 353.187 441.483 351.071C442.516 348.954 450.522 335.913 443.478 329.895C436.434 323.878 419.94 335.844 420.679 368.082C421.043 378.643 422.774 389.118 425.833 399.256Z" fill="#166B54"/>
<path opacity="0.3" d="M425.833 399.256L439.076 406.738C439.076 406.738 432.384 385.928 436.094 365.004C437.491 357.111 440.45 353.187 441.483 351.071C442.516 348.954 450.522 335.913 443.478 329.895C436.434 323.878 419.94 335.844 420.679 368.082C421.043 378.643 422.774 389.118 425.833 399.256Z" fill="black"/>
<path d="M432.032 403.305C431.912 403.302 431.796 403.265 431.698 403.198C431.6 403.13 431.524 403.037 431.48 402.928C431.48 402.791 426.42 389.2 426.679 367.464C426.937 345.728 438.747 333.922 438.865 333.807C438.975 333.7 439.125 333.639 439.281 333.639C439.438 333.639 439.588 333.7 439.698 333.807C439.809 333.915 439.871 334.061 439.871 334.213C439.871 334.366 439.809 334.512 439.698 334.62C439.581 334.734 428.123 346.06 427.864 367.475C427.606 388.891 432.56 402.379 432.56 402.516C432.613 402.659 432.606 402.816 432.54 402.953C432.474 403.09 432.354 403.197 432.208 403.248C432.154 403.279 432.094 403.298 432.032 403.305Z" fill="white"/>
<path d="M436.106 405.101L458.001 417.685C458.001 417.685 468.027 416.244 467.275 407.046C466.524 397.849 462.438 395.675 467.51 391.637C472.582 387.598 473.897 387.335 473.65 383.365C473.404 379.396 470.68 377.646 469.389 376.113C468.097 374.58 464.516 371.251 467.041 366.469C469.565 361.687 472.981 357.076 467.909 354.891C464.869 353.587 459.773 355.223 456.404 358.712C453.035 362.202 450.229 364.73 447.012 365.576C443.795 366.423 437.139 366.446 437.362 371.823C437.585 377.199 439.017 379.053 437.679 381.432C435.178 385.859 424.413 388.285 436.106 405.101Z" fill="#166B54"/>
<path d="M445.028 410.787C444.878 410.788 444.734 410.732 444.625 410.632C444.516 410.532 444.45 410.395 444.441 410.25C444.441 409.929 442.022 378.126 464.704 357.237C464.757 357.172 464.824 357.119 464.9 357.082C464.976 357.044 465.06 357.023 465.145 357.019C465.23 357.015 465.315 357.03 465.394 357.06C465.473 357.091 465.544 357.138 465.603 357.198C465.662 357.258 465.707 357.33 465.736 357.408C465.764 357.486 465.775 357.569 465.768 357.652C465.76 357.735 465.735 357.815 465.693 357.887C465.652 357.96 465.595 358.023 465.526 358.072C443.22 378.572 445.568 409.849 445.568 410.158C445.581 410.311 445.532 410.463 445.431 410.581C445.329 410.699 445.185 410.773 445.028 410.787Z" fill="white"/>
<path d="M448.949 383.515C448.801 383.515 448.659 383.461 448.55 383.364C448.441 383.266 448.374 383.132 448.362 382.988C448.189 380.544 447.51 378.158 446.366 375.976C445.222 373.794 443.637 371.86 441.706 370.29C441.643 370.246 441.59 370.19 441.55 370.126C441.51 370.061 441.483 369.99 441.471 369.916C441.459 369.841 441.462 369.765 441.48 369.692C441.498 369.619 441.531 369.55 441.577 369.489C441.622 369.428 441.679 369.377 441.745 369.338C441.811 369.298 441.884 369.272 441.961 369.26C442.037 369.249 442.115 369.252 442.19 369.269C442.265 369.287 442.336 369.319 442.398 369.363C444.485 371.016 446.197 373.071 447.428 375.401C448.658 377.73 449.38 380.282 449.548 382.897C449.554 382.973 449.545 383.049 449.521 383.122C449.496 383.194 449.457 383.261 449.406 383.319C449.354 383.377 449.292 383.424 449.221 383.457C449.151 383.491 449.075 383.51 448.996 383.515H448.949Z" fill="white"/>
<path d="M447.294 388.96C447.146 388.963 447.003 388.91 446.895 388.811C446.84 388.758 446.796 388.695 446.766 388.625C446.737 388.555 446.721 388.481 446.721 388.405C446.721 388.329 446.737 388.255 446.766 388.185C446.796 388.115 446.84 388.052 446.895 387.999C447.13 387.736 452.835 381.73 466.031 383.492C466.187 383.514 466.328 383.595 466.424 383.716C466.52 383.838 466.564 383.991 466.548 384.144C466.524 384.295 466.441 384.431 466.316 384.523C466.191 384.615 466.034 384.655 465.878 384.636C453.293 382.954 447.834 388.708 447.775 388.765C447.715 388.831 447.641 388.883 447.557 388.916C447.474 388.95 447.384 388.965 447.294 388.96Z" fill="white"/>
<path d="M184.729 217.966C183.684 217.966 182.628 217.966 181.594 217.84C181.452 217.83 181.313 217.793 181.185 217.729C181.058 217.666 180.945 217.578 180.853 217.472C180.761 217.365 180.692 217.241 180.65 217.108C180.608 216.975 180.594 216.835 180.608 216.696C180.635 216.418 180.773 216.161 180.993 215.981C181.213 215.801 181.496 215.713 181.782 215.735C183.175 215.861 184.576 215.895 185.973 215.838C186.258 215.835 186.533 215.939 186.741 216.129C186.949 216.319 187.074 216.579 187.089 216.857C187.098 217.134 186.995 217.404 186.802 217.607C186.608 217.811 186.34 217.931 186.056 217.943C185.598 217.966 185.163 217.966 184.729 217.966ZM190.294 217.532C190.019 217.536 189.754 217.439 189.55 217.259C189.347 217.08 189.221 216.832 189.199 216.565C189.177 216.299 189.259 216.034 189.43 215.825C189.6 215.615 189.846 215.477 190.118 215.438C191.495 215.218 192.856 214.909 194.191 214.511C194.461 214.445 194.746 214.483 194.988 214.616C195.23 214.75 195.409 214.969 195.489 215.228C195.57 215.488 195.544 215.767 195.418 216.009C195.292 216.25 195.076 216.435 194.814 216.525C193.39 216.952 191.939 217.284 190.47 217.52L190.294 217.532ZM177.38 217.234H177.168C175.716 216.93 174.281 216.548 172.872 216.09C172.6 215.999 172.376 215.808 172.246 215.558C172.117 215.308 172.093 215.019 172.179 214.752C172.273 214.487 172.469 214.27 172.726 214.145C172.983 214.021 173.28 214.001 173.553 214.088C174.881 214.515 176.233 214.867 177.603 215.141C177.742 215.168 177.875 215.222 177.993 215.299C178.11 215.377 178.211 215.477 178.289 215.593C178.366 215.709 178.419 215.839 178.445 215.976C178.47 216.112 178.467 216.252 178.436 216.388C178.388 216.622 178.26 216.834 178.072 216.987C177.884 217.141 177.649 217.228 177.403 217.234H177.38ZM198.512 215.049C198.266 215.05 198.028 214.969 197.836 214.821C197.644 214.672 197.51 214.464 197.455 214.231C197.4 213.998 197.429 213.754 197.536 213.539C197.642 213.324 197.821 213.15 198.042 213.047L198.794 212.692C198.921 212.622 199.061 212.578 199.206 212.563C199.351 212.547 199.498 212.56 199.638 212.601C199.778 212.643 199.907 212.711 200.019 212.802C200.131 212.894 200.223 213.007 200.289 213.133C200.354 213.26 200.393 213.399 200.403 213.541C200.412 213.683 200.392 213.825 200.343 213.959C200.295 214.094 200.218 214.217 200.12 214.321C200.021 214.426 199.901 214.51 199.768 214.569L198.97 214.958C198.835 215.025 198.687 215.064 198.535 215.072L198.512 215.049ZM169.162 214.603C169.003 214.602 168.847 214.567 168.704 214.5C167.363 213.891 166.058 213.212 164.794 212.464C164.673 212.388 164.569 212.291 164.486 212.176C164.404 212.062 164.346 211.933 164.315 211.796C164.284 211.66 164.281 211.518 164.305 211.381C164.33 211.243 164.383 211.111 164.46 210.994C164.537 210.876 164.637 210.774 164.755 210.693C164.872 210.613 165.005 210.556 165.145 210.526C165.285 210.496 165.43 210.493 165.571 210.517C165.712 210.541 165.847 210.592 165.968 210.668C167.169 211.373 168.407 212.015 169.678 212.589C169.895 212.696 170.069 212.87 170.173 213.084C170.277 213.297 170.305 213.539 170.253 213.77C170.2 214.001 170.07 214.208 169.883 214.359C169.696 214.51 169.463 214.596 169.22 214.603H169.162ZM161.766 210.256C161.534 210.251 161.31 210.179 161.12 210.05C159.946 209.203 158.772 208.277 157.715 207.293C157.61 207.2 157.525 207.087 157.465 206.962C157.405 206.837 157.37 206.701 157.364 206.563C157.357 206.425 157.379 206.287 157.427 206.157C157.475 206.027 157.549 205.908 157.645 205.806C157.74 205.703 157.856 205.621 157.984 205.562C158.113 205.503 158.252 205.47 158.393 205.463C158.535 205.457 158.677 205.478 158.81 205.525C158.944 205.572 159.066 205.644 159.171 205.737C160.228 206.675 161.319 207.556 162.423 208.368C162.602 208.502 162.734 208.687 162.799 208.898C162.865 209.108 162.861 209.333 162.788 209.541C162.716 209.75 162.578 209.931 162.395 210.059C162.211 210.187 161.991 210.256 161.766 210.256ZM155.391 204.593C155.24 204.594 155.092 204.563 154.954 204.504C154.816 204.445 154.693 204.358 154.592 204.25C153.618 203.209 152.655 202.099 151.763 200.955C151.677 200.845 151.613 200.72 151.577 200.587C151.54 200.453 151.531 200.314 151.549 200.177C151.587 199.9 151.735 199.649 151.963 199.479C152.19 199.309 152.477 199.234 152.761 199.271C153.045 199.307 153.303 199.452 153.477 199.674C154.334 200.818 155.25 201.824 156.189 202.831C156.285 202.933 156.359 203.053 156.407 203.183C156.455 203.313 156.477 203.451 156.47 203.589C156.463 203.727 156.429 203.863 156.369 203.988C156.309 204.113 156.223 204.225 156.119 204.318C155.934 204.482 155.698 204.578 155.449 204.593H155.391ZM150.19 197.912C150.009 197.912 149.83 197.867 149.672 197.781C149.514 197.695 149.381 197.571 149.286 197.42C148.816 196.711 148.358 195.979 147.924 195.246C147.631 194.743 147.337 194.228 147.055 193.713C146.948 193.471 146.938 193.197 147.028 192.947C147.117 192.698 147.3 192.49 147.54 192.366C147.78 192.242 148.059 192.211 148.322 192.278C148.584 192.345 148.811 192.507 148.957 192.73C149.227 193.222 149.509 193.713 149.791 194.194C150.213 194.903 150.648 195.601 151.106 196.287C151.208 196.448 151.264 196.632 151.269 196.82C151.274 197.009 151.228 197.195 151.135 197.36C151.041 197.526 150.905 197.664 150.739 197.761C150.573 197.858 150.383 197.91 150.19 197.912ZM146.151 190.476C145.939 190.477 145.731 190.416 145.553 190.302C145.376 190.188 145.237 190.026 145.153 189.835C144.578 188.508 144.062 187.147 143.616 185.797C143.572 185.666 143.555 185.527 143.566 185.389C143.577 185.251 143.615 185.117 143.68 184.994C143.744 184.87 143.833 184.761 143.94 184.671C144.048 184.581 144.173 184.513 144.308 184.47C144.582 184.387 144.879 184.413 145.134 184.541C145.388 184.669 145.581 184.89 145.67 185.156C146.093 186.449 146.586 187.742 147.138 189.012C147.21 189.171 147.241 189.345 147.226 189.519C147.212 189.693 147.153 189.86 147.055 190.006C146.957 190.152 146.822 190.271 146.665 190.353C146.507 190.435 146.33 190.478 146.151 190.476ZM143.522 182.468C143.274 182.466 143.035 182.382 142.843 182.23C142.652 182.079 142.518 181.868 142.465 181.633C142.151 180.224 141.916 178.799 141.761 177.366C141.734 177.09 141.821 176.815 142.001 176.601C142.181 176.387 142.441 176.251 142.723 176.222C142.874 176.188 143.031 176.188 143.181 176.222C143.26 176.079 143.372 175.957 143.509 175.866C143.646 175.774 143.803 175.716 143.968 175.695C145.336 175.511 146.686 175.221 148.006 174.826C148.28 174.743 148.577 174.769 148.831 174.898C149.086 175.028 149.277 175.251 149.362 175.518C149.448 175.785 149.421 176.074 149.288 176.322C149.155 176.57 148.926 176.756 148.652 176.839C147.216 177.266 145.748 177.584 144.261 177.789C144.172 177.8 144.081 177.8 143.991 177.789C144.132 178.933 144.332 180.077 144.578 181.152C144.609 181.288 144.612 181.428 144.587 181.564C144.561 181.7 144.508 181.83 144.431 181.947C144.353 182.063 144.252 182.163 144.134 182.24C144.017 182.318 143.884 182.372 143.745 182.399C143.675 182.438 143.6 182.465 143.522 182.479V182.468ZM139.8 178.098C138.31 178.075 136.824 177.957 135.351 177.743C135.069 177.7 134.817 177.55 134.649 177.327C134.48 177.103 134.409 176.824 134.451 176.549C134.493 176.275 134.644 176.028 134.872 175.861C135.1 175.695 135.386 175.623 135.668 175.661C137.043 175.867 138.432 175.978 139.823 175.993C140.11 175.993 140.385 176.104 140.587 176.301C140.79 176.499 140.904 176.766 140.904 177.045C140.904 177.324 140.79 177.592 140.587 177.79C140.385 177.987 140.11 178.098 139.823 178.098H139.8ZM131.277 176.862C131.18 176.879 131.08 176.879 130.983 176.862C129.555 176.455 128.155 175.959 126.792 175.375C126.529 175.264 126.322 175.056 126.216 174.797C126.11 174.537 126.115 174.247 126.229 173.991C126.342 173.734 126.556 173.533 126.822 173.43C127.089 173.327 127.386 173.331 127.649 173.442C128.932 173.98 130.249 174.435 131.594 174.803C131.868 174.883 132.099 175.064 132.237 175.308C132.375 175.552 132.41 175.839 132.333 176.107C132.265 176.329 132.126 176.523 131.935 176.661C131.745 176.799 131.514 176.874 131.277 176.874V176.862ZM152.327 175.341C152.088 175.337 151.857 175.256 151.67 175.11C151.484 174.965 151.352 174.763 151.296 174.537C151.239 174.311 151.262 174.072 151.359 173.86C151.456 173.647 151.623 173.472 151.834 173.362C153.043 172.757 154.177 172.02 155.215 171.165C155.432 170.984 155.714 170.893 155.999 170.913C156.285 170.932 156.551 171.06 156.741 171.268C156.834 171.373 156.904 171.495 156.949 171.627C156.993 171.758 157.01 171.897 156.999 172.036C156.988 172.174 156.949 172.308 156.885 172.432C156.821 172.555 156.732 172.665 156.623 172.755C155.466 173.725 154.193 174.555 152.831 175.226C152.676 175.307 152.503 175.35 152.327 175.352V175.341ZM142.641 174.105C142.354 174.099 142.08 173.983 141.88 173.782C141.68 173.58 141.57 173.31 141.573 173.03C141.596 171.583 141.71 170.139 141.913 168.706C141.928 168.565 141.972 168.428 142.042 168.304C142.112 168.179 142.208 168.07 142.322 167.983C142.437 167.896 142.568 167.832 142.709 167.795C142.85 167.759 142.996 167.75 143.141 167.77C143.285 167.79 143.423 167.838 143.547 167.912C143.672 167.985 143.78 168.083 143.865 168.198C143.95 168.313 144.01 168.444 144.042 168.582C144.074 168.72 144.076 168.864 144.05 169.003C143.86 170.349 143.755 171.706 143.733 173.064C143.73 173.344 143.613 173.612 143.409 173.809C143.205 174.006 142.929 174.117 142.641 174.117V174.105ZM123.341 173.568C123.152 173.565 122.967 173.518 122.8 173.43C121.516 172.702 120.278 171.899 119.091 171.028C118.976 170.947 118.88 170.844 118.807 170.726C118.734 170.607 118.687 170.476 118.667 170.339C118.647 170.203 118.656 170.064 118.692 169.93C118.729 169.797 118.792 169.672 118.879 169.564C118.964 169.452 119.07 169.358 119.192 169.287C119.314 169.216 119.45 169.169 119.59 169.148C119.731 169.128 119.874 169.135 120.012 169.169C120.15 169.203 120.28 169.263 120.394 169.346C121.517 170.181 122.693 170.945 123.916 171.634C124.124 171.749 124.286 171.928 124.379 172.143C124.471 172.358 124.488 172.596 124.426 172.821C124.364 173.046 124.228 173.245 124.038 173.386C123.847 173.528 123.615 173.603 123.376 173.602L123.341 173.568ZM158.701 169.815C158.512 169.816 158.326 169.769 158.161 169.678C158.039 169.608 157.931 169.516 157.845 169.405C157.76 169.295 157.697 169.169 157.661 169.036C157.625 168.902 157.616 168.762 157.636 168.625C157.655 168.488 157.702 168.356 157.774 168.237C158.082 167.715 158.342 167.168 158.549 166.601C158.771 165.997 158.906 165.365 158.948 164.724C158.957 164.585 158.994 164.448 159.059 164.322C159.123 164.197 159.213 164.085 159.322 163.995C159.432 163.904 159.559 163.836 159.697 163.794C159.834 163.752 159.979 163.738 160.122 163.752C160.265 163.762 160.405 163.8 160.533 163.863C160.66 163.926 160.774 164.014 160.867 164.12C160.96 164.227 161.03 164.35 161.074 164.483C161.117 164.617 161.133 164.757 161.12 164.896C161.058 165.723 160.884 166.539 160.603 167.321C160.353 168.011 160.038 168.677 159.664 169.312C159.565 169.473 159.423 169.605 159.254 169.696C159.085 169.786 158.894 169.831 158.701 169.827V169.815ZM116.437 168.511C116.157 168.51 115.888 168.403 115.686 168.214L114.97 167.504C114.183 166.715 113.42 165.88 112.692 165.01C112.512 164.794 112.427 164.516 112.457 164.238C112.486 163.96 112.628 163.705 112.851 163.529C113.073 163.353 113.359 163.27 113.644 163.299C113.929 163.328 114.191 163.466 114.371 163.683C115.052 164.507 115.78 165.296 116.52 166.04L117.189 166.704C117.29 166.801 117.371 166.916 117.426 167.044C117.481 167.172 117.509 167.309 117.509 167.447C117.509 167.586 117.481 167.723 117.426 167.85C117.371 167.978 117.29 168.094 117.189 168.191C116.998 168.387 116.738 168.505 116.461 168.523L116.437 168.511ZM143.862 165.788C143.757 165.805 143.65 165.805 143.545 165.788C143.409 165.748 143.283 165.682 143.174 165.594C143.064 165.506 142.974 165.397 142.907 165.275C142.841 165.153 142.8 165.019 142.786 164.882C142.773 164.744 142.787 164.605 142.829 164.473C143.263 163.037 143.891 161.664 144.696 160.389C144.851 160.152 145.097 159.985 145.379 159.925C145.661 159.865 145.955 159.917 146.198 160.068C146.441 160.22 146.612 160.46 146.674 160.734C146.736 161.009 146.683 161.296 146.527 161.533C145.822 162.65 145.274 163.855 144.895 165.113C144.82 165.315 144.683 165.49 144.502 165.613C144.321 165.735 144.106 165.801 143.886 165.8L143.862 165.788ZM110.99 161.99C110.81 161.991 110.633 161.947 110.475 161.863C110.317 161.779 110.183 161.658 110.086 161.51C109.282 160.304 108.541 159.059 107.867 157.78C107.736 157.532 107.712 157.242 107.801 156.976C107.889 156.71 108.081 156.489 108.337 156.362C108.592 156.234 108.889 156.211 109.162 156.297C109.435 156.383 109.662 156.571 109.793 156.819C110.43 158.036 111.132 159.22 111.894 160.366C111.999 160.525 112.059 160.708 112.067 160.897C112.074 161.086 112.029 161.273 111.937 161.44C111.844 161.606 111.708 161.745 111.541 161.842C111.374 161.938 111.184 161.99 110.99 161.99ZM159.324 161.727C159.11 161.727 158.901 161.665 158.723 161.549C158.545 161.433 158.407 161.268 158.326 161.075C157.876 159.953 157.096 158.986 156.083 158.295C155.88 158.13 155.745 157.898 155.706 157.642C155.667 157.387 155.725 157.127 155.87 156.91C156.015 156.694 156.237 156.538 156.492 156.47C156.748 156.403 157.02 156.429 157.257 156.545C158.623 157.469 159.677 158.767 160.286 160.274C160.342 160.401 160.371 160.537 160.373 160.675C160.374 160.813 160.347 160.95 160.293 161.078C160.24 161.206 160.161 161.322 160.061 161.42C159.961 161.517 159.842 161.595 159.711 161.647C159.596 161.698 159.473 161.729 159.347 161.739L159.324 161.727ZM148.558 158.913C148.383 158.912 148.21 158.87 148.054 158.791C147.899 158.711 147.766 158.596 147.666 158.455C147.586 158.341 147.529 158.213 147.5 158.077C147.471 157.942 147.469 157.802 147.495 157.666C147.521 157.53 147.575 157.401 147.652 157.285C147.73 157.169 147.83 157.069 147.948 156.991C149.292 156.085 150.852 155.53 152.479 155.378C152.625 155.357 152.773 155.366 152.915 155.403C153.057 155.44 153.19 155.505 153.305 155.594C153.42 155.683 153.516 155.794 153.586 155.92C153.655 156.046 153.698 156.185 153.711 156.328C153.724 156.471 153.706 156.614 153.66 156.75C153.614 156.886 153.54 157.012 153.442 157.119C153.344 157.226 153.225 157.312 153.092 157.373C152.959 157.434 152.814 157.467 152.667 157.472C151.4 157.59 150.186 158.028 149.145 158.741C148.976 158.848 148.782 158.911 148.582 158.924L148.558 158.913ZM107.034 154.52C106.818 154.519 106.608 154.455 106.431 154.337C106.253 154.219 106.115 154.051 106.036 153.856C105.496 152.541 105.003 151.18 104.58 149.795C104.532 149.661 104.512 149.519 104.521 149.377C104.531 149.235 104.57 149.096 104.636 148.969C104.702 148.842 104.794 148.73 104.906 148.639C105.018 148.547 105.148 148.479 105.287 148.438C105.427 148.397 105.574 148.384 105.719 148.4C105.864 148.416 106.005 148.46 106.132 148.53C106.259 148.601 106.37 148.695 106.458 148.808C106.547 148.921 106.611 149.051 106.646 149.189C107.057 150.505 107.527 151.82 108.043 153.079C108.144 153.338 108.136 153.626 108.022 153.88C107.908 154.135 107.697 154.335 107.433 154.44C107.315 154.496 107.188 154.527 107.057 154.531L107.034 154.52ZM104.533 146.512C104.285 146.512 104.045 146.429 103.853 146.277C103.66 146.125 103.528 145.913 103.476 145.677C103.171 144.293 102.925 142.874 102.725 141.444C102.708 141.178 102.795 140.915 102.969 140.709C103.143 140.503 103.39 140.369 103.662 140.334C103.933 140.299 104.208 140.366 104.431 140.521C104.654 140.676 104.808 140.908 104.862 141.17C105.05 142.542 105.296 143.904 105.59 145.242C105.649 145.515 105.594 145.8 105.438 146.034C105.282 146.268 105.036 146.431 104.756 146.489L104.533 146.512ZM103.359 138.172C103.083 138.17 102.819 138.066 102.618 137.881C102.418 137.697 102.297 137.445 102.279 137.177C102.279 136.033 102.185 134.889 102.185 133.745V132.864C102.197 132.587 102.319 132.325 102.524 132.133C102.73 131.941 103.004 131.834 103.289 131.834C103.43 131.834 103.571 131.862 103.701 131.916C103.832 131.97 103.95 132.049 104.048 132.148C104.147 132.247 104.224 132.365 104.275 132.494C104.326 132.623 104.35 132.76 104.345 132.898V133.745C104.345 134.889 104.345 135.941 104.439 137.028C104.45 137.168 104.433 137.309 104.388 137.442C104.344 137.575 104.272 137.698 104.178 137.805C104.085 137.911 103.97 137.998 103.842 138.061C103.713 138.124 103.573 138.162 103.429 138.172H103.359Z" fill="#263238"/>
<path d="M114.183 99.8711L107.726 127.213L37.2158 112.467L114.183 99.8711Z" fill="#BCF0B4"/>
<path opacity="0.3" d="M114.183 99.8711L107.726 127.213L37.2158 112.467L114.183 99.8711Z" fill="black"/>
<path d="M37.2158 112.467L125.008 110.179L145.635 141.158L37.2158 112.467Z" fill="#BCF0B4"/>
<path d="M37.2158 112.467L114.183 99.8711L96.045 79.3706L37.2158 112.467Z" fill="#BCF0B4"/>
<path d="M343.008 397.37L324.43 396.909L323.471 433.562L342.049 434.023L343.008 397.37Z" fill="#945959"/>
<path d="M318.6 250.193C318.6 250.193 317.297 312.564 317.743 337.274C318.084 355.887 321.066 411.634 321.066 411.634C321.066 411.634 333.111 419.299 345.802 412.892C345.802 412.892 353.128 356.585 351.343 339.619C351.114 337.562 351.114 335.487 351.343 333.43L362.543 239.004L318.6 250.193Z" fill="#37474F"/>
<path d="M329.894 428.485C329.894 428.485 340.19 427.341 342.268 424.069V421.942C342.268 421.942 344.053 422.868 343.712 426.392C343.407 429.664 344.745 435.235 344.945 442.03C344.958 442.585 344.837 443.134 344.592 443.635C344.348 444.136 343.986 444.573 343.536 444.913C341.54 446.412 337.326 448.711 329.894 449.02C327.288 449.134 316.863 455.644 308.187 455.644C299.511 455.644 293.841 451.457 293.841 445.6C293.841 439.742 311.533 434.446 311.533 434.446L320.033 426.438C320.033 426.438 318.377 417.709 323.79 419.802C329.202 421.896 329.894 424.069 329.894 428.485Z" fill="#37474F"/>
<path d="M328.016 433.576C327.901 433.577 327.789 433.541 327.696 433.476C327.603 433.41 327.534 433.317 327.499 433.21C325.691 427.936 320.044 426.964 319.986 426.952C319.916 426.941 319.848 426.917 319.788 426.88C319.727 426.844 319.675 426.796 319.633 426.74C319.592 426.683 319.562 426.62 319.546 426.552C319.53 426.484 319.528 426.414 319.54 426.346C319.565 426.209 319.645 426.088 319.761 426.006C319.877 425.925 320.021 425.891 320.162 425.911C322.054 426.271 323.818 427.101 325.283 428.322C326.748 429.543 327.863 431.113 328.521 432.878C328.565 433.01 328.555 433.154 328.491 433.278C328.427 433.403 328.315 433.498 328.18 433.542L328.016 433.576Z" fill="#FAFAFA"/>
<path d="M324.623 436.848C324.509 436.845 324.398 436.808 324.306 436.743C324.214 436.678 324.144 436.587 324.106 436.482C322.31 431.231 316.651 430.235 316.593 430.224C316.523 430.213 316.456 430.188 316.396 430.152C316.336 430.115 316.284 430.067 316.244 430.011C316.203 429.954 316.175 429.89 316.16 429.823C316.145 429.755 316.145 429.685 316.158 429.618C316.17 429.549 316.195 429.484 316.232 429.425C316.27 429.366 316.319 429.315 316.377 429.274C316.434 429.234 316.5 429.205 316.569 429.189C316.638 429.174 316.71 429.172 316.78 429.183C318.672 429.542 320.437 430.373 321.901 431.594C323.366 432.815 324.482 434.384 325.139 436.15C325.161 436.216 325.169 436.286 325.163 436.355C325.158 436.424 325.138 436.492 325.105 436.553C325.072 436.615 325.027 436.67 324.973 436.714C324.918 436.759 324.855 436.793 324.787 436.813C324.736 436.837 324.679 436.849 324.623 436.848Z" fill="#FAFAFA"/>
<path d="M321.676 439.685C321.565 439.686 321.455 439.652 321.365 439.588C321.274 439.524 321.206 439.434 321.172 439.331C319.375 434.068 313.717 433.073 313.658 433.061C313.581 433.059 313.506 433.04 313.437 433.007C313.369 432.973 313.308 432.926 313.259 432.868C313.211 432.81 313.176 432.743 313.156 432.671C313.136 432.598 313.132 432.523 313.145 432.449C313.158 432.375 313.186 432.305 313.229 432.243C313.272 432.181 313.327 432.128 313.393 432.089C313.458 432.049 313.531 432.024 313.607 432.014C313.683 432.004 313.761 432.01 313.834 432.032C315.727 432.388 317.493 433.217 318.958 434.439C320.424 435.66 321.538 437.231 322.193 438.999C322.238 439.131 322.227 439.275 322.163 439.399C322.099 439.523 321.988 439.618 321.852 439.662L321.676 439.685Z" fill="#FAFAFA"/>
<path d="M293.888 445.6C293.888 451.388 299.441 455.541 307.976 455.633L320.127 450.885C320.127 438.61 311.603 434.446 311.603 434.446C311.603 434.446 293.888 439.754 293.888 445.6Z" fill="#EBEBEB"/>
<path d="M344.687 442.533C342.609 444.101 338.195 446.515 330.423 446.846C327.687 446.961 316.792 453.71 307.717 453.71C301.495 453.71 296.752 451.651 294.381 448.368C295.919 452.704 301.037 455.587 308.234 455.587C316.91 455.587 327.335 449.077 329.941 448.963C337.373 448.654 341.587 446.354 343.583 444.856C343.997 444.542 344.335 444.144 344.574 443.689C344.813 443.235 344.948 442.735 344.969 442.225C344.882 442.334 344.788 442.437 344.687 442.533Z" fill="#263238"/>
<path d="M329.366 258.922C329.366 258.922 331.068 273.039 342.174 280.498L351.977 328.397L358.27 268.509L329.366 258.922Z" fill="#263238"/>
<path d="M393.17 407.418L374.642 408.829L377.575 445.383L396.102 443.971L393.17 407.418Z" fill="#945959"/>
<path d="M386.047 251.68C386.047 251.68 388.289 259.951 389.369 294.077C390.238 321.121 390.884 336.679 391.118 341.964C391.175 343.28 391.32 344.591 391.553 345.888C393.835 359.527 395.363 373.274 396.131 387.072C397.716 413.384 397.845 425.842 397.845 425.842C397.845 425.842 386.387 434.571 372.557 427.719L359.174 349.309L345.086 276.539C345.086 276.539 325.774 269.366 324.071 250.227L386.047 251.68Z" fill="#37474F"/>
<path d="M395.438 435.59L395.732 439.159C395.732 439.159 393.525 442.179 390.919 443.06C390.919 443.06 388.923 435.956 385.389 435.59C381.855 435.224 374.518 434.903 375.504 438.861C376.054 440.925 376.396 443.036 376.525 445.165L369.716 457.532C369.716 457.532 355.898 469.132 361.674 476.522C367.45 483.912 386.833 479.954 388.747 468.354C389.053 466.606 389.726 464.939 390.724 463.457C391.722 461.975 393.023 460.709 394.546 459.739C395.796 458.972 396.779 457.855 397.367 456.535C397.956 455.214 398.122 453.752 397.845 452.338C397.493 449.684 396.671 444.581 396.918 442.282C397.164 439.983 397.822 435.624 395.438 435.59Z" fill="#37474F"/>
<path d="M361.674 476.522C366.476 482.665 380.634 480.983 386.41 473.593C386.664 472.392 386.79 471.17 386.786 469.944C386.786 456.731 369.716 457.531 369.716 457.531C369.716 457.531 355.898 469.131 361.674 476.522Z" fill="#EBEBEB"/>
<path d="M397.845 452.338C397.845 452.143 397.787 451.914 397.751 451.686C397.618 452.743 397.242 453.757 396.65 454.652C396.059 455.547 395.267 456.301 394.335 456.856C392.761 457.86 391.417 459.17 390.387 460.704C389.357 462.237 388.663 463.961 388.348 465.768C386.399 477.643 366.793 481.784 360.571 474.451C360.81 475.199 361.184 475.901 361.674 476.522C367.45 483.923 386.833 479.954 388.747 468.354C389.053 466.606 389.726 464.939 390.724 463.457C391.722 461.975 393.023 460.709 394.546 459.739C395.796 458.972 396.779 457.855 397.368 456.534C397.956 455.214 398.123 453.752 397.845 452.338Z" fill="#263238"/>
<path d="M386.563 447.922C386.425 447.924 386.291 447.875 386.188 447.785C382.055 443.975 376.584 445.703 376.526 445.726C376.457 445.754 376.383 445.768 376.309 445.767C376.234 445.767 376.16 445.751 376.092 445.721C376.025 445.691 375.964 445.648 375.914 445.594C375.864 445.54 375.826 445.477 375.802 445.408C375.779 445.339 375.77 445.266 375.777 445.193C375.783 445.121 375.806 445.051 375.841 444.987C375.877 444.924 375.927 444.868 375.986 444.824C376.045 444.779 376.113 444.748 376.185 444.73C378.026 444.171 379.984 444.089 381.867 444.49C383.75 444.891 385.494 445.762 386.927 447.018C386.979 447.066 387.02 447.124 387.048 447.188C387.076 447.252 387.09 447.321 387.09 447.39C387.09 447.46 387.076 447.528 387.048 447.592C387.02 447.656 386.979 447.714 386.927 447.762C386.831 447.858 386.701 447.915 386.563 447.922Z" fill="#FAFAFA"/>
<path d="M384.192 452.509C384.057 452.508 383.928 452.46 383.828 452.372C379.695 448.563 374.224 450.29 374.166 450.313C374.029 450.357 373.879 450.346 373.751 450.283C373.622 450.22 373.524 450.109 373.479 449.975C373.434 449.842 373.445 449.697 373.51 449.571C373.575 449.445 373.688 449.35 373.825 449.306C375.666 448.753 377.623 448.673 379.505 449.074C381.387 449.475 383.131 450.343 384.567 451.594C384.666 451.694 384.721 451.828 384.721 451.966C384.721 452.105 384.666 452.238 384.567 452.338C384.469 452.44 384.335 452.501 384.192 452.509Z" fill="#FAFAFA"/>
<path d="M381.832 457.097C381.697 457.096 381.568 457.047 381.468 456.959C377.335 453.15 371.865 454.877 371.806 454.9C371.669 454.944 371.52 454.933 371.391 454.87C371.262 454.807 371.164 454.696 371.119 454.563C371.074 454.429 371.085 454.284 371.15 454.158C371.215 454.033 371.328 453.937 371.465 453.893C373.306 453.337 375.264 453.255 377.146 453.656C379.029 454.057 380.773 454.927 382.208 456.181C382.306 456.282 382.361 456.415 382.361 456.553C382.361 456.692 382.306 456.825 382.208 456.925C382.109 457.026 381.975 457.087 381.832 457.097Z" fill="#FAFAFA"/>
<path d="M263.046 103.647C261.93 99.0304 261.145 94.3438 260.698 89.6211C260.417 84.0956 258.773 82.1622 255.31 84.9307C251.847 87.6992 243.957 95.7301 244.427 101.988C244.811 108.922 247.075 115.633 250.989 121.436L261.086 124.41L265.124 116.334L263.046 103.647Z" fill="#945959"/>
<path d="M306.813 153.662L286.585 149.304C286.585 149.304 277.968 135.701 272.979 128.529C267.989 121.356 265.16 116.391 265.16 116.391L255.768 113.611L250.978 121.493C250.978 121.493 266.721 159.623 274.024 166.109C277.698 169.335 301.437 176.497 301.437 176.497C301.437 176.497 311.404 166.246 306.813 153.662Z" fill="#945959"/>
<path d="M332.313 159.016L306.813 153.662C306.467 161.51 304.661 169.231 301.483 176.451L327.1 184.184L332.313 159.016Z" fill="#BA68C8"/>
<path opacity="0.3" d="M332.313 159.016L306.813 153.662C306.467 161.51 304.661 169.231 301.483 176.451L327.1 184.184L332.313 159.016Z" fill="white"/>
<path d="M367.685 162.002L379.542 165.64L386.046 199.823L382.196 216.399C381.668 218.65 381.569 220.977 381.902 223.263L386.046 251.68C386.046 251.68 374.306 258.979 352.717 258.979C331.127 258.979 318.6 250.25 318.6 250.25L320.232 185.751C320.841 175.717 325.128 166.229 332.312 159.016L347.023 160.675L367.685 162.002Z" fill="#BA68C8"/>
<path d="M330.305 107.742C330.305 107.742 318.976 117.432 328.826 139.031L340.343 109.824L330.305 107.742Z" fill="#263238"/>
<path d="M367.685 162.002L353.41 166.475L347.023 160.675V134.603H367.685V162.002Z" fill="#945959"/>
<path d="M347.023 159.016C353.997 159.016 364.633 152.964 364.633 148.72L366.981 134.569H347.023V159.016Z" fill="#703838"/>
<path d="M352.517 101.816C345.567 101.816 330.786 105.591 329.037 123.312C327.288 141.032 330 156.122 338.37 156.122C354.806 156.122 370.608 154.085 370.737 127.865C370.878 104.676 359.303 101.816 352.517 101.816Z" fill="#945959"/>
<path d="M367.685 143.343L365.008 135.335C364.808 135.5 364.563 135.606 364.302 135.641C364.042 135.675 363.777 135.637 363.539 135.53C363.3 135.423 363.097 135.252 362.954 135.038C362.811 134.823 362.734 134.573 362.731 134.317V120.017C362.731 120.017 355.898 118.13 356.626 112.524C356.626 112.524 353.104 115.579 339.709 115.579C326.313 115.579 323.038 104.493 324.376 98.3843C324.376 98.3843 326.865 100.89 333.956 100.89C341.047 100.89 370.573 92.2067 371.336 109.584C371.336 109.584 373.825 106.026 377.852 109.584L372.675 112.581C372.675 112.581 378.815 112.398 377.852 121.173C377.23 126.893 375.058 137.063 373.649 143.298C372.862 146.781 370.726 149.834 367.685 151.821V143.343Z" fill="#263238"/>
<path d="M342.35 128.586V139.969L335.506 137.921L342.35 128.586Z" fill="#703838"/>
<path d="M353.222 130.416C353.219 130.836 353.089 131.247 352.848 131.595C352.607 131.944 352.265 132.215 351.866 132.374C351.466 132.533 351.028 132.574 350.605 132.49C350.182 132.407 349.794 132.203 349.49 131.905C349.186 131.607 348.979 131.228 348.896 130.816C348.812 130.403 348.856 129.976 349.022 129.588C349.187 129.2 349.467 128.868 349.826 128.635C350.185 128.401 350.607 128.277 351.038 128.277C351.326 128.277 351.611 128.332 351.876 128.44C352.142 128.548 352.383 128.705 352.586 128.904C352.789 129.103 352.95 129.339 353.059 129.598C353.168 129.858 353.223 130.136 353.222 130.416Z" fill="#263238"/>
<path d="M336.868 128.906C336.868 129.327 336.74 129.738 336.5 130.088C336.26 130.438 335.919 130.711 335.52 130.872C335.121 131.033 334.682 131.075 334.258 130.993C333.835 130.911 333.445 130.708 333.14 130.411C332.835 130.113 332.627 129.734 332.542 129.321C332.458 128.909 332.501 128.481 332.667 128.092C332.832 127.703 333.112 127.371 333.471 127.137C333.83 126.903 334.252 126.778 334.684 126.778C335.263 126.778 335.819 127.003 336.228 127.402C336.638 127.801 336.868 128.342 336.868 128.906Z" fill="#263238"/>
<path d="M332.019 124.467L336.293 121.996C336.293 121.996 334.649 120.337 333.017 121.333C331.385 122.328 332.019 124.467 332.019 124.467Z" fill="#263238"/>
<path d="M355.487 126.012L351.202 123.552C351.202 123.552 352.846 121.894 354.478 122.889C356.109 123.884 355.487 126.012 355.487 126.012Z" fill="#263238"/>
<path d="M342.902 145.437C342.902 145.437 346.072 143.458 349.124 141.227C349.124 141.227 350.897 144.59 348.103 146.329C345.309 148.068 342.902 145.437 342.902 145.437Z" fill="#703838"/>
<path d="M364.821 135.45L372.381 127.464L366.946 124.284L364.821 135.45Z" fill="#253239"/>
<path d="M366.065 132.338C363.588 136.525 364.233 141.604 367.685 143.343C369.904 144.487 376.455 142.051 378.932 137.864C381.409 133.677 380.024 130.096 376.654 128.208C373.285 126.321 368.542 128.128 366.065 132.338Z" fill="#945959"/>
<path d="M347.023 160.675L344.205 165.034C343.661 165.872 343.305 166.813 343.16 167.795C343.014 168.777 343.083 169.777 343.361 170.731C343.639 171.686 344.12 172.572 344.773 173.333C345.427 174.093 346.237 174.712 347.152 175.147C348.814 175.935 350.628 176.376 352.475 176.441C354.323 176.506 356.164 176.194 357.881 175.525C359.598 174.856 361.152 173.845 362.444 172.556C363.736 171.268 364.737 169.73 365.384 168.042L367.732 162.002L357.401 158.398L347.023 160.675Z" fill="#945959"/>
<path d="M265.16 116.391C265.16 116.391 268.611 111.266 268.552 106.404C268.494 101.542 269.116 99.288 269.973 98.1211C270.83 96.9542 269.867 95.2497 267.566 95.8331C265.617 96.3479 263.211 99.2651 262.682 101.954C262.605 102.381 262.431 102.787 262.174 103.141C261.916 103.495 261.58 103.789 261.191 104.001C258.761 105.271 254.23 108.909 256.378 117.729L265.16 116.391Z" fill="#945959"/>
<path d="M255.932 111.723C255.825 111.706 255.729 111.649 255.665 111.563C255.601 111.477 255.575 111.37 255.592 111.266C255.817 109.674 256.425 108.157 257.365 106.837C258.306 105.517 259.552 104.432 261.004 103.67C261.344 103.492 261.637 103.241 261.86 102.935C262.084 102.63 262.233 102.278 262.295 101.908C262.318 101.805 262.381 101.715 262.471 101.657C262.561 101.6 262.671 101.579 262.777 101.599C262.829 101.608 262.878 101.628 262.922 101.656C262.966 101.684 263.004 101.721 263.033 101.763C263.063 101.806 263.083 101.854 263.093 101.904C263.104 101.954 263.104 102.006 263.094 102.056C263.004 102.538 262.805 102.993 262.51 103.39C262.216 103.786 261.833 104.112 261.391 104.344C260.049 105.048 258.896 106.052 258.027 107.272C257.158 108.493 256.597 109.897 256.39 111.369C256.386 111.422 256.371 111.474 256.345 111.521C256.319 111.568 256.284 111.61 256.241 111.643C256.198 111.677 256.148 111.701 256.095 111.715C256.042 111.728 255.987 111.731 255.932 111.723Z" fill="#703838"/>
<path d="M381.28 207.785L386.493 218.493L413.248 228.812L402.459 196.951L381.28 207.785Z" fill="#945959"/>
<path d="M377.958 165.159C377.958 165.159 369.036 174.094 372.898 186.689C375.071 193.941 377.876 200.998 381.28 207.785C381.28 207.785 396.319 208.219 402.412 196.951L394.746 178.098C393.537 175.134 391.634 172.486 389.187 170.367C386.741 168.247 383.82 166.715 380.658 165.891L377.958 165.159Z" fill="#BA68C8"/>
<path opacity="0.3" d="M377.958 165.159C377.958 165.159 369.036 174.094 372.898 186.689C375.071 193.941 377.876 200.998 381.28 207.785C381.28 207.785 396.319 208.219 402.412 196.951L394.746 178.098C393.537 175.134 391.634 172.486 389.187 170.367C386.741 168.247 383.82 166.715 380.658 165.891L377.958 165.159Z" fill="white"/>
<path d="M384.99 216.502C391.752 218.436 411.687 224.19 411.687 224.19C411.687 224.19 411.839 224.613 413.248 228.766C415.408 235.23 408.552 250.868 384.274 239.52C359.996 228.171 351.132 222.096 351.132 222.096L353.773 207.739C353.773 207.739 377.277 214.294 384.99 216.502Z" fill="#945959"/>
<path d="M385.706 216.834L398.28 220.369L384.204 213.745L385.706 216.834Z" fill="#703838"/>
<path d="M350.016 228.583L334.238 226.947C333.672 226.891 333.138 226.668 332.706 226.308C332.274 225.949 331.964 225.469 331.819 224.934L323.202 193.336C323.143 193.12 323.136 192.894 323.184 192.675C323.231 192.456 323.331 192.251 323.476 192.077C323.62 191.903 323.804 191.765 324.014 191.673C324.223 191.582 324.452 191.54 324.681 191.552L339.943 192.249C340.511 192.272 341.056 192.471 341.5 192.816C341.943 193.162 342.262 193.637 342.409 194.171L351.589 226.81C351.647 227.033 351.649 227.266 351.595 227.49C351.54 227.714 351.431 227.922 351.277 228.096C351.123 228.27 350.927 228.405 350.708 228.49C350.488 228.575 350.251 228.606 350.016 228.583Z" fill="#37474F"/>
<path d="M329.366 196.185C329.366 196.447 329.286 196.704 329.135 196.923C328.985 197.141 328.772 197.311 328.522 197.412C328.273 197.512 327.998 197.537 327.734 197.485C327.469 197.433 327.227 197.305 327.037 197.119C326.847 196.932 326.718 196.694 326.667 196.436C326.616 196.178 326.644 195.911 326.749 195.669C326.854 195.426 327.03 195.22 327.256 195.076C327.481 194.931 327.746 194.855 328.016 194.857C328.375 194.86 328.718 195.002 328.971 195.25C329.224 195.499 329.366 195.835 329.366 196.185Z" fill="#263238"/>
<path d="M353.773 207.785C353.773 207.785 349.206 200.051 343.536 198.175L345.802 206.675C345.802 206.675 341.493 207.007 336.621 207.007C331.749 207.007 326.419 203.804 324.881 202.98C323.343 202.156 321.911 207.899 328.039 218.722C334.167 229.544 351.179 222.154 351.179 222.154L353.773 207.785Z" fill="#945959"/>
<path d="M422.71 52.2005L431.21 56.9138V53.9851C431.21 53.7792 431.21 53.5619 431.21 53.3674C431.21 53.1729 431.21 52.967 431.21 52.7725V52.7039C431.515 48.8143 434.532 47.3271 438.254 49.3977C439.922 50.3999 441.351 51.7378 442.445 53.3216C443.279 48.0478 447.693 46.1373 453.011 49.146C458.928 52.4751 463.73 60.6318 463.73 67.267V73.5475C463.734 74.0451 463.87 74.5331 464.125 74.9641C464.38 75.3951 464.746 75.7544 465.186 76.0071L470.175 78.8557C471.252 79.4814 472.143 80.3695 472.76 81.4326C473.378 82.4958 473.701 83.6973 473.697 84.9189C473.694 85.4263 473.554 85.9241 473.292 86.3627C473.031 86.8013 472.655 87.1655 472.204 87.4188C471.753 87.6722 471.242 87.8061 470.721 87.807C470.2 87.808 469.688 87.676 469.236 87.4243L422.839 61.2724C421.605 60.5764 420.58 59.5753 419.869 58.3702C419.158 57.1651 418.785 55.7985 418.789 54.4084C418.793 53.9629 418.917 53.5262 419.147 53.1413C419.378 52.7565 419.707 52.4369 420.103 52.214C420.499 51.991 420.948 51.8726 421.405 51.8702C421.862 51.8678 422.312 51.9817 422.71 52.2005Z" fill="#E6E6E6"/>
<path d="M459.55 104.881L465.831 108.313V106.197C465.831 106.037 465.831 105.888 465.831 105.739C465.831 105.591 465.831 105.442 465.831 105.293C466.054 102.422 468.285 101.324 471.008 102.857C472.244 103.592 473.301 104.58 474.108 105.751C474.718 101.85 477.982 100.443 481.938 102.662C484.247 104.135 486.167 106.116 487.546 108.444C488.924 110.773 489.722 113.385 489.875 116.07V120.714C489.875 121.082 489.974 121.443 490.161 121.762C490.349 122.081 490.618 122.347 490.943 122.533L494.641 124.638C495.442 125.098 496.106 125.754 496.567 126.54C497.028 127.327 497.271 128.217 497.271 129.123C497.27 129.498 497.169 129.866 496.976 130.19C496.784 130.515 496.508 130.784 496.175 130.972C495.842 131.159 495.464 131.259 495.08 131.259C494.695 131.26 494.317 131.162 493.984 130.976L459.644 111.585C458.74 111.069 457.991 110.33 457.472 109.442C456.952 108.555 456.681 107.55 456.686 106.529C456.687 106.202 456.776 105.882 456.943 105.598C457.11 105.315 457.349 105.079 457.638 104.913C457.927 104.747 458.255 104.657 458.59 104.651C458.925 104.646 459.256 104.725 459.55 104.881Z" fill="#E6E6E6"/>
</svg>
